<svg width="62" height="62" viewBox="0 0 62 62" fill="none" xmlns="http://www.w3.org/2000/svg">
<circle cx="31" cy="31" r="31" fill="#F05858"/>
<circle cx="31" cy="31" r="31" stroke="#F05858"/>
<path d="M40.2596 34.0869H16.3776C14.3698 34.0869 12.7422 35.694 12.7422 37.6764V41.6774C12.7422 43.6598 14.3698 45.2669 16.3776 45.2669H40.2596C42.2674 45.2669 43.895 43.6598 43.895 41.6774V37.6764C43.895 35.694 42.2674 34.0869 40.2596 34.0869Z" fill="white"/>
<path d="M16 35C16 35 17.2565 23.6819 20.5759 18.6525C23.8952 13.6232 30.2255 12.5479 35 14C39.7745 15.4521 43 19 48 29.2441" stroke="white" stroke-width="2.5" stroke-miterlimit="10"/>
<path d="M47 32C47 32 44.3375 27.9595 39 26" stroke="white" stroke-width="2.5" stroke-miterlimit="10"/>
<path d="M37.5 23C37.5 23 40.0115 27.1185 40.5 35" stroke="white" stroke-width="2.5" stroke-miterlimit="10"/>
<path d="M48.6387 37.1603C51.2005 37.1603 53.2773 35.1097 53.2773 32.5801C53.2773 30.0506 51.2005 28 48.6387 28C46.0768 28 44 30.0506 44 32.5801C44 35.1097 46.0768 37.1603 48.6387 37.1603Z" fill="white"/>
</svg>
