<svg width="105" height="105" viewBox="0 0 105 105" fill="none" xmlns="http://www.w3.org/2000/svg">
<g filter="url(#filter0_d_0_348)">
<circle cx="52.5" cy="48.5" r="38.5" fill="white"/>
</g>
<g clip-path="url(#clip0_0_348)">
<path d="M53 75C67.3594 75 79 63.3594 79 49C79 34.6406 67.3594 23 53 23C38.6406 23 27 34.6406 27 49C27 63.3594 38.6406 75 53 75Z" fill="#FF4500"/>
<path d="M70.3333 49C70.3333 46.9018 68.6304 45.1988 66.5322 45.1988C65.4982 45.1988 64.586 45.5942 63.917 46.2632C61.3322 44.4082 57.7439 43.1918 53.7906 43.0398L55.524 34.9205L61.1497 36.1065C61.2105 37.5357 62.3965 38.6912 63.8561 38.6912C65.3462 38.6912 66.5626 37.4749 66.5626 35.9848C66.5626 34.4948 65.3462 33.2784 63.8561 33.2784C62.7918 33.2784 61.8795 33.8866 61.4538 34.7988L55.1591 33.4608C54.9766 33.4304 54.7941 33.4608 54.6421 33.5521C54.4901 33.6433 54.3988 33.7953 54.338 33.9778L52.4222 43.0398C48.3778 43.1614 44.7591 44.3474 42.1439 46.2632C41.4748 45.6246 40.5322 45.1988 39.5286 45.1988C37.4304 45.1988 35.7275 46.9018 35.7275 49C35.7275 50.5509 36.6398 51.8585 37.9778 52.4667C37.917 52.8316 37.8865 53.2269 37.8865 53.6222C37.8865 59.4608 44.6678 64.1743 53.0608 64.1743C61.4538 64.1743 68.2351 59.4608 68.2351 53.6222C68.2351 53.2269 68.2047 52.862 68.1439 52.4971C69.3906 51.8889 70.3333 50.5509 70.3333 49ZM44.3333 51.7065C44.3333 50.2164 45.5497 49 47.0398 49C48.5298 49 49.7462 50.2164 49.7462 51.7065C49.7462 53.1965 48.5298 54.4129 47.0398 54.4129C45.5497 54.4129 44.3333 53.1965 44.3333 51.7065ZM59.4468 58.8527C57.5918 60.7076 54.0643 60.8293 53.0304 60.8293C51.9965 60.8293 48.4386 60.6772 46.614 58.8527C46.3403 58.579 46.3403 58.1228 46.614 57.8491C46.8877 57.5755 47.3439 57.5755 47.6175 57.8491C48.7731 59.0047 51.2667 59.4304 53.0608 59.4304C54.855 59.4304 57.3181 59.0047 58.5041 57.8491C58.7778 57.5755 59.2339 57.5755 59.5076 57.8491C59.7205 58.1532 59.7205 58.579 59.4468 58.8527ZM58.9602 54.4129C57.4702 54.4129 56.2538 53.1965 56.2538 51.7065C56.2538 50.2164 57.4702 49 58.9602 49C60.4503 49 61.6667 50.2164 61.6667 51.7065C61.6667 53.1965 60.4503 54.4129 58.9602 54.4129Z" fill="white"/>
</g>
<defs>
<filter id="filter0_d_0_348" x="0" y="0" width="105" height="105" filterUnits="userSpaceOnUse" color-interpolation-filters="sRGB">
<feFlood flood-opacity="0" result="BackgroundImageFix"/>
<feColorMatrix in="SourceAlpha" type="matrix" values="0 0 0 0 0 0 0 0 0 0 0 0 0 0 0 0 0 0 127 0" result="hardAlpha"/>
<feOffset dy="4"/>
<feGaussianBlur stdDeviation="7"/>
<feComposite in2="hardAlpha" operator="out"/>
<feColorMatrix type="matrix" values="0 0 0 0 0 0 0 0 0 0 0 0 0 0 0 0 0 0 0.15 0"/>
<feBlend mode="normal" in2="BackgroundImageFix" result="effect1_dropShadow_0_348"/>
<feBlend mode="normal" in="SourceGraphic" in2="effect1_dropShadow_0_348" result="shape"/>
</filter>
<clipPath id="clip0_0_348">
<rect width="52" height="52" fill="white" transform="translate(27 23)"/>
</clipPath>
</defs>
</svg>
