<svg width="105" height="105" viewBox="0 0 105 105" fill="none" xmlns="http://www.w3.org/2000/svg">
<g filter="url(#filter0_d_0_192)">
<circle cx="52.5" cy="48.5" r="38.5" fill="white"/>
<path d="M62.2415 42.4388C64.9918 44.4118 68.3611 45.5727 72.0001 45.5727V38.5452C71.3115 38.5454 70.6245 38.4733 69.9508 38.3301V43.8617C66.312 43.8617 62.9432 42.7008 60.1921 40.7279V55.0689C60.1921 62.243 54.397 68.0584 47.2488 68.0584C44.5817 68.0584 42.1027 67.2492 40.0433 65.8614C42.3937 68.2732 45.6715 69.7693 49.2978 69.7693C56.4464 69.7693 62.2418 63.9539 62.2418 56.7795V42.4388H62.2415ZM64.7696 35.3489C63.3641 33.8078 62.4412 31.8163 62.2415 29.6146V28.7107H60.2994C60.7883 31.5091 62.4557 33.8999 64.7696 35.3489ZM44.5646 60.3562C43.7793 59.3228 43.3549 58.0587 43.3568 56.759C43.3568 53.4778 46.0074 50.8174 49.2776 50.8174C49.887 50.8172 50.4928 50.9109 51.0736 51.0958V43.9113C50.3949 43.8179 49.7099 43.7783 49.0251 43.7928V49.3849C48.4439 49.2 47.8378 49.1061 47.2282 49.1066C43.958 49.1066 41.3076 51.7668 41.3076 55.0484C41.3076 57.3687 42.6324 59.3776 44.5646 60.3562Z" fill="#FF004F"/>
<path d="M60.1922 40.7277C62.9432 42.7006 66.3121 43.8615 69.9508 43.8615V38.3299C67.9197 37.8957 66.1216 36.8305 64.7697 35.3489C62.4555 33.8997 60.7883 31.5089 60.2995 28.7107H55.1982V56.7792C55.1866 60.0515 52.5405 62.701 49.2773 62.701C47.3544 62.701 45.6461 61.7811 44.5642 60.3562C42.6322 59.3776 41.3073 57.3686 41.3073 55.0485C41.3073 51.7672 43.9578 49.1068 47.228 49.1068C47.8545 49.1068 48.4584 49.2047 49.0249 49.3851V43.793C42.0023 43.9386 36.3544 49.6972 36.3544 56.7794C36.3544 60.3148 37.7608 63.5198 40.0435 65.8615C42.1028 67.2492 44.5819 68.0586 47.249 68.0586C54.3974 68.0586 60.1923 62.2429 60.1923 55.0689V40.7277H60.1922Z" fill="black"/>
<path d="M69.9508 38.33V36.8343C68.1193 36.837 66.3237 36.3223 64.7697 35.3488C66.1453 36.8602 67.9567 37.9024 69.9508 38.33ZM60.2995 28.7107C60.2529 28.4433 60.217 28.1741 60.1922 27.9039V27H53.1487V55.0688C53.1374 58.3406 50.4915 60.9902 47.228 60.9902C46.2699 60.9902 45.3653 60.7619 44.5642 60.3564C45.6461 61.7812 47.3545 62.7009 49.2774 62.7009C52.5402 62.7009 55.1868 60.0517 55.1982 56.7794V28.7107H60.2995ZM49.0252 43.793V42.2007C48.4367 42.12 47.8433 42.0795 47.2492 42.0798C40.1003 42.0797 34.3052 47.8953 34.3052 55.0688C34.3052 59.5662 36.5828 63.5298 40.0437 65.8613C37.761 63.5197 36.3546 60.3145 36.3546 56.7793C36.3546 49.6972 42.0023 43.9386 49.0252 43.793Z" fill="#00F2EA"/>
</g>
<defs>
<filter id="filter0_d_0_192" x="0" y="0" width="105" height="105" filterUnits="userSpaceOnUse" color-interpolation-filters="sRGB">
<feFlood flood-opacity="0" result="BackgroundImageFix"/>
<feColorMatrix in="SourceAlpha" type="matrix" values="0 0 0 0 0 0 0 0 0 0 0 0 0 0 0 0 0 0 127 0" result="hardAlpha"/>
<feOffset dy="4"/>
<feGaussianBlur stdDeviation="7"/>
<feComposite in2="hardAlpha" operator="out"/>
<feColorMatrix type="matrix" values="0 0 0 0 0 0 0 0 0 0 0 0 0 0 0 0 0 0 0.15 0"/>
<feBlend mode="normal" in2="BackgroundImageFix" result="effect1_dropShadow_0_192"/>
<feBlend mode="normal" in="SourceGraphic" in2="effect1_dropShadow_0_192" result="shape"/>
</filter>
</defs>
</svg>
