<svg width="105" height="105" viewBox="0 0 105 105" fill="none" xmlns="http://www.w3.org/2000/svg">
<g filter="url(#filter0_d_0_198)">
<circle cx="52.5" cy="48.5" r="38.5" fill="white"/>
<path d="M53 72C66.2548 72 77 61.2548 77 48C77 34.7452 66.2548 24 53 24C39.7452 24 29 34.7452 29 48C29 61.2548 39.7452 72 53 72Z" fill="white"/>
<path d="M53 24C39.7457 24 29 34.7457 29 48C29 58.1728 35.321 66.8642 44.2494 70.3605C44.0321 68.4642 43.8543 65.5407 44.3284 63.4667C44.763 61.5901 47.1333 51.5358 47.1333 51.5358C47.1333 51.5358 46.4222 50.0938 46.4222 47.9802C46.4222 44.642 48.358 42.1531 50.7679 42.1531C52.8222 42.1531 53.8099 43.6938 53.8099 45.5309C53.8099 47.5852 52.5062 50.6667 51.8148 53.5309C51.242 55.921 53.0198 57.8765 55.3704 57.8765C59.637 57.8765 62.916 53.3728 62.916 46.8938C62.916 41.1457 58.7877 37.1358 52.8815 37.1358C46.0469 37.1358 42.037 42.2519 42.037 47.5457C42.037 49.6 42.8272 51.8123 43.8148 53.0173C44.0123 53.2543 44.0321 53.4716 43.9728 53.7086C43.7951 54.4593 43.3802 56.0988 43.3012 56.4346C43.2025 56.8691 42.9457 56.9679 42.4914 56.7506C39.4889 55.3481 37.6123 50.9827 37.6123 47.4469C37.6123 39.8815 43.1037 32.9284 53.4741 32.9284C61.7901 32.9284 68.2691 38.8543 68.2691 46.7951C68.2691 55.0716 63.0543 61.7284 55.8247 61.7284C53.3951 61.7284 51.1037 60.4642 50.3333 58.963C50.3333 58.963 49.1284 63.5457 48.8321 64.6716C48.2988 66.7654 46.837 69.3728 45.8494 70.9728C48.1012 71.6642 50.4716 72.0395 52.9605 72.0395C66.2148 72.0395 76.9605 61.2938 76.9605 48.0395C77 34.7457 66.2543 24 53 24Z" fill="#E60019"/>
</g>
<defs>
<filter id="filter0_d_0_198" x="0" y="0" width="105" height="105" filterUnits="userSpaceOnUse" color-interpolation-filters="sRGB">
<feFlood flood-opacity="0" result="BackgroundImageFix"/>
<feColorMatrix in="SourceAlpha" type="matrix" values="0 0 0 0 0 0 0 0 0 0 0 0 0 0 0 0 0 0 127 0" result="hardAlpha"/>
<feOffset dy="4"/>
<feGaussianBlur stdDeviation="7"/>
<feComposite in2="hardAlpha" operator="out"/>
<feColorMatrix type="matrix" values="0 0 0 0 0 0 0 0 0 0 0 0 0 0 0 0 0 0 0.15 0"/>
<feBlend mode="normal" in2="BackgroundImageFix" result="effect1_dropShadow_0_198"/>
<feBlend mode="normal" in="SourceGraphic" in2="effect1_dropShadow_0_198" result="shape"/>
</filter>
</defs>
</svg>
