<svg width="105" height="105" viewBox="0 0 105 105" fill="none" xmlns="http://www.w3.org/2000/svg">
<g filter="url(#filter0_d_0_356)">
<circle cx="52.5" cy="48.5" r="38.5" fill="white"/>
</g>
<circle cx="53" cy="49" r="26" fill="#FFF500"/>
<path d="M66.7296 56.573C61.7742 54.1734 60.9844 50.4686 60.9492 50.1938C60.9067 49.861 60.8585 49.5993 61.2256 49.2607C61.5796 48.9336 63.1502 47.9612 63.586 47.6569C64.3063 47.1531 64.6235 46.6502 64.3897 46.0319C64.2261 45.6042 63.828 45.4431 63.4086 45.4431C63.2762 45.4435 63.1444 45.4583 63.0153 45.4872C62.2239 45.659 61.4553 46.0556 61.0106 46.1627C60.9571 46.1765 60.9022 46.1839 60.847 46.1848C60.6099 46.1848 60.52 46.0793 60.5429 45.7939C60.5985 44.9286 60.7162 43.2398 60.5797 41.6622C60.3925 39.4917 59.6926 38.4162 58.8628 37.4651C58.4613 37.0038 56.5972 35.0222 52.9998 35.0222C49.4024 35.0222 47.5408 37.0038 47.1418 37.4594C46.3095 38.4105 45.6105 39.486 45.4249 41.6565C45.2883 43.2341 45.411 44.9221 45.4616 45.7882C45.478 46.0597 45.3946 46.1791 45.1575 46.1791C45.1023 46.1782 45.0474 46.1707 44.994 46.157C44.55 46.0499 43.7815 45.6532 42.9901 45.4815C42.861 45.4525 42.7291 45.4377 42.5968 45.4373C42.1758 45.4373 41.7792 45.6009 41.6157 46.0262C41.3819 46.6445 41.6975 47.1474 42.4202 47.6512C42.856 47.9554 44.4266 48.927 44.7806 49.255C45.1469 49.5936 45.0995 49.8553 45.0569 50.1881C45.0218 50.467 44.2312 54.1718 39.2766 56.5672C38.9863 56.7079 38.4925 57.0056 39.3633 57.4865C40.7303 58.2421 41.6402 58.1612 42.3475 58.6167C42.9476 59.0036 42.5927 59.8377 43.0293 60.1387C43.5657 60.5092 45.151 60.1125 47.199 60.7889C48.916 61.3548 49.9592 62.9537 53.0039 62.9537C56.0486 62.9537 57.1221 61.3475 58.8088 60.7889C60.8528 60.1125 62.4413 60.5092 62.9785 60.1387C63.4143 59.8377 63.0603 59.0036 63.6604 58.6167C64.3676 58.1612 65.2767 58.2421 66.6446 57.4865C67.5137 57.0113 67.0198 56.7136 66.7296 56.573Z" fill="white"/>
<path d="M68.8856 56.2913C68.6632 55.6861 68.2397 55.3623 67.7573 55.094C67.6666 55.0409 67.5832 54.9983 67.5121 54.9656C67.3682 54.8912 67.221 54.8192 67.0746 54.7432C65.5711 53.9458 64.397 52.9399 63.5827 51.7475C63.3515 51.4118 63.1509 51.0559 62.9834 50.6843C62.9139 50.4855 62.9172 50.3727 62.9671 50.2696C63.0165 50.1902 63.082 50.122 63.1592 50.0693C63.4176 49.8983 63.6841 49.725 63.8648 49.608C64.1869 49.3995 64.442 49.2343 64.6063 49.1173C65.2236 48.6855 65.6553 48.2267 65.9251 47.7139C66.1134 47.3596 66.2231 46.969 66.247 46.5685C66.2708 46.1679 66.2082 45.767 66.0633 45.3929C65.6545 44.3166 64.6382 43.6484 63.4069 43.6484C63.1472 43.6482 62.8882 43.6756 62.6343 43.7302C62.5665 43.745 62.4986 43.7605 62.4324 43.7777C62.4438 43.0416 62.4275 42.2647 62.3621 41.5C62.1299 38.8118 61.1888 37.4027 60.2077 36.2789C59.5794 35.5748 58.8394 34.9791 58.0174 34.5157C56.5286 33.6652 54.8402 33.2333 52.9998 33.2333C51.1594 33.2333 49.4793 33.6652 47.9888 34.5157C47.1648 34.9792 46.4233 35.5761 45.7944 36.2822C44.8133 37.4059 43.8723 38.8175 43.6401 41.5033C43.5747 42.2679 43.5583 43.049 43.5689 43.7809C43.5027 43.7638 43.4357 43.7482 43.3678 43.7335C43.1139 43.6789 42.8549 43.6515 42.5952 43.6517C41.3631 43.6517 40.3452 44.3199 39.938 45.3962C39.7925 45.7704 39.7292 46.1717 39.7525 46.5726C39.7758 46.9735 39.8851 47.3647 40.0729 47.7196C40.3436 48.2324 40.7752 48.6912 41.3925 49.123C41.556 49.2375 41.8119 49.4027 42.1341 49.6137C42.3082 49.7266 42.5625 49.8918 42.8119 50.057C42.8991 50.1134 42.9733 50.1879 43.0293 50.2754C43.0817 50.3825 43.0833 50.4978 43.0056 50.7104C42.8404 51.0743 42.6432 51.4227 42.4161 51.7515C41.6198 52.917 40.4801 53.9049 39.0248 54.6957C38.2538 55.1047 37.4526 55.3778 37.1141 56.2979C36.859 56.9922 37.0258 57.7822 37.6741 58.448C37.9121 58.6964 38.1881 58.9054 38.4917 59.0671C39.1235 59.4144 39.7954 59.6833 40.4924 59.8677C40.6362 59.9048 40.7727 59.9659 40.8962 60.0485C41.1325 60.2554 41.099 60.567 41.4138 61.0233C41.5718 61.2592 41.7726 61.4633 42.0057 61.6252C42.6663 62.0816 43.4087 62.1102 44.1952 62.1405C44.9057 62.1675 45.711 62.1985 46.6308 62.502C47.0118 62.6279 47.4075 62.8716 47.8662 63.1562C48.9675 63.8334 50.4751 64.76 52.9982 64.76C55.5213 64.76 57.0395 63.8285 58.149 63.1489C58.6044 62.8692 58.9977 62.6279 59.368 62.5052C60.2878 62.201 61.0932 62.1707 61.8036 62.1438C62.5902 62.1135 63.3325 62.0849 63.9931 61.6285C64.2693 61.4359 64.4993 61.1846 64.6668 60.8925C64.8933 60.5073 64.8876 60.2382 65.1002 60.0501C65.216 59.9715 65.3443 59.9129 65.4795 59.8767C66.186 59.6917 66.867 59.4203 67.5071 59.0687C67.8298 58.8956 68.1202 58.6682 68.3656 58.3964L68.3738 58.3866C68.9821 57.7356 69.135 56.9685 68.8856 56.2913ZM66.643 57.4968C65.2751 58.2525 64.366 58.1715 63.6588 58.6271C63.0578 59.0139 63.4135 59.8481 62.9769 60.1491C62.4405 60.5195 60.8552 60.1229 58.8072 60.7992C57.118 61.3578 56.0405 62.964 53.0023 62.964C49.9641 62.964 48.9119 61.3611 47.195 60.7951C45.151 60.1188 43.5624 60.5154 43.0253 60.145C42.5895 59.844 42.9435 59.0098 42.3434 58.623C41.6353 58.1674 40.7262 58.2484 39.3592 57.4968C38.4884 57.0159 38.9823 56.7182 39.2725 56.5776C44.2271 54.1781 45.0177 50.4733 45.0529 50.1985C45.0954 49.8656 45.1428 49.6039 44.7765 49.2653C44.4225 48.9382 42.8519 47.9658 42.4161 47.6616C41.695 47.1578 41.3778 46.6548 41.6116 46.0365C41.7752 45.6088 42.1741 45.4477 42.5927 45.4477C42.725 45.4481 42.8569 45.4629 42.986 45.4918C43.7774 45.6636 44.546 46.0602 44.9899 46.1674C45.0434 46.1811 45.0983 46.1885 45.1534 46.1895C45.3905 46.1895 45.4739 46.0701 45.4576 45.7985C45.4069 44.9324 45.2843 43.2444 45.4208 41.6668C45.608 39.4963 46.3071 38.4209 47.1377 37.4697C47.5367 37.0125 49.4114 35.0309 52.9966 35.0309C56.5817 35.0309 58.4613 37.0044 58.8603 37.4599C59.6918 38.411 60.3917 39.4865 60.5773 41.657C60.7138 43.2346 60.5961 44.9234 60.5405 45.7887C60.5217 46.0741 60.6075 46.1796 60.8446 46.1796C60.8998 46.1788 60.9547 46.1713 61.0081 46.1576C61.4529 46.0504 62.2214 45.6538 63.0129 45.482C63.142 45.4531 63.2738 45.4383 63.4061 45.4379C63.8272 45.4379 64.2237 45.6014 64.3872 46.0267C64.6211 46.645 64.3055 47.148 63.5835 47.6517C63.1478 47.956 61.5772 48.9276 61.2232 49.2555C60.8561 49.5941 60.9043 49.8558 60.9468 50.1887C60.982 50.4675 61.7718 54.1723 66.7272 56.5678C67.0199 56.7142 67.5137 57.0118 66.643 57.4968Z" fill="black"/>
<defs>
<filter id="filter0_d_0_356" x="0" y="0" width="105" height="105" filterUnits="userSpaceOnUse" color-interpolation-filters="sRGB">
<feFlood flood-opacity="0" result="BackgroundImageFix"/>
<feColorMatrix in="SourceAlpha" type="matrix" values="0 0 0 0 0 0 0 0 0 0 0 0 0 0 0 0 0 0 127 0" result="hardAlpha"/>
<feOffset dy="4"/>
<feGaussianBlur stdDeviation="7"/>
<feComposite in2="hardAlpha" operator="out"/>
<feColorMatrix type="matrix" values="0 0 0 0 0 0 0 0 0 0 0 0 0 0 0 0 0 0 0.15 0"/>
<feBlend mode="normal" in2="BackgroundImageFix" result="effect1_dropShadow_0_356"/>
<feBlend mode="normal" in="SourceGraphic" in2="effect1_dropShadow_0_356" result="shape"/>
</filter>
</defs>
</svg>
