<svg width="105" height="105" viewBox="0 0 105 105" fill="none" xmlns="http://www.w3.org/2000/svg">
<g filter="url(#filter0_d_0_207)">
<circle cx="52.5" cy="48.5" r="38.5" fill="white"/>
<path d="M76.052 48.5529C76.052 46.9214 75.9198 45.2811 75.6376 43.6761H53V52.9181H65.9635C65.4255 55.8988 63.6971 58.5356 61.1661 60.2111V66.2078H68.9001C73.4417 62.0278 76.052 55.8547 76.052 48.5529Z" fill="#4285F4"/>
<path d="M53.0002 72.0016C59.4731 72.0016 64.9319 69.8764 68.9091 66.2078L61.1751 60.2111C59.0234 61.675 56.2455 62.5039 53.009 62.5039C46.7478 62.5039 41.4389 58.2798 39.5341 52.6006H31.5532V58.7825C35.6274 66.8868 43.9258 72.0016 53.0002 72.0016Z" fill="#34A853"/>
<path d="M39.5251 52.6005C38.5197 49.6198 38.5197 46.3922 39.5251 43.4115V37.2296H31.553C28.149 44.0112 28.149 52.0009 31.553 58.7824L39.5251 52.6005Z" fill="#FBBC04"/>
<path d="M53.0002 33.4993C56.4219 33.4464 59.7289 34.7339 62.2069 37.0973L69.059 30.2452C64.7202 26.171 58.9616 23.9311 53.0002 24.0016C43.9258 24.0016 35.6274 29.1164 31.5532 37.2296L39.5253 43.4115C41.4213 37.7235 46.739 33.4993 53.0002 33.4993Z" fill="#EA4335"/>
</g>
<defs>
<filter id="filter0_d_0_207" x="0" y="0" width="105" height="105" filterUnits="userSpaceOnUse" color-interpolation-filters="sRGB">
<feFlood flood-opacity="0" result="BackgroundImageFix"/>
<feColorMatrix in="SourceAlpha" type="matrix" values="0 0 0 0 0 0 0 0 0 0 0 0 0 0 0 0 0 0 127 0" result="hardAlpha"/>
<feOffset dy="4"/>
<feGaussianBlur stdDeviation="7"/>
<feComposite in2="hardAlpha" operator="out"/>
<feColorMatrix type="matrix" values="0 0 0 0 0 0 0 0 0 0 0 0 0 0 0 0 0 0 0.15 0"/>
<feBlend mode="normal" in2="BackgroundImageFix" result="effect1_dropShadow_0_207"/>
<feBlend mode="normal" in="SourceGraphic" in2="effect1_dropShadow_0_207" result="shape"/>
</filter>
</defs>
</svg>
