<svg width="105" height="105" viewBox="0 0 105 105" fill="none" xmlns="http://www.w3.org/2000/svg">
<g filter="url(#filter0_d_0_223)">
<circle cx="52.5" cy="48.5" r="38.5" fill="white"/>
<g clip-path="url(#clip0_0_223)">
<path d="M77 49C77 35.7452 66.2548 25 53 25C39.7452 25 29 35.7452 29 49C29 60.9789 37.7764 70.908 49.25 72.7084V55.9375H43.1562V49H49.25V43.7125C49.25 37.6975 52.8331 34.375 58.3152 34.375C60.9402 34.375 63.6875 34.8438 63.6875 34.8438V40.75H60.6613C57.68 40.75 56.75 42.6002 56.75 44.5V49H63.4062L62.3422 55.9375H56.75V72.7084C68.2236 70.908 77 60.9789 77 49Z" fill="#1877F2"/>
<path d="M62.3422 55.9375L63.4062 49H56.75V44.5C56.75 42.602 57.68 40.75 60.6613 40.75H63.6875V34.8438C63.6875 34.8438 60.9411 34.375 58.3152 34.375C52.8331 34.375 49.25 37.6975 49.25 43.7125V49H43.1562V55.9375H49.25V72.7084C51.7349 73.0972 54.2651 73.0972 56.75 72.7084V55.9375H62.3422Z" fill="white"/>
</g>
</g>
<defs>
<filter id="filter0_d_0_223" x="0" y="0" width="105" height="105" filterUnits="userSpaceOnUse" color-interpolation-filters="sRGB">
<feFlood flood-opacity="0" result="BackgroundImageFix"/>
<feColorMatrix in="SourceAlpha" type="matrix" values="0 0 0 0 0 0 0 0 0 0 0 0 0 0 0 0 0 0 127 0" result="hardAlpha"/>
<feOffset dy="4"/>
<feGaussianBlur stdDeviation="7"/>
<feComposite in2="hardAlpha" operator="out"/>
<feColorMatrix type="matrix" values="0 0 0 0 0 0 0 0 0 0 0 0 0 0 0 0 0 0 0.15 0"/>
<feBlend mode="normal" in2="BackgroundImageFix" result="effect1_dropShadow_0_223"/>
<feBlend mode="normal" in="SourceGraphic" in2="effect1_dropShadow_0_223" result="shape"/>
</filter>
<clipPath id="clip0_0_223">
<rect width="48" height="48" fill="white" transform="translate(29 25)"/>
</clipPath>
</defs>
</svg>
