<svg width="105" height="105" viewBox="0 0 105 105" fill="none" xmlns="http://www.w3.org/2000/svg">
<g filter="url(#filter0_d_0_202)">
<circle cx="52.5" cy="48.5" r="38.5" fill="white"/>
<path d="M74.9964 36.28C74.725 35.2588 74.1902 34.3268 73.4454 33.5773C72.7007 32.8278 71.7721 32.287 70.7527 32.0091C67 31 52 31 52 31C52 31 37 31 33.2473 32.0091C32.2279 32.287 31.2993 32.8278 30.5546 33.5773C29.8098 34.3268 29.275 35.2588 29.0036 36.28C28 40.0491 28 47.9091 28 47.9091C28 47.9091 28 55.7691 29.0036 59.5382C29.275 60.5594 29.8098 61.4913 30.5546 62.2409C31.2993 62.9904 32.2279 63.5312 33.2473 63.8091C37 64.8182 52 64.8182 52 64.8182C52 64.8182 67 64.8182 70.7527 63.8091C71.7721 63.5312 72.7007 62.9904 73.4454 62.2409C74.1902 61.4913 74.725 60.5594 74.9964 59.5382C76 55.7691 76 47.9091 76 47.9091C76 47.9091 76 40.0491 74.9964 36.28Z" fill="#FF0302"/>
<path d="M47.0908 55.0464V40.7719L59.6363 47.9091L47.0908 55.0464Z" fill="#FEFEFE"/>
</g>
<defs>
<filter id="filter0_d_0_202" x="0" y="0" width="105" height="105" filterUnits="userSpaceOnUse" color-interpolation-filters="sRGB">
<feFlood flood-opacity="0" result="BackgroundImageFix"/>
<feColorMatrix in="SourceAlpha" type="matrix" values="0 0 0 0 0 0 0 0 0 0 0 0 0 0 0 0 0 0 127 0" result="hardAlpha"/>
<feOffset dy="4"/>
<feGaussianBlur stdDeviation="7"/>
<feComposite in2="hardAlpha" operator="out"/>
<feColorMatrix type="matrix" values="0 0 0 0 0 0 0 0 0 0 0 0 0 0 0 0 0 0 0.15 0"/>
<feBlend mode="normal" in2="BackgroundImageFix" result="effect1_dropShadow_0_202"/>
<feBlend mode="normal" in="SourceGraphic" in2="effect1_dropShadow_0_202" result="shape"/>
</filter>
</defs>
</svg>
