<svg width="74" height="74" viewBox="0 0 74 74" fill="none" xmlns="http://www.w3.org/2000/svg">
<g filter="url(#filter0_d_23_4646)">
<circle cx="37" cy="35" r="23" fill="#EE4D52"/>
</g>
<g clip-path="url(#clip0_23_4646)">
<path d="M37 25.9809C39.9391 25.9809 40.2871 25.9937 41.443 26.0453C42.5172 26.0926 43.0973 26.273 43.484 26.4234C43.9953 26.6211 44.3648 26.8617 44.7473 27.2441C45.134 27.6309 45.3703 27.9961 45.568 28.5074C45.7184 28.8941 45.8988 29.4785 45.9461 30.5484C45.9977 31.7086 46.0105 32.0566 46.0105 34.9914C46.0105 37.9305 45.9977 38.2785 45.9461 39.4344C45.8988 40.5086 45.7184 41.0887 45.568 41.4754C45.3703 41.9867 45.1297 42.3563 44.7473 42.7387C44.3605 43.1254 43.9953 43.3617 43.484 43.5594C43.0973 43.7098 42.5129 43.8902 41.443 43.9375C40.2828 43.9891 39.9348 44.002 37 44.002C34.0609 44.002 33.7129 43.9891 32.557 43.9375C31.4828 43.8902 30.9027 43.7098 30.516 43.5594C30.0047 43.3617 29.6352 43.1211 29.2527 42.7387C28.866 42.352 28.6297 41.9867 28.432 41.4754C28.2816 41.0887 28.1012 40.5043 28.0539 39.4344C28.0023 38.2742 27.9895 37.9262 27.9895 34.9914C27.9895 32.0523 28.0023 31.7043 28.0539 30.5484C28.1012 29.4742 28.2816 28.8941 28.432 28.5074C28.6297 27.9961 28.8703 27.6266 29.2527 27.2441C29.6395 26.8574 30.0047 26.6211 30.516 26.4234C30.9027 26.273 31.4871 26.0926 32.557 26.0453C33.7129 25.9937 34.0609 25.9809 37 25.9809ZM37 24C34.0137 24 33.6398 24.0129 32.4668 24.0645C31.298 24.116 30.4945 24.3051 29.7984 24.5758C29.0723 24.8594 28.4578 25.2332 27.8477 25.8477C27.2332 26.4578 26.8594 27.0723 26.5758 27.7941C26.3051 28.4945 26.116 29.2937 26.0645 30.4625C26.0129 31.6398 26 32.0137 26 35C26 37.9863 26.0129 38.3602 26.0645 39.5332C26.116 40.702 26.3051 41.5055 26.5758 42.2016C26.8594 42.9277 27.2332 43.5422 27.8477 44.1523C28.4578 44.7625 29.0723 45.1406 29.7941 45.4199C30.4945 45.6906 31.2937 45.8797 32.4625 45.9312C33.6355 45.9828 34.0094 45.9957 36.9957 45.9957C39.982 45.9957 40.3559 45.9828 41.5289 45.9312C42.6977 45.8797 43.5012 45.6906 44.1973 45.4199C44.9191 45.1406 45.5336 44.7625 46.1437 44.1523C46.7539 43.5422 47.132 42.9277 47.4113 42.2059C47.682 41.5055 47.8711 40.7063 47.9227 39.5375C47.9742 38.3645 47.9871 37.9906 47.9871 35.0043C47.9871 32.018 47.9742 31.6441 47.9227 30.4711C47.8711 29.3023 47.682 28.4988 47.4113 27.8027C47.1406 27.0723 46.7668 26.4578 46.1523 25.8477C45.5422 25.2375 44.9277 24.8594 44.2059 24.5801C43.5055 24.3094 42.7062 24.1203 41.5375 24.0688C40.3602 24.0129 39.9863 24 37 24Z" fill="white"/>
<path d="M37 29.3496C33.8805 29.3496 31.3496 31.8805 31.3496 35C31.3496 38.1195 33.8805 40.6504 37 40.6504C40.1195 40.6504 42.6504 38.1195 42.6504 35C42.6504 31.8805 40.1195 29.3496 37 29.3496ZM37 38.6652C34.9762 38.6652 33.3348 37.0238 33.3348 35C33.3348 32.9762 34.9762 31.3348 37 31.3348C39.0238 31.3348 40.6652 32.9762 40.6652 35C40.6652 37.0238 39.0238 38.6652 37 38.6652Z" fill="white"/>
<path d="M44.193 29.1262C44.193 29.8567 43.6 30.4453 42.8738 30.4453C42.1434 30.4453 41.5547 29.8524 41.5547 29.1262C41.5547 28.3957 42.1477 27.807 42.8738 27.807C43.6 27.807 44.193 28.4 44.193 29.1262Z" fill="white"/>
</g>
<defs>
<filter id="filter0_d_23_4646" x="0" y="0" width="74" height="74" filterUnits="userSpaceOnUse" color-interpolation-filters="sRGB">
<feFlood flood-opacity="0" result="BackgroundImageFix"/>
<feColorMatrix in="SourceAlpha" type="matrix" values="0 0 0 0 0 0 0 0 0 0 0 0 0 0 0 0 0 0 127 0" result="hardAlpha"/>
<feOffset dy="2"/>
<feGaussianBlur stdDeviation="7"/>
<feComposite in2="hardAlpha" operator="out"/>
<feColorMatrix type="matrix" values="0 0 0 0 0 0 0 0 0 0 0 0 0 0 0 0 0 0 0.15 0"/>
<feBlend mode="normal" in2="BackgroundImageFix" result="effect1_dropShadow_23_4646"/>
<feBlend mode="normal" in="SourceGraphic" in2="effect1_dropShadow_23_4646" result="shape"/>
</filter>
<clipPath id="clip0_23_4646">
<rect width="22" height="22" fill="white" transform="translate(26 24)"/>
</clipPath>
</defs>
</svg>
