<svg width="105" height="105" viewBox="0 0 105 105" fill="none" xmlns="http://www.w3.org/2000/svg">
<g filter="url(#filter0_d_222_9245)">
<circle cx="52.5" cy="48.5" r="38.5" fill="white"/>
<g clip-path="url(#clip0_222_9245)">
<path d="M70.8996 28H35.1004C34.2781 28 33.4895 28.3267 32.9081 28.9081C32.3267 29.4895 32 30.2781 32 31.1004V66.8996C32 67.7219 32.3267 68.5105 32.9081 69.0919C33.4895 69.6734 34.2781 70 35.1004 70H70.8996C71.7219 70 72.5105 69.6734 73.0919 69.0919C73.6734 68.5105 74 67.7219 74 66.8996V31.1004C74 30.2781 73.6734 29.4895 73.0919 28.9081C72.5105 28.3267 71.7219 28 70.8996 28ZM44.5183 63.7787H38.2038V43.7208H44.5183V63.7787ZM41.3567 40.9413C40.6404 40.9372 39.9414 40.7211 39.3478 40.3202C38.7542 39.9192 38.2927 39.3514 38.0215 38.6885C37.7504 38.0255 37.6816 37.297 37.8241 36.595C37.9665 35.8931 38.3137 35.249 38.8218 34.7441C39.3299 34.2393 39.9762 33.8962 40.6791 33.7583C41.382 33.6204 42.1099 33.6938 42.7712 33.9692C43.4324 34.2447 43.9972 34.7098 44.3943 35.3059C44.7914 35.9021 45.0031 36.6025 45.0025 37.3188C45.0093 37.7983 44.9194 38.2743 44.7383 38.7184C44.5571 39.1625 44.2885 39.5656 43.9482 39.9036C43.608 40.2417 43.2032 40.5077 42.758 40.686C42.3127 40.8643 41.8362 40.9511 41.3567 40.9413ZM67.7933 63.7962H61.4817V52.8383C61.4817 49.6067 60.1079 48.6092 58.3346 48.6092C56.4621 48.6092 54.6246 50.0208 54.6246 52.92V63.7962H48.31V43.7354H54.3825V46.515H54.4642C55.0738 45.2813 57.2088 43.1725 60.4667 43.1725C63.99 43.1725 67.7962 45.2638 67.7962 51.3888L67.7933 63.7962Z" fill="#0A66C2"/>
</g>
</g>
<defs>
<filter id="filter0_d_222_9245" x="0" y="0" width="105" height="105" filterUnits="userSpaceOnUse" color-interpolation-filters="sRGB">
<feFlood flood-opacity="0" result="BackgroundImageFix"/>
<feColorMatrix in="SourceAlpha" type="matrix" values="0 0 0 0 0 0 0 0 0 0 0 0 0 0 0 0 0 0 127 0" result="hardAlpha"/>
<feOffset dy="4"/>
<feGaussianBlur stdDeviation="7"/>
<feComposite in2="hardAlpha" operator="out"/>
<feColorMatrix type="matrix" values="0 0 0 0 0 0 0 0 0 0 0 0 0 0 0 0 0 0 0.15 0"/>
<feBlend mode="normal" in2="BackgroundImageFix" result="effect1_dropShadow_222_9245"/>
<feBlend mode="normal" in="SourceGraphic" in2="effect1_dropShadow_222_9245" result="shape"/>
</filter>
<clipPath id="clip0_222_9245">
<rect width="42" height="42" fill="white" transform="translate(32 28)"/>
</clipPath>
</defs>
</svg>
