<svg width="52" height="52" viewBox="0 0 52 52" fill="none" xmlns="http://www.w3.org/2000/svg">
<circle cx="26" cy="26" r="26" fill="white"/>
<path d="M41.9053 26.0357C41.9053 24.934 41.8159 23.8263 41.6254 22.7424H26.3376V28.9837H35.0922C34.7289 30.9966 33.5616 32.7773 31.8524 33.9089V37.9586H37.0754C40.1424 35.1357 41.9053 30.9669 41.9053 26.0357Z" fill="#4285F4"/>
<path d="M26.3374 41.8712C30.7088 41.8712 34.3952 40.4359 37.0811 37.9584L31.8582 33.9087C30.405 34.8973 28.5291 35.4571 26.3434 35.4571C22.115 35.4571 18.5298 32.6045 17.2435 28.7692H11.8538V32.9439C14.6052 38.417 20.2093 41.8712 26.3374 41.8712Z" fill="#34A853"/>
<path d="M17.2377 28.769C16.5588 26.7561 16.5588 24.5764 17.2377 22.5635V18.3887H11.854C9.55518 22.9684 9.55518 28.3641 11.854 32.9438L17.2377 28.769Z" fill="#FBBC04"/>
<path d="M26.3374 15.8696C28.6482 15.8339 30.8815 16.7034 32.5549 18.2994L37.1823 13.672C34.2523 10.9206 30.3633 9.40792 26.3374 9.45556C20.2093 9.45556 14.6052 12.9097 11.8538 18.3888L17.2375 22.5635C18.5179 18.7223 22.1091 15.8696 26.3374 15.8696Z" fill="#EA4335"/>
</svg>
