<svg width="52" height="52" viewBox="0 0 52 52" fill="none" xmlns="http://www.w3.org/2000/svg">
<circle cx="26" cy="26" r="26" fill="#FFF500"/>
<path d="M39.7296 33.573C34.7742 31.1734 33.9844 27.4686 33.9492 27.1938C33.9067 26.861 33.8585 26.5993 34.2256 26.2607C34.5796 25.9336 36.1502 24.9612 36.586 24.6569C37.3063 24.1531 37.6235 23.6502 37.3897 23.0319C37.2261 22.6042 36.828 22.4431 36.4086 22.4431C36.2762 22.4435 36.1444 22.4583 36.0153 22.4872C35.2239 22.659 34.4553 23.0556 34.0106 23.1627C33.9571 23.1765 33.9022 23.1839 33.847 23.1848C33.6099 23.1848 33.52 23.0793 33.5429 22.7939C33.5985 21.9286 33.7162 20.2398 33.5797 18.6622C33.3925 16.4917 32.6926 15.4162 31.8628 14.4651C31.4613 14.0038 29.5972 12.0222 25.9998 12.0222C22.4024 12.0222 20.5408 14.0038 20.1418 14.4594C19.3095 15.4105 18.6105 16.486 18.4249 18.6565C18.2883 20.2341 18.411 21.9221 18.4616 22.7882C18.478 23.0597 18.3946 23.1791 18.1575 23.1791C18.1023 23.1782 18.0474 23.1707 17.994 23.157C17.55 23.0499 16.7815 22.6532 15.9901 22.4815C15.861 22.4525 15.7291 22.4377 15.5968 22.4373C15.1758 22.4373 14.7792 22.6009 14.6157 23.0262C14.3819 23.6445 14.6975 24.1474 15.4202 24.6512C15.856 24.9554 17.4266 25.927 17.7806 26.255C18.1469 26.5936 18.0995 26.8553 18.0569 27.1881C18.0218 27.467 17.2312 31.1718 12.2766 33.5672C11.9863 33.7079 11.4925 34.0056 12.3633 34.4865C13.7303 35.2421 14.6402 35.1612 15.3475 35.6167C15.9476 36.0036 15.5927 36.8377 16.0293 37.1387C16.5657 37.5092 18.151 37.1125 20.199 37.7889C21.916 38.3548 22.9592 39.9537 26.0039 39.9537C29.0486 39.9537 30.1221 38.3475 31.8088 37.7889C33.8528 37.1125 35.4413 37.5092 35.9785 37.1387C36.4143 36.8377 36.0603 36.0036 36.6604 35.6167C37.3676 35.1612 38.2767 35.2421 39.6446 34.4865C40.5137 34.0113 40.0198 33.7136 39.7296 33.573Z" fill="white"/>
<path d="M41.8856 33.2914C41.6632 32.6862 41.2397 32.3623 40.7573 32.0941C40.6666 32.0409 40.5832 31.9984 40.5121 31.9657C40.3682 31.8913 40.221 31.8193 40.0746 31.7432C38.5711 30.9459 37.397 29.9399 36.5827 28.7475C36.3515 28.4118 36.1509 28.056 35.9834 27.6843C35.9139 27.4856 35.9172 27.3727 35.9671 27.2697C36.0165 27.1903 36.082 27.1221 36.1592 27.0693C36.4176 26.8984 36.6841 26.725 36.8648 26.6081C37.1869 26.3995 37.442 26.2343 37.6063 26.1174C38.2236 25.6855 38.6553 25.2267 38.9251 24.714C39.1134 24.3597 39.2231 23.969 39.247 23.5685C39.2708 23.168 39.2082 22.7671 39.0633 22.3929C38.6545 21.3167 37.6382 20.6485 36.4069 20.6485C36.1472 20.6483 35.8882 20.6757 35.6343 20.7303C35.5665 20.745 35.4986 20.7606 35.4324 20.7777C35.4438 20.0417 35.4275 19.2647 35.3621 18.5001C35.1299 15.8118 34.1888 14.4027 33.2077 13.279C32.5794 12.5748 31.8394 11.9791 31.0174 11.5158C29.5286 10.6652 27.8402 10.2334 25.9998 10.2334C24.1594 10.2334 22.4793 10.6652 20.9888 11.5158C20.1648 11.9793 19.4233 12.5762 18.7944 13.2823C17.8133 14.406 16.8723 15.8176 16.6401 18.5033C16.5747 19.268 16.5583 20.049 16.5689 20.781C16.5027 20.7638 16.4357 20.7483 16.3678 20.7336C16.1139 20.679 15.8549 20.6515 15.5952 20.6518C14.3631 20.6518 13.3452 21.32 12.938 22.3962C12.7925 22.7705 12.7292 23.1717 12.7525 23.5726C12.7758 23.9736 12.8851 24.3648 13.0729 24.7197C13.3436 25.2325 13.7752 25.6913 14.3925 26.1231C14.556 26.2376 14.8119 26.4028 15.1341 26.6138C15.3082 26.7266 15.5625 26.8918 15.8119 27.0571C15.8991 27.1135 15.9733 27.1879 16.0293 27.2754C16.0817 27.3826 16.0833 27.4979 16.0056 27.7105C15.8404 28.0744 15.6432 28.4228 15.4161 28.7516C14.6198 29.917 13.4801 30.905 12.0248 31.6958C11.2538 32.1047 10.4526 32.3779 10.1141 33.2979C9.85899 33.9923 10.0258 34.7823 10.6741 35.448C10.9121 35.6965 11.1881 35.9055 11.4917 36.0671C12.1235 36.4145 12.7954 36.6833 13.4924 36.8678C13.6362 36.9049 13.7727 36.966 13.8962 37.0485C14.1325 37.2554 14.099 37.567 14.4138 38.0234C14.5718 38.2592 14.7726 38.4634 15.0057 38.6253C15.6663 39.0817 16.4087 39.1103 17.1952 39.1405C17.9057 39.1675 18.711 39.1986 19.6308 39.502C20.0118 39.628 20.4075 39.8717 20.8662 40.1563C21.9675 40.8335 23.4751 41.7601 25.9982 41.7601C28.5213 41.7601 30.0395 40.8286 31.149 40.1489C31.6044 39.8692 31.9977 39.628 32.368 39.5053C33.2878 39.2011 34.0932 39.1708 34.8036 39.1438C35.5902 39.1136 36.3325 39.0849 36.9931 38.6286C37.2693 38.436 37.4993 38.1846 37.6668 37.8925C37.8933 37.5073 37.8876 37.2383 38.1002 37.0502C38.216 36.9716 38.3443 36.913 38.4795 36.8768C39.186 36.6918 39.867 36.4204 40.5071 36.0688C40.8298 35.8956 41.1202 35.6682 41.3656 35.3965L41.3738 35.3867C41.9821 34.7357 42.135 33.9686 41.8856 33.2914ZM39.643 34.4969C38.2751 35.2526 37.366 35.1716 36.6588 35.6271C36.0578 36.014 36.4135 36.8482 35.9769 37.1491C35.4405 37.5196 33.8552 37.1229 31.8072 37.7993C30.118 38.3579 29.0405 39.9641 26.0023 39.9641C22.9641 39.9641 21.9119 38.3611 20.195 37.7952C18.151 37.1189 16.5624 37.5155 16.0253 37.145C15.5895 36.8441 15.9435 36.0099 15.3434 35.623C14.6353 35.1675 13.7262 35.2485 12.3592 34.4969C11.4884 34.016 11.9823 33.7183 12.2725 33.5776C17.2271 31.1781 18.0177 27.4733 18.0529 27.1985C18.0954 26.8657 18.1428 26.604 17.7765 26.2654C17.4225 25.9383 15.8519 24.9659 15.4161 24.6616C14.695 24.1578 14.3778 23.6549 14.6116 23.0366C14.7752 22.6089 15.1741 22.4477 15.5927 22.4477C15.725 22.4481 15.8569 22.463 15.986 22.4919C16.7774 22.6637 17.546 23.0603 17.9899 23.1674C18.0434 23.1812 18.0983 23.1886 18.1534 23.1895C18.3905 23.1895 18.4739 23.0701 18.4576 22.7986C18.4069 21.9325 18.2843 20.2445 18.4208 18.6669C18.608 16.4964 19.3071 15.4209 20.1377 14.4698C20.5367 14.0126 22.4114 12.031 25.9966 12.031C29.5817 12.031 31.4613 14.0044 31.8603 14.46C32.6918 15.4111 33.3917 16.4866 33.5773 18.6571C33.7138 20.2347 33.5961 21.9235 33.5405 22.7888C33.5217 23.0742 33.6075 23.1797 33.8446 23.1797C33.8998 23.1788 33.9547 23.1714 34.0081 23.1576C34.4529 23.0505 35.2214 22.6538 36.0129 22.4821C36.142 22.4531 36.2738 22.4383 36.4061 22.4379C36.8272 22.4379 37.2237 22.6015 37.3872 23.0268C37.6211 23.6451 37.3055 24.148 36.5835 24.6518C36.1478 24.956 34.5772 25.9276 34.2232 26.2556C33.8561 26.5942 33.9043 26.8559 33.9468 27.1887C33.982 27.4676 34.7718 31.1724 39.7272 33.5678C40.0199 33.7142 40.5137 34.0119 39.643 34.4969Z" fill="black"/>
</svg>
