<svg width="52" height="52" viewBox="0 0 52 52" fill="none" xmlns="http://www.w3.org/2000/svg">
<g clip-path="url(#clip0_0_347)">
<path d="M26 52C40.3594 52 52 40.3594 52 26C52 11.6406 40.3594 0 26 0C11.6406 0 0 11.6406 0 26C0 40.3594 11.6406 52 26 52Z" fill="#FF4500"/>
<path d="M43.3333 26C43.3333 23.9017 41.6303 22.1988 39.5321 22.1988C38.4982 22.1988 37.5859 22.5941 36.9169 23.2631C34.3321 21.4081 30.7438 20.1918 26.7906 20.0397L28.5239 11.9204L34.1496 13.1064C34.2105 14.5356 35.3964 15.6912 36.8561 15.6912C38.3461 15.6912 39.5625 14.4748 39.5625 12.9848C39.5625 11.4947 38.3461 10.2783 36.8561 10.2783C35.7917 10.2783 34.8795 10.8865 34.4537 11.7988L28.159 10.4608C27.9765 10.4304 27.7941 10.4608 27.642 10.552C27.49 10.6432 27.3988 10.7953 27.3379 10.9777L25.4222 20.0397C21.3777 20.1614 17.759 21.3473 15.1438 23.2631C14.4748 22.6245 13.5321 22.1988 12.5286 22.1988C10.4303 22.1988 8.72742 23.9017 8.72742 26C8.72742 27.5508 9.6397 28.8584 10.9777 29.4666C10.9169 29.8315 10.8865 30.2269 10.8865 30.6222C10.8865 36.4608 17.6678 41.1742 26.0608 41.1742C34.4537 41.1742 41.235 36.4608 41.235 30.6222C41.235 30.2269 41.2046 29.8619 41.1438 29.497C42.3906 28.8888 43.3333 27.5508 43.3333 26ZM17.3333 28.7064C17.3333 27.2163 18.5496 26 20.0397 26C21.5298 26 22.7461 27.2163 22.7461 28.7064C22.7461 30.1965 21.5298 31.4128 20.0397 31.4128C18.5496 31.4128 17.3333 30.1965 17.3333 28.7064ZM32.4467 35.8526C30.5917 37.7076 27.0643 37.8292 26.0303 37.8292C24.9964 37.8292 21.4385 37.6772 19.614 35.8526C19.3403 35.5789 19.3403 35.1228 19.614 34.8491C19.8876 34.5754 20.3438 34.5754 20.6175 34.8491C21.773 36.0046 24.2666 36.4304 26.0608 36.4304C27.8549 36.4304 30.3181 36.0046 31.504 34.8491C31.7777 34.5754 32.2339 34.5754 32.5075 34.8491C32.7204 35.1532 32.7204 35.5789 32.4467 35.8526ZM31.9602 31.4128C30.4701 31.4128 29.2537 30.1965 29.2537 28.7064C29.2537 27.2163 30.4701 26 31.9602 26C33.4502 26 34.6666 27.2163 34.6666 28.7064C34.6666 30.1965 33.4502 31.4128 31.9602 31.4128Z" fill="white"/>
</g>
<defs>
<clipPath id="clip0_0_347">
<rect width="52" height="52" fill="white"/>
</clipPath>
</defs>
</svg>
