<svg width="52" height="52" viewBox="0 0 52 52" fill="none" xmlns="http://www.w3.org/2000/svg">
<circle cx="26" cy="26" r="26" fill="#0A66C2"/>
<circle cx="26" cy="25" r="19" fill="white"/>
<g clip-path="url(#clip0_0_415)">
<path d="M42.1949 6H9.80514C9.06117 6 8.34767 6.29554 7.82161 6.82161C7.29554 7.34767 7 8.06117 7 8.80514V41.1949C7 41.9388 7.29554 42.6523 7.82161 43.1784C8.34767 43.7045 9.06117 44 9.80514 44H42.1949C42.9388 44 43.6523 43.7045 44.1784 43.1784C44.7045 42.6523 45 41.9388 45 41.1949V8.80514C45 8.06117 44.7045 7.34767 44.1784 6.82161C43.6523 6.29554 42.9388 6 42.1949 6ZM18.3261 38.3713H12.6129V20.2236H18.3261V38.3713ZM15.4656 17.7088C14.8175 17.7051 14.185 17.5096 13.648 17.1468C13.111 16.7841 12.6934 16.2703 12.4481 15.6705C12.2027 15.0707 12.1405 14.4116 12.2694 13.7765C12.3982 13.1413 12.7124 12.5586 13.1721 12.1018C13.6318 11.645 14.2165 11.3347 14.8525 11.2099C15.4884 11.0851 16.1471 11.1515 16.7453 11.4007C17.3436 11.6499 17.8546 12.0708 18.2139 12.6101C18.5732 13.1495 18.7647 13.7832 18.7642 14.4313C18.7703 14.8651 18.689 15.2958 18.5251 15.6976C18.3612 16.0994 18.1181 16.4641 17.8103 16.7699C17.5025 17.0758 17.1363 17.3165 16.7334 17.4778C16.3306 17.6391 15.8994 17.7176 15.4656 17.7088ZM39.3844 38.3871H33.6739V28.4728C33.6739 25.5489 32.431 24.6464 30.8265 24.6464C29.1324 24.6464 27.4699 25.9236 27.4699 28.5467V38.3871H21.7567V20.2368H27.2508V22.7517H27.3247C27.8763 21.6354 29.8079 19.7275 32.7556 19.7275C35.9433 19.7275 39.3871 21.6196 39.3871 27.1613L39.3844 38.3871Z" fill="#0A66C2"/>
</g>
<defs>
<clipPath id="clip0_0_415">
<rect x="7" y="6" width="38" height="38" rx="19" fill="white"/>
</clipPath>
</defs>
</svg>
