<svg width="29" height="29" viewBox="0 0 29 29" fill="none" xmlns="http://www.w3.org/2000/svg">
<g clip-path="url(#clip0_250_4479)">
<path d="M28.7653 14.3797C28.7653 6.4337 22.3238 -0.0078125 14.3778 -0.0078125C6.43175 -0.0078125 -0.00976562 6.4337 -0.00976562 14.3797C-0.00976562 21.5608 5.25152 27.5131 12.1297 28.5925V18.5386H8.47663V14.3797H12.1297V11.21C12.1297 7.60409 14.2777 5.61232 17.5641 5.61232C19.1377 5.61232 20.7847 5.89332 20.7847 5.89332V9.43401H18.9705C17.1833 9.43401 16.6258 10.5431 16.6258 11.6821V14.3797H20.6161L19.9782 18.5386H16.6258V28.5925C23.504 27.5131 28.7653 21.5608 28.7653 14.3797Z" fill="#1877F2"/>
<path d="M19.9782 18.5386L20.616 14.3797H16.6257V11.682C16.6257 10.5442 17.1833 9.43399 18.9705 9.43399H20.7846V5.89331C20.7846 5.89331 19.1382 5.6123 17.564 5.6123C14.2777 5.6123 12.1296 7.60408 12.1296 11.21V14.3797H8.47656V18.5386H12.1296V28.5925C13.6193 28.8255 15.1361 28.8255 16.6257 28.5925V18.5386H19.9782Z" fill="white"/>
</g>
<defs>
<clipPath id="clip0_250_4479">
<rect width="28.7751" height="28.7751" fill="white" transform="translate(-0.00976562 -0.0078125)"/>
</clipPath>
</defs>
</svg>
