<svg width="393" height="112" viewBox="0 0 393 112" fill="none" xmlns="http://www.w3.org/2000/svg">
<path d="M116.78 83.88L126.18 77.17C129.56 83.09 135.85 86.47 143.18 86.47C151.68 86.47 158.12 82.38 158.12 76.6C158.12 69.6 148.12 65.37 139.32 61.6C130.52 57.83 120.58 53.05 120.58 41.16C120.58 28.76 131.34 20.11 144.96 20.11C155.77 20.11 163.85 25.33 166.96 33.64L158.13 39.75C156.951 37.3031 155.093 35.2474 152.777 33.8287C150.461 32.41 147.785 31.6884 145.07 31.75C138.07 31.75 132.57 36.08 132.57 41.43C132.57 47.35 139.57 49.43 148.78 53.43C160.78 58.69 170.06 64.43 170.06 76.43C170.06 89.86 158.41 98.51 143.06 98.51C130.55 98.45 121.1 92.63 116.78 83.88Z" fill="black"/>
<path d="M232.82 40.8V97.18H222.2L221.59 89.29C217.22 95.49 210.59 98.97 202.28 98.97C185.51 98.97 174.85 84.59 174.85 69.04C174.85 52.22 186.59 39.04 202.33 39.04C206.089 38.9405 209.813 39.7711 213.173 41.4582C216.534 43.1452 219.425 45.6363 221.59 48.71L222.2 40.82L232.82 40.8ZM221.5 68.94C221.5 57.86 213.65 50.34 204.07 50.34C194.16 50.34 186.17 58.34 186.17 68.9C186.17 79.09 193.64 87.6 204.12 87.6C214.22 87.63 221.5 79.63 221.5 68.94Z" fill="black"/>
<path d="M294 66.69V97.18H282.67V66.69C282.67 54.69 277.84 50.34 269.67 50.34C261.35 50.34 256.04 55.74 256.04 66.69V97.18H244.76V40.8H255.38L255.89 47.38C259.98 42.26 266 39.38 273.32 39.38C284.46 39.39 294 45.31 294 66.69Z" fill="black"/>
<path d="M307.18 79V51.84H299.66V41.55H301.54C305.67 41.55 307.93 39.11 307.93 34.69V29.86H318.5V40.8H331.94V51.8H318.46V78.96C318.46 84.13 320.53 87.23 325.18 87.23C327.513 87.0829 329.819 86.6393 332.04 85.91V96.44C328.624 97.4786 325.08 98.0307 321.51 98.08C312.25 98.12 307.18 91.4 307.18 79Z" fill="black"/>
<path d="M392.94 40.8V97.18H382.32L381.71 89.29C377.34 95.49 370.71 98.97 362.4 98.97C345.63 98.97 334.97 84.59 334.97 69.04C334.97 52.22 346.71 39.04 362.45 39.04C366.209 38.9405 369.933 39.7711 373.293 41.4582C376.653 43.1452 379.545 45.6363 381.71 48.71L382.32 40.82L392.94 40.8ZM381.62 68.94C381.62 57.86 373.77 50.34 364.19 50.34C354.28 50.34 346.29 58.34 346.29 68.9C346.29 79.09 353.76 87.6 364.29 87.6C374.31 87.63 381.59 79.63 381.59 68.94H381.62Z" fill="black"/>
<path d="M50.56 111.73C24.17 111.73 2.71002 91.22 2.71002 66.01C2.57328 60.6923 3.79146 55.4272 6.24999 50.71C4.29063 49.8849 2.63697 48.47 1.51892 46.6617C0.400863 44.8535 -0.126007 42.7418 0.0114696 40.6202C0.148946 38.4987 0.943932 36.4727 2.28601 34.8239C3.62808 33.175 5.45053 31.9853 7.49999 31.42C13.12 13.05 30.73 0 50.5 0H51.1C59.3722 0.0610637 67.34 3.12801 73.5182 8.62915C79.6964 14.1303 83.6634 21.6903 84.68 29.9C86.6348 32.5268 87.6872 35.7156 87.68 38.99V42.55C94.79 47.83 98.39 55.7 98.39 65.99C98.4 91.22 76.94 111.73 50.56 111.73ZM29.2 15.33L25.72 26.56C25.1886 28.3176 24.8532 30.1286 24.72 31.96L24.6 33.41L23.6 34.49C22.4741 35.7254 21.8531 37.3385 21.86 39.01V47.23L19.86 48.48C13.97 52.17 11.23 57.74 11.23 66.01C11.23 86.52 28.87 103.21 50.56 103.21C72.25 103.21 89.94 86.52 89.94 66.01C89.94 57.71 87.17 52.13 81.24 48.44L79.24 47.19V39.01C79.2505 37.3397 78.6331 35.7264 77.51 34.49L76.51 33.41L76.39 31.96C75.8494 25.5783 72.9355 19.6313 68.2236 15.2934C63.5118 10.9555 57.3446 8.54218 50.94 8.53H50.53C42.8873 8.5324 35.4339 10.9085 29.2 15.33ZM10.2 39.57C9.75576 39.5594 9.32412 39.7182 8.99267 40.0142C8.66122 40.3102 8.45475 40.7212 8.41522 41.1638C8.37569 41.6064 8.50603 42.0475 8.77978 42.3976C9.05353 42.7476 9.45024 42.9804 9.88934 43.0487C10.3284 43.117 10.7771 43.0157 11.1442 42.7654C11.5114 42.515 11.7695 42.1344 11.8663 41.7007C11.9631 41.2669 11.8912 40.8127 11.6653 40.43C11.4395 40.0473 11.0765 39.7649 10.65 39.64L10.38 39.59L10.2 39.57Z" fill="#1A1A18"/>
<path d="M50.52 63.7C67.1824 63.7 80.69 50.3939 80.69 33.98C80.69 17.5661 67.1824 4.26001 50.52 4.26001C33.8576 4.26001 20.35 17.5661 20.35 33.98C20.35 50.3939 33.8576 63.7 50.52 63.7Z" fill="#F65B5A"/>
<path d="M83.43 39.01C83.4436 37.0036 82.899 35.033 81.8571 33.3183C80.8152 31.6036 79.3171 30.2123 77.53 29.3C70.44 25.76 60.95 24.72 50.53 24.72C40.11 24.72 30.61 25.72 23.53 29.3C21.7456 30.2146 20.2501 31.6066 19.2101 33.321C18.1702 35.0354 17.6266 37.0049 17.64 39.01V53.01C17.6387 54.4431 17.92 55.8624 18.4678 57.1866C19.0156 58.5109 19.8192 59.7141 20.8325 60.7275C21.8459 61.7408 23.0491 62.5444 24.3733 63.0922C25.6976 63.64 27.1169 63.9213 28.55 63.92H72.55C75.4435 63.92 78.2185 62.7706 80.2645 60.7245C82.3105 58.6785 83.46 55.9035 83.46 53.01L83.43 39.01Z" fill="white"/>
<path d="M94.15 66.01C94.15 88.91 74.63 107.47 50.56 107.47C26.49 107.47 6.94 88.91 6.94 66.01C6.94 43.11 26.45 38.48 50.53 38.48C74.61 38.48 94.15 43.1 94.15 66.01Z" fill="white"/>
<mask id="mask0_1_10" style="mask-type:luminance" maskUnits="userSpaceOnUse" x="6" y="38" width="89" height="70">
<path d="M94.15 66.01C94.15 88.91 74.63 107.47 50.56 107.47C26.49 107.47 6.94 88.91 6.94 66.01C6.94 43.11 26.45 38.48 50.53 38.48C74.61 38.48 94.15 43.1 94.15 66.01Z" fill="white"/>
</mask>
<g mask="url(#mask0_1_10)">
<path d="M94.15 49.95C94.15 73.27 74.63 63.95 50.56 63.95C26.49 63.95 6.97003 72.95 6.97003 49.95C6.97003 40.41 26.48 38.48 50.56 38.48C74.64 38.48 94.15 40.41 94.15 49.95Z" fill="#F65B5A"/>
<path d="M4.75001 60.06C3.03001 64.13 -5.36999 89.06 13.88 89.06C35.56 89.06 50.83 69.11 50.83 69.11L50.69 65.92C50.69 62.4 46.69 59.54 41.69 59.54C36.04 59.54 33.38 62.97 29.27 65.12C25.16 67.27 20.89 70.91 15.59 66.56C10.94 62.73 3.88003 53.84 6.40003 52.88" fill="#E3E3E3"/>
<path d="M25.6 101.23C31.0053 99.157 35.9694 96.0795 40.23 92.16C40.23 92.16 39.23 97.16 33.04 105.93L25.6 101.23Z" fill="#E3E3E3"/>
<path d="M50.52 92.97C50.21 93.88 46.66 104.47 46.17 110.88H54.86C54.37 104.47 50.82 93.88 50.52 92.97Z" fill="#E3E3E3"/>
<path d="M75.43 101.23C70.0284 99.1554 65.0679 96.078 60.81 92.16C60.81 92.16 61.81 97.16 67.99 105.93L75.43 101.23Z" fill="#E3E3E3"/>
<path d="M96.28 60.06C98.01 64.13 106.41 89.06 87.16 89.06C65.48 89.06 50.16 69.11 50.16 69.11L50.29 65.92C50.29 62.4 54.29 59.54 59.29 59.54C64.95 59.54 67.6 62.97 71.72 65.12C75.84 67.27 80.1 70.91 85.4 66.56C90.04 62.73 97.11 53.84 94.59 52.88" fill="#E3E3E3"/>
<path d="M36.2 66.13C39.47 72.51 44.66 76.66 50.52 76.66C56.38 76.66 61.52 72.51 64.84 66.13H36.2Z" fill="#1A1A18"/>
<mask id="mask1_1_10" style="mask-type:luminance" maskUnits="userSpaceOnUse" x="36" y="66" width="29" height="11">
<path d="M36.2 66.13C39.47 72.51 44.66 76.66 50.52 76.66C56.38 76.66 61.52 72.51 64.84 66.13H36.2Z" fill="white"/>
</mask>
<g mask="url(#mask1_1_10)">
<path d="M61.5 82.63C59 76.99 55.01 73.33 50.5 73.33C45.99 73.33 42.02 76.99 39.5 82.63H61.5Z" fill="#F65B5A"/>
</g>
<path d="M67.34 54.73C67.7893 54.5346 68.2542 54.3774 68.73 54.26C68.5261 53.1208 67.9444 52.0835 67.0788 51.3153C66.2132 50.5472 65.1141 50.093 63.9587 50.026C62.8034 49.959 61.6591 50.2831 60.7105 50.946C59.7619 51.6089 59.0642 52.572 58.73 53.68C58.08 55.68 59.65 56.21 60.03 55.04C60.3465 54.0567 61.0401 53.2391 61.9588 52.7666C62.8774 52.2942 63.946 52.2055 64.93 52.52C65.4696 52.6883 65.9654 52.9736 66.382 53.3557C66.7986 53.7377 67.1257 54.207 67.34 54.73Z" fill="#1A1A18"/>
<path d="M59.36 56.37C59.1702 56.3685 58.983 56.3267 58.8106 56.2474C58.6382 56.1681 58.4846 56.0531 58.36 55.91C58.1037 55.5615 57.943 55.1521 57.8939 54.7223C57.8448 54.2925 57.9089 53.8573 58.08 53.46C58.4746 52.2179 59.2719 51.1428 60.346 50.4047C61.4201 49.6665 62.7096 49.3075 64.0106 49.3844C65.3116 49.4613 66.5498 49.9696 67.5295 50.8291C68.5092 51.6886 69.1744 52.8501 69.42 54.13L69.55 54.79L68.89 54.95C68.4553 55.0572 68.0304 55.2011 67.62 55.38L66.94 55.63L66.66 54.96C66.4205 54.3418 65.9934 53.8143 65.4385 53.4516C64.8837 53.0889 64.229 52.9092 63.5668 52.9379C62.9045 52.9666 62.2678 53.2022 61.7464 53.6116C61.225 54.0209 60.845 54.5835 60.66 55.22C60.5904 55.4805 60.4528 55.7179 60.2613 55.9077C60.0697 56.0975 59.8311 56.2329 59.57 56.3C59.5021 56.3292 59.4318 56.3526 59.36 56.37ZM63.67 50.8C62.9739 50.8029 62.2885 50.9708 61.67 51.29C60.6192 51.8312 59.8248 52.7658 59.46 53.89C59.3295 54.2071 59.3049 54.5579 59.39 54.89C59.3953 54.8738 59.3953 54.8562 59.39 54.84C59.5744 54.2637 59.8708 53.7295 60.262 53.2679C60.6533 52.8063 61.1317 52.4264 61.67 52.15C62.6987 51.6224 63.889 51.5034 65.0019 51.8168C66.1147 52.1303 67.0678 52.853 67.67 53.84L67.85 53.78C67.6252 53.1333 67.2536 52.5476 66.7643 52.0687C66.275 51.5898 65.6814 51.2309 65.03 51.02C64.5903 50.8788 64.1318 50.8047 63.67 50.8Z" fill="#1A1A18"/>
<path d="M33.7 54.73C33.2507 54.5346 32.7857 54.3774 32.31 54.26C32.5139 53.1208 33.0956 52.0835 33.9612 51.3153C34.8268 50.5472 35.9259 50.093 37.0812 50.026C38.2366 49.959 39.3809 50.2831 40.3295 50.946C41.2781 51.6089 41.9758 52.572 42.31 53.68C42.96 55.68 41.38 56.21 41.01 55.04C40.6935 54.0567 39.9998 53.2391 39.0812 52.7666C38.1625 52.2942 37.094 52.2055 36.11 52.52C35.5704 52.6883 35.0746 52.9736 34.658 53.3557C34.2414 53.7377 33.9143 54.207 33.7 54.73Z" fill="#1A1A18"/>
<path d="M41.67 56.37C41.3528 56.3564 41.0483 56.2412 40.8016 56.0413C40.5549 55.8414 40.3791 55.5675 40.3 55.26C40.1728 54.862 39.9684 54.493 39.6985 54.174C39.4286 53.855 39.0984 53.5924 38.7269 53.401C38.3554 53.2097 37.9499 53.0935 37.5334 53.059C37.117 53.0245 36.6979 53.0724 36.3 53.2C35.8645 53.3395 35.4649 53.5731 35.1297 53.8841C34.7945 54.1952 34.5317 54.5761 34.36 55L34.08 55.67L33.42 55.38C33.0067 55.1995 32.5784 55.0556 32.14 54.95L31.49 54.79L31.61 54.13C31.8596 52.8519 32.5271 51.6931 33.5074 50.8359C34.4878 49.9788 35.7253 49.472 37.0253 49.3952C38.3252 49.3185 39.6138 49.6762 40.6882 50.4121C41.7626 51.1479 42.5618 52.2202 42.96 53.46C43.47 55.06 42.86 56.06 42.07 56.31C41.9405 56.3501 41.8056 56.3704 41.67 56.37ZM37.26 51.63C38.2377 51.6292 39.1904 51.9386 39.981 52.5137C40.7717 53.0887 41.3595 53.8997 41.66 54.83C41.66 54.83 41.66 54.83 41.66 54.88C41.7563 54.549 41.7315 54.1944 41.59 53.88C41.3072 52.9931 40.7526 52.2175 40.0049 51.6629C39.2572 51.1083 38.3541 50.8028 37.4232 50.7895C36.4924 50.7763 35.5809 51.056 34.8176 51.589C34.0544 52.1221 33.478 52.8815 33.17 53.76L33.35 53.82C33.9107 52.87 34.8001 52.1585 35.85 51.82C36.3072 51.6838 36.783 51.6197 37.26 51.63Z" fill="#1A1A18"/>
<path d="M92.52 55.63C94.1 59.77 95.08 78.77 77.42 78.77C72.255 78.7702 67.1516 77.649 62.4623 75.4839C57.7731 73.3188 53.6097 70.1615 50.26 66.23L50.39 61.56C50.39 57.97 54.06 55.06 58.59 55.06C63.78 55.06 66.22 58.56 69.99 60.75C73.76 62.94 77.1 65.92 82.53 62.21C86.29 59.64 80.39 46.42 78.64 42.36L87.8 45.53L92.52 55.63Z" fill="white"/>
<path d="M8.52002 55.63C6.93002 59.77 5.95999 78.77 23.62 78.77C28.7833 78.7687 33.8848 77.6468 38.5722 75.4818C43.2597 73.3168 47.4214 70.1602 50.77 66.23L50.65 61.56C50.65 57.97 46.98 55.06 42.44 55.06C37.26 55.06 34.82 58.56 31.05 60.75C27.28 62.94 23.29 66.75 18.5 62.21C14.29 58.21 18.77 49.96 22.4 42.36L13.24 45.53L8.52002 55.63Z" fill="white"/>
</g>
<mask id="mask2_1_10" style="mask-type:luminance" maskUnits="userSpaceOnUse" x="20" y="4" width="61" height="60">
<path d="M50.52 63.7C67.1824 63.7 80.69 50.3939 80.69 33.98C80.69 17.5661 67.1824 4.26001 50.52 4.26001C33.8576 4.26001 20.35 17.5661 20.35 33.98C20.35 50.3939 33.8576 63.7 50.52 63.7Z" fill="white"/>
</mask>
<g mask="url(#mask2_1_10)">
<path d="M44.18 17.2C44.18 17.2 22.89 25.2 18.18 35L18.35 23.69C18.35 23.69 27.55 15.87 44.18 17.2Z" fill="#DD3E3D"/>
</g>
<path d="M50.11 17.14C69 17.14 59.84 4.26001 50.52 4.26001C30.12 4.26001 12.88 19.26 10.25 38.72C15.29 26.25 31.23 17.14 50.11 17.14Z" fill="#F65B5A"/>
<path d="M10.23 47.25C13.5271 47.25 16.2 44.5771 16.2 41.28C16.2 37.9829 13.5271 35.31 10.23 35.31C6.93287 35.31 4.26001 37.9829 4.26001 41.28C4.26001 44.5771 6.93287 47.25 10.23 47.25Z" fill="white"/>
<path d="M44.68 47.11C41.9229 45.4648 38.6898 44.8025 35.5079 45.2311C32.3261 45.6597 29.3834 47.1539 27.16 49.47C27.16 49.47 26.11 40.47 35.42 38.19C37.3547 37.7634 39.3579 37.7523 41.2972 38.1574C43.2366 38.5625 45.0678 39.3746 46.67 40.54L44.68 47.11Z" fill="white"/>
<path d="M56.36 47.11C59.117 45.4649 62.3502 44.8025 65.532 45.2311C68.7139 45.6598 71.6566 47.154 73.88 49.47C73.88 49.47 74.88 40.47 65.61 38.19C63.6768 37.7649 61.6755 37.7545 59.738 38.1596C57.8005 38.5647 55.9709 39.376 54.37 40.54L56.36 47.11Z" fill="white"/>
</svg>
