<svg width="52" height="52" viewBox="0 0 52 52" fill="none" xmlns="http://www.w3.org/2000/svg">
<circle cx="26" cy="26" r="26" fill="white"/>
<path d="M32.5789 21.9067C34.4362 23.2391 36.7116 24.0231 39.1691 24.0231V19.2773C38.704 19.2774 38.2401 19.2287 37.7851 19.1319V22.8676C35.3278 22.8676 33.0527 22.0836 31.1949 20.7512V30.4361C31.1949 35.281 27.2813 39.2082 22.4539 39.2082C20.6527 39.2082 18.9786 38.6617 17.5879 37.7245C19.1752 39.3532 21.3887 40.3636 23.8376 40.3636C28.6653 40.3636 32.5791 36.4364 32.5791 31.5913V21.9067H32.5789ZM34.2862 17.1187C33.337 16.078 32.7137 14.733 32.5789 13.2462V12.6357H31.2673C31.5975 14.5256 32.7235 16.1401 34.2862 17.1187ZM20.6412 34.0067C20.1109 33.3089 19.8243 32.4552 19.8255 31.5774C19.8255 29.3616 21.6156 27.5649 23.824 27.5649C24.2356 27.5648 24.6447 27.6281 25.0369 27.753V22.9011C24.5786 22.838 24.1159 22.8113 23.6535 22.8211V26.5976C23.261 26.4727 22.8517 26.4092 22.44 26.4096C20.2316 26.4096 18.4416 28.2061 18.4416 30.4222C18.4416 31.9892 19.3364 33.3458 20.6412 34.0067Z" fill="#FF004F"/>
<path d="M31.1946 20.7512C33.0524 22.0835 35.3275 22.8675 37.7848 22.8675V19.1318C36.4131 18.8386 35.1989 18.1193 34.2859 17.1187C32.7231 16.14 31.5972 14.5255 31.267 12.6357H27.822V31.5911C27.8142 33.8009 26.0272 35.5902 23.8235 35.5902C22.5249 35.5902 21.3712 34.969 20.6406 34.0067C19.3359 33.3458 18.4411 31.9891 18.4411 30.4223C18.4411 28.2064 20.2311 26.4097 22.4395 26.4097C22.8626 26.4097 23.2705 26.4758 23.653 26.5977V22.8212C18.9105 22.9195 15.0963 26.8084 15.0963 31.5912C15.0963 33.9788 16.0461 36.1432 17.5877 37.7246C18.9784 38.6617 20.6525 39.2083 22.4537 39.2083C27.2812 39.2083 31.1947 35.2809 31.1947 30.4361V20.7512H31.1946Z" fill="black"/>
<path d="M37.785 19.1319V18.1218C36.5481 18.1237 35.3355 17.776 34.2861 17.1186C35.2151 18.1393 36.4384 18.8431 37.785 19.1319ZM31.2673 12.6358C31.2358 12.4552 31.2116 12.2734 31.1948 12.0909V11.4805H26.4381V30.436C26.4305 32.6456 24.6436 34.4349 22.4397 34.4349C21.7927 34.4349 21.1818 34.2807 20.6408 34.0068C21.3715 34.9691 22.5251 35.5902 23.8237 35.5902C26.0272 35.5902 27.8145 33.8011 27.8222 31.5913V12.6358H31.2673ZM23.6534 22.8212V21.7459C23.256 21.6914 22.8553 21.664 22.4541 21.6642C17.6262 21.6641 13.7126 25.5916 13.7126 30.436C13.7126 33.4733 15.2507 36.1499 17.588 37.7245C16.0465 36.1431 15.0966 33.9786 15.0966 31.5912C15.0966 26.8084 18.9107 22.9196 23.6534 22.8212Z" fill="#00F2EA"/>
</svg>
