<svg width="52" height="52" viewBox="0 0 52 52" fill="none" xmlns="http://www.w3.org/2000/svg">
<path d="M25.4583 52C39.5186 52 50.9167 40.3594 50.9167 26C50.9167 11.6406 39.5186 0 25.4583 0C11.3981 0 0 11.6406 0 26C0 40.3594 11.3981 52 25.4583 52Z" fill="white"/>
<path d="M26.0214 0C11.6507 0 0 11.6316 0 25.9786C0 36.9901 6.85336 46.398 16.5337 50.1826C16.2982 48.1299 16.1054 44.9655 16.6194 42.7204C17.0906 40.6891 19.6606 29.8059 19.6606 29.8059C19.6606 29.8059 18.8896 28.2451 18.8896 25.9572C18.8896 22.3438 20.9884 19.6497 23.6013 19.6497C25.8286 19.6497 26.8994 21.3174 26.8994 23.3059C26.8994 25.5296 25.4859 28.8651 24.7364 31.9655C24.1153 34.5526 26.0428 36.6694 28.5914 36.6694C33.2174 36.6694 36.7726 31.7944 36.7726 24.7812C36.7726 18.5592 32.2965 14.2187 25.8929 14.2187C18.4827 14.2187 14.1351 19.7566 14.1351 25.4868C14.1351 27.7105 14.9917 30.1053 16.0626 31.4095C16.2767 31.6661 16.2982 31.9013 16.2339 32.1579C16.0412 32.9704 15.5914 34.7451 15.5057 35.1086C15.3986 35.5789 15.1202 35.6859 14.6276 35.4507C11.3723 33.9326 9.33771 29.2072 9.33771 25.3799C9.33771 17.1908 15.2916 9.66447 26.5354 9.66447C35.5518 9.66447 42.5765 16.0789 42.5765 24.6743C42.5765 33.6332 36.9225 40.8388 29.084 40.8388C26.4497 40.8388 23.9654 39.4704 23.1301 37.8454C23.1301 37.8454 21.8237 42.8059 21.5024 44.0247C20.9242 46.2911 19.3393 49.1135 18.2685 50.8454C20.71 51.5938 23.28 52 25.9785 52C40.3492 52 51.9999 40.3684 51.9999 26.0214C52.0427 11.6316 40.392 0 26.0214 0Z" fill="#E60019"/>
</svg>
