<svg width="202" height="54" viewBox="0 0 202 54" fill="none" xmlns="http://www.w3.org/2000/svg">
<g clip-path="url(#clip0_262_1048)">
<path d="M24.1123 54.0059C11.5317 54.0059 1.29014 44.2207 1.29014 32.1901C1.22562 29.6526 1.80864 27.1404 2.9843 24.8908C2.05172 24.4973 1.26468 23.8234 0.732238 22.9625C0.199798 22.1016 -0.0515994 21.0963 0.0128227 20.0861C0.0772448 19.0758 0.454284 18.1107 1.09177 17.3244C1.72925 16.5381 2.59553 15.9696 3.57054 15.6978C4.9163 11.3757 7.60184 7.5937 11.2387 4.89874C14.8756 2.20378 19.2753 0.735569 23.8016 0.706406H23.8778C24.0947 0.706406 24.2999 0.706398 24.4934 0.735713C28.3268 0.861306 31.9942 2.32968 34.8551 4.88439C37.7161 7.4391 39.5887 10.9178 40.1459 14.7128C41.2055 16.0128 41.7852 17.638 41.7874 19.3152V20.9978C45.1993 23.5189 46.9287 27.2828 46.9287 32.2018C46.9346 44.2207 36.6989 54.0059 24.1123 54.0059ZM13.5601 8.21089L11.9948 13.5403C11.7497 14.3849 11.5983 15.2539 11.5434 16.1317L11.5024 16.7824L11.092 17.2808C10.6255 17.8562 10.371 18.5744 10.371 19.3152V23.255L9.42125 23.8413C6.63076 25.6002 5.31759 28.2502 5.31759 32.1784C5.31759 41.9694 13.736 49.9253 24.0772 49.9253C34.4184 49.9253 42.8368 41.9694 42.8368 32.1784C42.8368 28.2092 41.5119 25.5416 38.6569 23.7827L37.6955 23.1964V19.3093C37.6949 18.4559 37.3554 17.6377 36.7517 17.0345L36.2182 16.5186L36.1478 15.7799C35.8388 12.8183 34.4634 10.0701 32.2782 8.04761C30.093 6.02509 27.247 4.86618 24.2706 4.78695H24.1475H23.9013H23.8368C20.1412 4.80407 16.5481 6.00395 13.5835 8.21089H13.5601ZM4.8017 19.5849C4.58499 19.5866 4.37686 19.6699 4.21882 19.8182C4.06079 19.9665 3.96445 20.1689 3.94896 20.3851C3.93347 20.6013 3.99996 20.8153 4.13524 20.9847C4.27051 21.154 4.46458 21.2661 4.67882 21.2987C4.89307 21.3314 5.11174 21.282 5.29125 21.1606C5.47077 21.0392 5.59798 20.8546 5.64749 20.6436C5.697 20.4326 5.66517 20.2107 5.5584 20.0221C5.45162 19.8335 5.27773 19.692 5.07134 19.6259L4.8017 19.5849Z" fill="#1A1A18"/>
<path d="M23.8834 31.0879C31.8319 31.0879 38.2755 24.7408 38.2755 16.9114C38.2755 9.08197 31.8319 2.73495 23.8834 2.73495C15.9348 2.73495 9.49121 9.08197 9.49121 16.9114C9.49121 24.7408 15.9348 31.0879 23.8834 31.0879Z" fill="#EE4D52"/>
<path d="M39.7585 19.3152C39.7666 18.3578 39.5074 17.4172 39.0103 16.599C38.5133 15.7808 37.7979 15.1175 36.9446 14.6835C33.562 12.995 29.0362 12.4967 24.0473 12.4967C19.0584 12.4967 14.5503 12.995 11.1501 14.6835C10.2968 15.1175 9.58139 15.7808 9.0843 16.599C8.58721 17.4172 8.32808 18.3578 8.33612 19.3152V25.993C8.33535 26.6772 8.46944 27.3548 8.73071 27.9872C8.99198 28.6195 9.37534 29.1941 9.85882 29.6782C10.3423 30.1623 10.9164 30.5463 11.5484 30.8083C12.1804 31.0703 12.8578 31.2051 13.5419 31.2051H34.5234C35.2075 31.2051 35.8849 31.0703 36.5169 30.8083C37.1489 30.5463 37.7231 30.1623 38.2066 29.6782C38.69 29.1941 39.0733 28.6195 39.3346 27.9872C39.5959 27.3548 39.73 26.6772 39.7292 25.993L39.7585 19.3152Z" fill="white"/>
<path d="M44.906 32.1901C44.906 43.1185 35.5966 51.9715 24.1122 51.9715C12.6278 51.9715 3.32422 43.1185 3.32422 32.1901C3.32422 21.2617 12.6337 19.0631 24.1122 19.0631C35.5907 19.0631 44.906 21.2675 44.906 32.1901Z" fill="white"/>
<mask id="mask0_262_1048" style="mask-type:luminance" maskUnits="userSpaceOnUse" x="3" y="19" width="42" height="33">
<path d="M44.906 32.1901C44.906 43.1185 35.5966 51.9715 24.1122 51.9715C12.6278 51.9715 3.32422 43.1185 3.32422 32.1901C3.32422 21.2617 12.6337 19.0631 24.1122 19.0631C35.5907 19.0631 44.906 21.2675 44.906 32.1901Z" fill="white"/>
</mask>
<g mask="url(#mask0_262_1048)">
<path d="M44.906 24.5156C44.906 35.655 35.5966 31.1875 24.1122 31.1875C12.6278 31.1875 3.32422 35.485 3.32422 24.5156C3.32422 19.966 12.6337 19.0455 24.1122 19.0455C35.5907 19.0455 44.906 19.9836 44.906 24.5156Z" fill="#EE4D52"/>
<path d="M32.1264 26.8138C32.3396 26.7186 32.5614 26.644 32.7888 26.591C32.6863 26.054 32.4077 25.5666 31.9969 25.2058C31.5862 24.8451 31.0669 24.6316 30.5212 24.5993C29.9755 24.567 29.4346 24.7177 28.9841 25.0275C28.5337 25.3373 28.1996 25.7885 28.0344 26.3096C27.7237 27.277 28.4741 27.5174 28.6558 26.9604C28.8123 26.4946 29.1469 26.1098 29.5863 25.8901C30.0258 25.6703 30.5343 25.6336 31.0008 25.7878C31.2509 25.8683 31.4808 26.0015 31.675 26.1785C31.8692 26.3555 32.0231 26.5722 32.1264 26.8138Z" fill="#1A1A18"/>
<path d="M28.3215 27.5936C28.2595 27.6044 28.196 27.6044 28.1339 27.5936C27.7587 27.4763 27.4656 27.0073 27.7118 26.2393C27.9 25.6467 28.2802 25.1337 28.7925 24.7813C29.3047 24.429 29.9198 24.2574 30.5404 24.2938C31.161 24.3301 31.7519 24.5722 32.2195 24.9819C32.6872 25.3915 33.005 25.9454 33.1228 26.5559L33.1814 26.8725L32.8707 26.9487C32.6695 26.999 32.4732 27.0677 32.2845 27.1539L31.9679 27.2887L31.839 26.9721C31.76 26.7784 31.6413 26.6033 31.4906 26.4581C31.3399 26.313 31.1606 26.2009 30.9641 26.1291C30.7676 26.0574 30.5582 26.0275 30.3495 26.0414C30.1407 26.0553 29.9372 26.1127 29.7519 26.21C29.5736 26.2992 29.4152 26.4237 29.2862 26.5758C29.1572 26.728 29.0604 26.9047 29.0015 27.0953C28.9564 27.2402 28.866 27.3667 28.7436 27.4564C28.6212 27.5461 28.4733 27.5942 28.3215 27.5936ZM30.3851 24.9377C29.9341 24.9372 29.4946 25.0801 29.13 25.3456C28.7654 25.6112 28.4946 25.9857 28.3567 26.4152C28.295 26.5637 28.2827 26.7281 28.3215 26.8842C28.4075 26.6086 28.5478 26.3531 28.734 26.1326C28.9203 25.9121 29.1488 25.731 29.4061 25.6002C29.6625 25.4675 29.9426 25.3868 30.2303 25.3626C30.518 25.3385 30.8077 25.3714 31.0827 25.4595C31.5748 25.6251 31.991 25.9622 32.2552 26.4093L32.3431 26.38C32.2349 26.0712 32.0569 25.7916 31.8231 25.5628C31.5892 25.3341 31.3058 25.1623 30.9947 25.0608C30.7988 24.9895 30.5934 24.948 30.3851 24.9377Z" fill="#1A1A18"/>
<path d="M16.0638 26.8138C15.8509 26.7177 15.629 26.6431 15.4014 26.591C15.5039 26.054 15.7825 25.5666 16.1933 25.2058C16.604 24.8451 17.1233 24.6316 17.669 24.5993C18.2147 24.567 18.7556 24.7177 19.206 25.0275C19.6564 25.3373 19.9906 25.7885 20.1557 26.3096C20.4665 27.277 19.7161 27.5174 19.5695 26.9604C19.4117 26.4956 19.077 26.1118 18.638 25.8922C18.199 25.6727 17.6911 25.6352 17.2246 25.7878C16.968 25.8638 16.7311 25.9951 16.5306 26.1723C16.3301 26.3495 16.1708 26.5685 16.0638 26.8138Z" fill="#1A1A18"/>
<path d="M19.8853 27.5936C19.7343 27.588 19.5892 27.5335 19.4719 27.4383C19.3545 27.3432 19.2713 27.2125 19.2346 27.0659C19.1083 26.683 18.8365 26.365 18.4778 26.1808C18.1192 25.9965 17.7024 25.9606 17.3176 26.081C17.1105 26.1485 16.9207 26.2608 16.7617 26.4097C16.6026 26.5586 16.4782 26.7406 16.3971 26.9428L16.2623 27.2594L15.9458 27.1246C15.7568 27.039 15.5606 26.9703 15.3596 26.9194L15.043 26.8431L15.1074 26.5265C15.222 25.9147 15.5379 25.3587 16.0048 24.947C16.4716 24.5353 17.0628 24.2915 17.6841 24.2545C18.3055 24.2174 18.9214 24.3891 19.4339 24.7424C19.9464 25.0957 20.326 25.6102 20.5125 26.2041C20.7588 26.9721 20.4657 27.447 20.0963 27.5643C20.0284 27.5869 19.9568 27.5968 19.8853 27.5936ZM17.7631 25.3305C18.1122 25.3305 18.4562 25.415 18.7656 25.5768C19.023 25.7083 19.2518 25.8895 19.439 26.1098C19.6261 26.3302 19.7678 26.5854 19.856 26.8607C19.854 26.8822 19.854 26.9038 19.856 26.9252C19.8693 26.753 19.8494 26.5799 19.7973 26.4152C19.6632 25.9915 19.3992 25.6208 19.0426 25.3556C18.686 25.0904 18.255 24.9442 17.8106 24.9377C17.3663 24.9312 16.9312 25.0648 16.567 25.3194C16.2028 25.5741 15.9281 25.9369 15.7816 26.3565L15.8696 26.3858C16.1346 25.9395 16.5504 25.6026 17.0421 25.4361C17.2825 25.3593 17.5342 25.3236 17.7865 25.3305H17.7631Z" fill="#1A1A18"/>
<path d="M45.9615 29.3583C46.7822 31.2931 50.7862 43.1713 41.6057 43.1713C31.2644 43.1713 23.9834 33.6499 23.9834 33.6499L24.0479 32.1314C24.0479 30.4488 25.959 29.0886 28.3157 29.0886C31.0124 29.0886 32.2787 30.7244 34.2426 31.7504C36.2065 32.7764 38.2407 34.5118 40.7674 32.4363C42.9834 30.6071 46.3542 26.3682 45.1466 25.9109" fill="#E0DCD8"/>
<path d="M2.26926 29.3583C1.44267 31.2931 -2.56131 43.1713 6.61917 43.1713C16.9604 43.1713 24.2414 33.6499 24.2414 33.6499L24.177 32.1314C24.177 30.4488 22.2717 29.0886 19.9092 29.0886C17.2125 29.0886 15.9462 30.7244 13.9823 31.7504C12.0184 32.7764 9.98414 34.5118 7.46332 32.4363C5.24734 30.6071 1.87648 26.3682 3.07827 25.9109" fill="#E6E6E6"/>
<path d="M45.9263 29.3583C46.747 31.2931 50.7569 43.1713 41.5706 43.1713C31.2352 43.1713 23.9482 33.6499 23.9482 33.6499L24.0128 32.1314C24.0128 30.4488 25.9239 29.0886 28.2805 29.0886C30.9772 29.0886 32.2435 30.7244 34.2074 31.7504C36.1713 32.7764 38.2056 34.5118 40.7322 32.4363C42.9482 30.6071 46.3191 26.3682 45.1174 25.9109" fill="#E6E6E6"/>
<path d="M11.8955 49.7729C11.8955 49.7729 17.6406 47.6388 18.989 45.2702C18.989 45.2702 16.0578 51.1331 13.3611 52.3643" fill="#E6E6E6"/>
<path d="M13.5019 52.6574L13.2205 52.0711C14.7506 51.3676 16.3921 49.0518 17.4766 47.287C15.7684 48.4315 13.9352 49.3776 12.0128 50.1071L11.7783 49.468C11.8369 49.468 17.4238 47.3456 18.696 45.1178L19.2822 45.4343C19.1708 45.6689 16.2807 51.3969 13.5019 52.6574Z" fill="#E6E6E6"/>
<path d="M22.0781 53.6072C22.4834 50.9163 23.163 48.274 24.1065 45.7216C24.1065 45.7216 25.789 50.8341 26.0176 53.8769" fill="#E6E6E6"/>
<path d="M36.2185 49.7729C36.2185 49.7729 30.4733 47.6388 29.125 45.2702C29.125 45.2702 32.0562 51.1331 34.7529 52.3643" fill="#E6E6E6"/>
<path d="M34.6123 52.6574C31.8336 51.3793 28.9434 45.6513 28.8203 45.405L29.4066 45.0884C30.6787 47.3163 36.2656 49.4211 36.3242 49.4387L36.0897 50.0777C34.1694 49.3477 32.3383 48.4016 30.6318 47.2577C31.7104 49.0165 33.3519 51.3617 34.882 52.0418L34.6123 52.6574Z" fill="#E6E6E6"/>
<path d="M17.2832 32.2487C18.8426 35.2916 21.3165 37.2732 24.1129 37.2732C26.9092 37.2732 29.389 35.2916 30.9426 32.2487H17.2832Z" fill="#1A1A18"/>
<mask id="mask1_262_1048" style="mask-type:luminance" maskUnits="userSpaceOnUse" x="17" y="32" width="14" height="6">
<path d="M17.2832 32.2487C18.8426 35.2915 21.3165 37.2732 24.1129 37.2732C26.9092 37.2732 29.389 35.2915 30.9426 32.2487H17.2832Z" fill="white"/>
</mask>
<g mask="url(#mask1_262_1048)">
<path d="M29.7998 40.0053C28.5042 37.4725 26.4406 35.8251 24.1132 35.8251C21.7859 35.8251 19.7282 37.4725 18.4268 40.0053H29.7998Z" fill="#EE4D52"/>
</g>
<path d="M44.1441 27.2535C44.9004 29.2293 45.3635 38.2875 36.9392 38.2875C34.4764 38.2883 32.0428 37.7539 29.8068 36.7213C27.5708 35.6888 25.5859 34.1827 23.9893 32.3073L24.0479 30.0794C24.0479 28.3675 25.8066 26.9839 27.964 26.9839C30.4379 26.9839 31.5986 28.6489 33.3983 29.6925C35.1981 30.7361 36.7927 32.1608 39.3839 30.3902C41.1426 29.1648 38.3579 22.8564 37.5196 20.9216L41.893 22.4342L44.1441 27.2535Z" fill="white"/>
<path d="M4.07526 27.2535C3.32488 29.2293 2.85584 38.2875 11.2801 38.2875C13.7429 38.2883 16.1766 37.7539 18.4125 36.7213C20.6485 35.6888 22.6335 34.1827 24.2301 32.3073L24.1714 30.0794C24.1714 28.3675 22.4128 26.9839 20.2613 26.9839C17.7874 26.9839 16.6207 28.6489 14.821 29.6925C13.0212 30.7361 11.1218 32.5477 8.84138 30.3902C6.83059 28.4906 8.97031 24.5273 10.6997 20.9216L6.33227 22.4342L4.07526 27.2535Z" fill="white"/>
</g>
<path d="M21.5271 23.1788C20.2122 22.3932 18.67 22.0762 17.1519 22.2796C15.6337 22.483 14.2293 23.1947 13.1674 24.2986C13.0473 23.0738 13.3835 21.8478 14.1116 20.8556C14.8397 19.8635 15.9084 19.1751 17.1128 18.9224C18.0343 18.7195 18.9884 18.7143 19.912 18.9074C20.8357 19.1004 21.7079 19.4872 22.471 20.0422L21.5271 23.1788Z" fill="#FFFFFB"/>
<mask id="mask2_262_1048" style="mask-type:luminance" maskUnits="userSpaceOnUse" x="9" y="2" width="30" height="30">
<path d="M23.8833 31.0937C31.8319 31.0937 38.2755 24.7467 38.2755 16.9172C38.2755 9.08781 31.8319 2.7408 23.8833 2.7408C15.9347 2.7408 9.49121 9.08781 9.49121 16.9172C9.49121 24.7467 15.9347 31.0937 23.8833 31.0937Z" fill="white"/>
</mask>
<g mask="url(#mask2_262_1048)">
<g style="mix-blend-mode:multiply">
<path d="M21.0757 8.90857C21.0757 8.90857 10.9162 12.7194 8.69434 17.4039L8.77635 12.0042C8.77635 12.0042 13.1322 8.27538 21.0757 8.90857Z" fill="#D4D5D5"/>
</g>
</g>
<path d="M23.9014 8.88515C32.9119 8.88515 28.3451 2.74083 23.9014 2.74083C19.2845 2.71995 14.8161 4.37072 11.3215 7.38819C7.82694 10.4057 5.54228 14.586 4.88965 19.1569C7.26977 13.2295 14.8909 8.88515 23.9014 8.88515Z" fill="#EE4D52"/>
<path d="M4.87744 23.2492C6.45096 23.2492 7.72655 21.9735 7.72655 20.3998C7.72655 18.8262 6.45096 17.5505 4.87744 17.5505C3.30391 17.5505 2.02832 18.8262 2.02832 20.3998C2.02832 21.9735 3.30391 23.2492 4.87744 23.2492Z" fill="white"/>
<path d="M27.0962 23.1788C28.4111 22.3932 29.9534 22.0762 31.4715 22.2796C32.9896 22.483 34.3941 23.1947 35.4559 24.2987C35.576 23.0738 35.2398 21.8478 34.5118 20.8556C33.7837 19.8635 32.7149 19.1751 31.5106 18.9224C30.5881 18.7197 29.6332 18.7148 28.7086 18.9078C27.7841 19.1008 26.9109 19.4874 26.1465 20.0422L27.0962 23.1788Z" fill="#FFFFFB"/>
<path d="M57.8682 40.6795L62.7691 37.1618C64.5278 40.2515 67.8225 42.0163 71.6213 42.0163C76.0591 42.0163 79.4182 39.8822 79.4182 36.8687C79.4182 33.2161 74.2241 31.0058 69.6105 29.0241C64.9968 27.0425 59.8262 24.5566 59.8262 18.3537C59.8262 11.9045 65.4423 7.3725 72.5534 7.3725C78.193 7.3725 82.4139 10.0929 84.0319 14.408L79.4182 17.5974C78.804 16.3209 77.8346 15.2486 76.6263 14.5093C75.4181 13.7699 74.0222 13.3948 72.6061 13.4289C68.9773 13.4289 66.0813 15.6861 66.0813 18.4768C66.0813 21.5665 69.7336 22.6746 74.5407 24.7325C80.79 27.4763 85.6793 30.4957 85.6793 36.7221C85.6793 43.7576 79.5941 48.2485 71.6095 48.2485C65.0495 48.2837 60.1252 45.2409 57.8682 40.6795Z" fill="#2D2D31"/>
<path d="M118.432 18.1954V47.6212H112.892L112.575 43.5172C110.295 46.7535 106.812 48.571 102.498 48.571C93.745 48.571 88.1758 41.0665 88.1758 32.9523C88.1758 24.1579 94.3078 17.2807 102.521 17.2807C104.483 17.2299 106.428 17.6647 108.182 18.5463C109.936 19.428 111.445 20.7293 112.575 22.3346L112.892 18.2306L118.432 18.1954ZM112.528 32.8526C112.528 27.0659 108.424 23.1436 103.43 23.1436C98.2532 23.1436 94.085 27.3356 94.085 32.8291C94.085 38.1526 97.9835 42.5908 103.465 42.5908C108.723 42.6202 112.528 38.4751 112.528 32.8819V32.8526Z" fill="#2D2D31"/>
<path d="M150.371 31.7093V47.6212H144.45V31.7093C144.45 25.4536 141.923 23.173 137.684 23.173C133.34 23.173 130.573 25.993 130.573 31.7093V47.6212H124.664V18.1954H130.204L130.474 21.631C131.568 20.2814 132.96 19.2041 134.541 18.4838C136.121 17.7635 137.848 17.4199 139.584 17.4801C145.393 17.4801 150.371 20.5523 150.371 31.7093Z" fill="#2D2D31"/>
<path d="M157.253 38.1292V23.9586H153.331V18.5882H154.31C156.473 18.5882 157.646 17.3101 157.646 15.006V12.479H163.162V18.1954H170.197V23.9586H163.162V38.1292C163.162 40.8261 164.241 42.4443 166.68 42.4443C167.898 42.369 169.102 42.1384 170.262 41.7583V47.2519C168.48 47.797 166.631 48.0871 164.769 48.1137C159.903 48.1137 157.253 44.6018 157.253 38.1292Z" fill="#2D2D31"/>
<path d="M202 18.1954V47.6212H196.46L196.143 43.5172C193.863 46.7535 190.381 48.571 186.066 48.571C177.313 48.571 171.744 41.0665 171.744 32.9523C171.744 24.1579 177.876 17.2807 186.089 17.2807C188.052 17.2299 189.996 17.6647 191.75 18.5463C193.504 19.428 195.013 20.7293 196.143 22.3346L196.46 18.2306L202 18.1954ZM196.096 32.8526C196.096 27.0659 191.993 23.1436 186.998 23.1436C181.822 23.1436 177.653 27.3356 177.653 32.8291C177.653 38.1526 181.552 42.5908 187.033 42.5908C192.292 42.6202 196.096 38.4751 196.096 32.8819V32.8526Z" fill="#2D2D31"/>
</g>
<defs>
<clipPath id="clip0_262_1048">
<rect width="202" height="53.2936" fill="white" transform="translate(0 0.70639)"/>
</clipPath>
</defs>
</svg>
