<svg width="52" height="52" viewBox="0 0 52 52" fill="none" xmlns="http://www.w3.org/2000/svg">
<circle cx="26" cy="26" r="26" fill="white"/>
<path d="M45.1495 15.7464C44.9195 14.8811 44.4663 14.0913 43.8352 13.4562C43.2042 12.821 42.4173 12.3628 41.5535 12.1273C38.3735 11.2722 25.6628 11.2722 25.6628 11.2722C25.6628 11.2722 12.9521 11.2722 9.77212 12.1273C8.90829 12.3628 8.12146 12.821 7.49038 13.4562C6.8593 14.0913 6.4061 14.8811 6.17615 15.7464C5.32568 18.9402 5.32568 25.6006 5.32568 25.6006C5.32568 25.6006 5.32568 32.2611 6.17615 35.4549C6.4061 36.3202 6.8593 37.11 7.49038 37.7451C8.12146 38.3803 8.90829 38.8385 9.77212 39.074C12.9521 39.9291 25.6628 39.9291 25.6628 39.9291C25.6628 39.9291 38.3735 39.9291 41.5535 39.074C42.4173 38.8385 43.2042 38.3803 43.8352 37.7451C44.4663 37.11 44.9195 36.3202 45.1495 35.4549C45.9999 32.2611 45.9999 25.6006 45.9999 25.6006C45.9999 25.6006 45.9999 18.9402 45.1495 15.7464Z" fill="#FF0302"/>
<path d="M21.5029 31.6487V19.5527L32.1337 25.6007L21.5029 31.6487Z" fill="#FEFEFE"/>
</svg>
