<svg width="46" height="44" viewBox="0 0 46 44" fill="none" xmlns="http://www.w3.org/2000/svg">
<path d="M38.5 11.5C36.2161 7.79528 32.7866 4.93726 28.7321 3.35971C24.6776 1.78216 20.2195 1.57119 16.0343 2.75888C11.8491 3.94657 8.1654 6.46804 5.54233 9.94058C2.91925 13.4131 1.5 17.6471 1.5 22C1.5 26.3528 2.91925 30.5869 5.54233 34.0594C8.1654 37.532 11.8491 40.0534 16.0343 41.2411C20.2195 42.4288 24.6776 42.2179 28.7321 40.6403C32.7866 39.0628 36.2161 36.2047 38.5 32.5" stroke="#F05858" stroke-width="2.7" stroke-linecap="round"/>
<path d="M16.5 26.125C16.5 28.4625 18.975 30.25 22 30.25M22 30.25C25.025 30.25 27.5 28.4625 27.5 26.125C27.5 23.7875 25.025 22 22 22C18.975 22 16.5 20.2125 16.5 17.875C16.5 15.5375 18.975 13.75 22 13.75M22 30.25V33M22 13.75C25.025 13.75 27.5 15.5375 27.5 17.875M22 13.75V11" stroke="#F05858" stroke-width="2.7" stroke-linecap="round" stroke-linejoin="round"/>
<path d="M39.2959 17L44.5 22M44.5 22L39.2959 27M44.5 22H32.5" stroke="#F05858" stroke-width="2.7" stroke-linecap="round" stroke-linejoin="round"/>
</svg>
