<svg width="30" height="31" viewBox="0 0 30 31" fill="none" xmlns="http://www.w3.org/2000/svg">
<path d="M28.3569 15.6072C28.3569 23.2011 22.3767 29.3572 14.9997 29.3572M28.3569 15.6072C28.3569 8.01324 22.3767 1.85715 14.9997 1.85715M28.3569 15.6072H1.64258M14.9997 29.3572C7.62278 29.3572 1.64258 23.2011 1.64258 15.6072M14.9997 29.3572C17.837 29.3572 20.1371 23.2011 20.1371 15.6072C20.1371 8.01324 17.837 1.85715 14.9997 1.85715M14.9997 29.3572C12.1624 29.3572 9.86236 23.2011 9.86236 15.6072C9.86236 8.01324 12.1624 1.85715 14.9997 1.85715M1.64258 15.6072C1.64258 8.01324 7.62278 1.85715 14.9997 1.85715" stroke="#2D2D31" stroke-width="1.96429" stroke-linecap="round" stroke-linejoin="round"/>
</svg>
