<svg width="59" height="63" viewBox="0 0 59 63" fill="none" xmlns="http://www.w3.org/2000/svg">
<path d="M29.0664 62.0391C13.8392 62.0391 1.44188 50.2077 1.44188 35.6745C1.44188 28.9368 4.13696 24.0452 9.52712 21.0739C8.23348 20.8246 6.86572 20.5281 5.39016 20.171L0 18.8235L12.6669 12.5237L15.362 2.84839C15.6218 2.05274 16.1172 1.35481 16.7826 0.847045C17.4479 0.339284 18.2519 0.0456597 19.0879 0.00507958C19.6592 -0.0231189 20.2303 0.0663082 20.7656 0.267839L21.0621 0.382389C22.7936 1.01573 24.1547 1.31893 29.0597 2.4037C33.9647 1.31893 35.3325 1.01573 37.0573 0.382389L37.3538 0.274583C37.8893 0.0736082 38.4602 -0.0158213 39.0315 0.0118033C39.8693 0.0524729 40.6749 0.34683 41.3415 0.855825C42.0081 1.36482 42.5043 2.06442 42.7642 2.86186V2.9562L45.4593 12.5305L58.1261 18.8302L52.736 20.1778C51.2604 20.5349 49.8927 20.8515 48.599 21.0806C53.9555 24.0519 56.6843 28.9435 56.6843 35.6812C56.6775 50.2077 44.2936 62.0391 29.0664 62.0391ZM12.0066 17.4018C13.4382 17.6378 14.8827 17.7885 16.3322 17.8532H16.6017L16.8645 17.9408C17.4574 18.1295 17.9492 18.271 18.367 18.372L27.6583 20.6022L18.2255 22.3271C9.39912 23.9441 5.46431 28.0541 5.46431 35.661C5.46431 47.964 16.0358 57.983 29.0463 57.983C42.0568 57.983 52.6282 47.964 52.6282 35.661C52.6282 28.0541 48.6934 23.9441 39.867 22.3271L30.4814 20.609L39.7592 18.372C40.1769 18.271 40.6688 18.1295 41.2617 17.9408L41.5244 17.8532H41.8007C43.248 17.7885 44.6902 17.6378 46.1196 17.4018L42.0769 15.3805L38.9506 4.14876C38.9423 4.13016 38.9292 4.11409 38.9126 4.10225C38.8961 4.09041 38.8766 4.0832 38.8563 4.08138L38.4925 4.2094C36.4712 4.95728 34.8946 5.3009 29.6729 6.45304L29.0934 6.58106L28.5139 6.45979C23.299 5.3009 21.7224 4.95729 19.7011 4.21614L19.3642 4.08812C19.3392 4.08354 19.3133 4.08693 19.2904 4.09781C19.2674 4.10869 19.2485 4.12651 19.2362 4.14876L16.1166 15.3805L12.0066 17.4018Z" fill="black"/>
<path d="M54.6562 35.6744C54.6562 49.1162 43.2021 60.0177 29.053 60.0177C14.9038 60.0177 3.44971 49.1162 3.44971 35.6744C3.44971 22.2327 14.9038 19.504 29.053 19.504C43.2021 19.504 54.6562 22.226 54.6562 35.6744Z" fill="white"/>
<mask id="mask0_248_2167" style="mask-type:luminance" maskUnits="userSpaceOnUse" x="3" y="19" width="52" height="42">
<path d="M54.6562 35.6744C54.6562 49.1161 43.2021 60.0177 29.053 60.0177C14.9038 60.0177 3.44971 49.1161 3.44971 35.6744C3.44971 22.2327 14.9038 19.5039 29.053 19.5039C43.2021 19.5039 54.6562 22.2259 54.6562 35.6744Z" fill="white"/>
</mask>
<g mask="url(#mask0_248_2167)">
<path d="M54.6564 26.2416C54.6564 39.9393 43.2023 34.4549 29.0531 34.4549C14.904 34.4549 3.44989 39.744 3.44989 26.2416C3.44989 20.6426 14.904 19.5039 29.0531 19.5039C43.2023 19.5039 54.6564 20.6426 54.6564 26.2416Z" fill="#F65B5A"/>
<path d="M2.17672 32.1842C1.16607 34.5694 -3.76593 49.1834 7.56688 49.1834C20.2877 49.1834 29.2488 37.4666 29.2488 37.4666L29.1747 35.5935C29.1747 33.5318 26.8232 31.8541 23.9193 31.8541C20.5976 31.8541 19.0412 33.8754 16.6224 35.1286C14.2035 36.3818 11.7038 38.5312 8.59773 35.9708C5.90265 33.7272 1.72528 28.5055 3.20757 27.9462" fill="#E3E3E3"/>
<path d="M14.419 56.3523C17.5902 55.1349 20.5026 53.3289 23.0028 51.0295C23.0028 51.0295 22.4032 53.9739 18.785 59.1148L14.419 56.3523Z" fill="#E3E3E3"/>
<path d="M29.0469 51.5215C28.865 52.0538 26.783 58.2592 26.4933 62.039H31.5937C31.304 58.2592 29.2019 52.0335 29.0469 51.5215Z" fill="#E3E3E3"/>
<path d="M43.6673 56.3523C40.4962 55.1349 37.5838 53.3289 35.0835 51.0295C35.0835 51.0295 35.6832 53.9739 39.3013 59.1148L43.6673 56.3523Z" fill="#E3E3E3"/>
<path d="M55.9101 32.1842C56.9207 34.5694 61.8527 49.1834 50.5536 49.1834C37.8261 49.1834 28.8649 37.4666 28.8649 37.4666L28.9458 35.5935C28.9458 33.5318 31.2972 31.8541 34.1944 31.8541C37.5161 31.8541 39.0725 33.8754 41.4914 35.1286C43.9102 36.3818 46.4099 38.5312 49.5227 35.9708C52.2178 33.7272 56.3951 28.5055 54.9129 27.9462" fill="#E3E3E3"/>
<path d="M20.6382 32.9995C22.5584 36.7457 25.6039 39.178 29.0469 39.178C32.4898 39.178 35.5285 36.7457 37.4487 32.9995H20.6382Z" fill="black"/>
<path d="M38.9172 29.0512C39.1814 28.9381 39.4539 28.8457 39.7325 28.775C39.6032 28.1168 39.2589 27.5203 38.7537 27.0792C38.2485 26.6381 37.611 26.3773 36.9414 26.338C36.2719 26.2986 35.6082 26.4829 35.0548 26.8618C34.5014 27.2408 34.0896 27.7929 33.8842 28.4314C33.5001 29.6239 34.4232 29.9204 34.6455 29.2399C34.7366 28.9533 34.8833 28.6875 35.0774 28.4578C35.2714 28.2281 35.5089 28.039 35.7762 27.9012C36.0435 27.7635 36.3353 27.6799 36.635 27.6553C36.9347 27.6306 37.2363 27.6654 37.5225 27.7576C37.8351 27.8587 38.1219 28.0268 38.3628 28.2503C38.6037 28.4737 38.7929 28.7471 38.9172 29.0512Z" fill="#1A1A18"/>
<path d="M34.2344 30.0147C34.1232 30.0136 34.0135 29.9891 33.9125 29.9426C33.8114 29.8962 33.7214 29.8289 33.6482 29.7452C33.4974 29.5413 33.4031 29.3013 33.3747 29.0493C33.3463 28.7974 33.3849 28.5423 33.4865 28.31C33.7194 27.5829 34.1874 26.9538 34.8168 26.5217C35.4463 26.0895 36.2015 25.8789 36.9638 25.9229C37.726 25.9669 38.452 26.263 39.0276 26.7646C39.6032 27.2663 39.9957 27.945 40.1434 28.6941L40.2175 29.0849L39.8334 29.1792C39.5752 29.2433 39.3227 29.3289 39.0788 29.4352L38.6948 29.6037L38.533 29.2129C38.4327 28.9637 38.2787 28.7396 38.0819 28.5568C37.885 28.3739 37.6503 28.2368 37.3944 28.1551C36.9226 28.0044 36.4104 28.0467 35.9697 28.2727C35.529 28.4987 35.1958 28.8901 35.0429 29.3611C34.9995 29.5183 34.9136 29.6606 34.7948 29.7723C34.676 29.884 34.5287 29.9608 34.3691 29.9945L34.2344 30.0147ZM36.7678 26.7469C36.2147 26.7463 35.6758 26.9215 35.2289 27.2473C34.782 27.5731 34.4502 28.0326 34.2815 28.5594C34.1987 28.7411 34.182 28.9461 34.2344 29.1388C34.3908 28.6456 34.6858 28.2079 35.0843 27.8779C35.4827 27.5479 35.9678 27.3395 36.4814 27.2777C36.9951 27.2159 37.5157 27.3033 37.981 27.5293C38.4464 27.7554 38.8368 28.1106 39.1058 28.5526L39.2135 28.5189C39.0809 28.1389 38.8623 27.7947 38.5749 27.5131C38.2874 27.2314 37.9387 27.0199 37.5561 26.8951C37.302 26.8075 37.0364 26.7576 36.7678 26.7469Z" fill="#1A1A18"/>
<path d="M19.1692 29.0512C18.9055 28.937 18.6328 28.8446 18.354 28.7749C18.4808 28.114 18.8243 27.5141 19.3304 27.0704C19.8364 26.6266 20.4759 26.3643 21.1478 26.3248C21.8197 26.2854 22.4855 26.4711 23.04 26.8527C23.5944 27.2342 24.0058 27.7897 24.2091 28.4313C24.5864 29.6239 23.6633 29.9204 23.4477 29.2398C23.2622 28.6621 22.8551 28.1816 22.3157 27.9037C21.7764 27.6258 21.1488 27.5733 20.5707 27.7576C20.2566 27.8574 19.9683 28.025 19.7261 28.2486C19.484 28.4721 19.2939 28.7461 19.1692 29.0512Z" fill="#1A1A18"/>
<path d="M23.8519 30.0147C23.6631 30.0048 23.4828 29.9337 23.3381 29.8121C23.1934 29.6905 23.0923 29.5251 23.0501 29.3409C22.8959 28.8689 22.5618 28.4767 22.1203 28.2494C21.8916 28.1321 21.6412 28.0635 21.3847 28.0478C21.1282 28.0322 20.8712 28.0698 20.63 28.1585C20.3888 28.2471 20.1686 28.3847 19.9833 28.5628C19.7979 28.7408 19.6515 28.9552 19.5532 29.1927L19.3915 29.5835L19.0074 29.415C18.7658 29.3089 18.5156 29.2232 18.2596 29.159L17.8688 29.0647L17.9496 28.6739C18.0964 27.9245 18.4882 27.2451 19.0633 26.7427C19.6385 26.2404 20.3643 25.9434 21.1266 25.8987C21.8889 25.8539 22.6445 26.0639 23.2745 26.4955C23.9044 26.9272 24.373 27.556 24.6065 28.2831C24.9029 29.2264 24.5458 29.8125 24.0877 29.9608C24.0117 29.9887 23.9324 30.0068 23.8519 30.0147ZM21.2713 27.232C21.6998 27.2334 22.122 27.3349 22.5043 27.5285C22.8226 27.69 23.1056 27.9132 23.3369 28.185C23.5682 28.4568 23.7433 28.7718 23.8519 29.1118C23.8519 29.159 23.8923 29.1859 23.899 29.1859C23.909 28.9744 23.884 28.7627 23.8249 28.5593C23.6117 27.9001 23.1461 27.3521 22.5299 27.0352C21.9138 26.7182 21.1972 26.6582 20.5369 26.8682C20.1531 26.9906 19.8032 27.2013 19.5154 27.4833C19.2275 27.7652 19.0098 28.1107 18.8794 28.492L18.9873 28.5256C19.3173 27.9701 19.8401 27.5553 20.4561 27.36C20.7214 27.2872 20.9963 27.2553 21.2713 27.2657V27.232Z" fill="#1A1A18"/>
<path d="M53.6996 29.597C54.6294 32.0225 55.2021 43.1734 44.8396 43.1734C41.8081 43.1744 38.8126 42.517 36.0602 41.2467C33.3078 39.9763 30.8641 38.1233 28.8981 35.8159L28.9655 33.0736C28.9655 30.9647 31.1216 29.2601 33.783 29.2601C36.8284 29.2601 38.2568 31.2814 40.4735 32.6289C42.6902 33.9765 44.6509 35.6676 47.8378 33.4846C50.041 31.9821 46.5779 24.2203 45.5537 21.8351L50.9439 23.6948L53.6996 29.597Z" fill="white"/>
<path d="M4.38696 29.597C3.45716 32.0225 2.88448 43.1734 13.2538 43.1734C16.2861 43.174 19.2825 42.5165 22.0359 41.2462C24.7894 39.9759 27.2343 38.1232 29.2019 35.8159L29.1278 33.0736C29.1278 30.9647 26.9717 29.2601 24.3103 29.2601C21.2649 29.2601 19.8365 31.2814 17.6198 32.6289C15.4031 33.9765 13.0651 36.1393 10.2555 33.4846C7.78278 31.1466 10.4172 26.3022 12.5463 21.8351L7.15619 23.6948L4.38696 29.597Z" fill="white"/>
</g>
<path d="M25.6167 24.5707C24.002 23.5991 22.1057 23.2034 20.2372 23.4481C18.3687 23.6928 16.6382 24.5636 15.3282 25.9182C15.3282 25.9182 14.7151 20.6628 20.1794 19.3018C21.3151 19.0523 22.4908 19.0464 23.6289 19.2845C24.7671 19.5226 25.8418 19.9993 26.7823 20.6831L25.6167 24.5707Z" fill="white"/>
<path d="M32.469 24.5708C34.0836 23.5992 35.98 23.2034 37.8485 23.4482C39.717 23.6929 41.4474 24.5636 42.7574 25.9183C42.7574 25.9183 43.3706 20.6629 37.9063 19.3019C36.7705 19.0532 35.595 19.0478 34.457 19.2859C33.319 19.5239 32.2442 20.0001 31.3033 20.6831L32.469 24.5708Z" fill="white"/>
<path d="M21.2573 33.4038C23.9924 33.4038 26.2095 31.1866 26.2095 28.4516C26.2095 25.7166 23.9924 23.4994 21.2573 23.4994C18.5223 23.4994 16.3051 25.7166 16.3051 28.4516C16.3051 31.1866 18.5223 33.4038 21.2573 33.4038Z" fill="black"/>
<path d="M37.044 33.4038C39.779 33.4038 41.9962 31.1866 41.9962 28.4516C41.9962 25.7166 39.779 23.4994 37.044 23.4994C34.309 23.4994 32.0918 25.7166 32.0918 28.4516C32.0918 31.1866 34.309 33.4038 37.044 33.4038Z" fill="black"/>
<path d="M33.6953 29.1255H32.3477C32.3477 27.7375 30.8789 26.5988 29.0665 26.5988C27.254 26.5988 25.7852 27.7375 25.7852 29.1255H24.4377C24.4377 26.9896 26.5129 25.2513 29.0665 25.2513C31.6201 25.2513 33.6953 26.9896 33.6953 29.1255Z" fill="black"/>
<path d="M29.2014 22.5494C39.1327 22.5494 48.1613 21.8217 54.9326 19.4568L43.7548 13.9386L40.8508 3.49518C40.7632 3.22019 40.6207 2.96586 40.4318 2.74768C40.2429 2.52949 40.0116 2.352 39.7519 2.22596C39.4923 2.09993 39.2098 2.02799 38.9215 2.01452C38.6332 2.00106 38.3451 2.04635 38.0749 2.14764C35.1563 3.20758 32.1416 3.98155 29.0733 4.45867C23.4811 3.22567 22.1335 2.92922 20.0583 2.14764C19.7881 2.04635 19.5001 2.00106 19.2118 2.01452C18.9235 2.02799 18.6409 2.09993 18.3813 2.22596C18.1216 2.352 17.8904 2.52949 17.7015 2.74768C17.5126 2.96586 17.37 3.22019 17.2824 3.49518L14.3784 13.9656L3.20056 19.4837C9.97195 21.8756 19.0005 22.5494 28.9318 22.5494H29.2014Z" fill="black"/>
<mask id="mask1_248_2167" style="mask-type:luminance" maskUnits="userSpaceOnUse" x="3" y="2" width="52" height="21">
<path d="M29.2014 22.5494C39.1327 22.5494 48.1613 21.8217 54.9326 19.4568L43.7548 13.9386L40.8508 3.49518C40.7632 3.22019 40.6207 2.96586 40.4318 2.74768C40.2429 2.52949 40.0116 2.352 39.7519 2.22596C39.4923 2.09993 39.2098 2.02799 38.9215 2.01452C38.6332 2.00106 38.3451 2.04635 38.0749 2.14764C35.1563 3.20758 32.1416 3.98155 29.0733 4.45867C23.4811 3.22567 22.1335 2.92922 20.0583 2.14764C19.7881 2.04635 19.5001 2.00106 19.2118 2.01452C18.9235 2.02799 18.6409 2.09993 18.3813 2.22596C18.1216 2.352 17.8904 2.52949 17.7015 2.74768C17.5126 2.96586 17.37 3.22019 17.2824 3.49518L14.3784 13.9656L3.20056 19.4837C9.97195 21.8756 19.0005 22.5494 28.9318 22.5494H29.2014Z" fill="white"/>
</mask>
<g mask="url(#mask1_248_2167)">
<path d="M45.52 9.57941H12.5794V12.7933H45.52V9.57941Z" fill="#F65B5A"/>
</g>
</svg>
