<svg width="57" height="65" viewBox="0 0 57 65" fill="none" xmlns="http://www.w3.org/2000/svg">
<path d="M29.049 64.4123C13.8758 64.4123 1.52242 52.6296 1.52242 38.1412C1.43011 34.9372 2.21975 31.7694 3.80513 28.9835C2.66688 28.6195 1.67907 27.8929 0.992661 26.9147C0.306248 25.9364 -0.0410397 24.7604 0.00386631 23.5662C0.0487724 22.372 0.483414 21.2253 1.24136 20.3014C1.9993 19.3775 3.03885 18.7271 4.20122 18.4496C7.28286 7.67391 17.4878 2.28645e-05 29.0423 2.28645e-05C33.8402 -0.0072911 38.4751 1.74033 42.0738 4.91357C45.6724 8.08681 47.9863 12.4666 48.5795 17.2277C49.702 18.694 50.3086 20.4902 50.305 22.3369V24.6666C54.4675 27.6609 56.5756 32.186 56.5756 38.1277C56.5622 52.6296 44.2222 64.4123 29.049 64.4123ZM15.7624 9.44635L14.0638 14.945C13.7384 16.0065 13.5312 17.1008 13.4461 18.2079L13.3924 18.8793L12.9292 19.3895C12.1927 20.1941 11.7854 21.2461 11.7879 22.3369V26.8821L10.8412 27.4729C7.24259 29.7288 5.56415 33.1125 5.56415 38.1277C5.56415 50.3939 16.0981 60.3706 29.0625 60.3706C42.0268 60.3706 52.5608 50.3939 52.5608 38.1277C52.5608 33.0924 50.8689 29.7019 47.2435 27.4528L46.2901 26.862V22.3369C46.2924 21.2473 45.8878 20.1962 45.1554 19.3895L44.6922 18.8793L44.6385 18.2079C44.2811 14.3265 42.4833 10.7196 39.5991 8.09759C36.715 5.47563 32.9536 4.02869 29.0557 4.04175C25.8437 4.04343 22.6709 4.74667 19.7589 6.10232C16.847 7.45796 14.2664 9.4333 12.1974 11.8902L15.7624 9.44635ZM5.41642 22.3436C5.13346 22.3541 4.85985 22.4477 4.62965 22.6125C4.39944 22.7774 4.22283 23.0063 4.12177 23.2709C4.02071 23.5354 3.99967 23.8238 4.06129 24.1001C4.1229 24.3765 4.26443 24.6287 4.46828 24.8252C4.67212 25.0217 4.92928 25.154 5.20772 25.2055C5.48616 25.2569 5.7736 25.2254 6.03424 25.1147C6.29489 25.0041 6.51722 24.8192 6.67358 24.5831C6.82994 24.3471 6.91343 24.0702 6.91363 23.7871C6.91126 23.4686 6.80313 23.1599 6.60625 22.9096C6.40938 22.6592 6.13493 22.4814 5.82599 22.404L5.60443 22.3704L5.41642 22.3436Z" fill="black"/>
<path d="M29.0287 36.7917C38.7769 36.7917 46.6793 29.0095 46.6793 19.4096C46.6793 9.80978 38.7769 2.02757 29.0287 2.02757C19.2806 2.02757 11.3781 9.80978 11.3781 19.4096C11.3781 29.0095 19.2806 36.7917 29.0287 36.7917Z" fill="#F65B5A"/>
<path d="M48.2767 22.3503C48.2852 21.1766 47.9669 20.0236 47.3574 19.0205C46.748 18.0174 45.8714 17.2037 44.8258 16.6704C40.6766 14.6026 35.1243 13.9849 29.0282 13.9849C22.9321 13.9849 17.373 14.5959 13.2239 16.6704C12.1787 17.2043 11.3026 18.0181 10.6932 19.0211C10.0839 20.0241 9.76525 21.1767 9.773 22.3503V30.5411C9.77211 31.3802 9.93659 32.2112 10.2571 32.9866C10.5775 33.762 11.0477 34.4666 11.6407 35.0602C12.2337 35.6538 12.9378 36.1247 13.7129 36.446C14.488 36.7673 15.3188 36.9327 16.1578 36.9327H41.8918C42.7309 36.9327 43.5617 36.7673 44.3368 36.446C45.1118 36.1247 45.816 35.6538 46.409 35.0602C47.0019 34.4666 47.4721 33.762 47.7926 32.9866C48.1131 32.2112 48.2775 31.3802 48.2767 30.5411V22.3503Z" fill="white"/>
<path d="M54.548 38.1412C54.548 51.5688 43.1346 62.3981 29.0356 62.3981C14.9366 62.3981 3.5231 51.5419 3.5231 38.1412C3.5231 24.7404 14.9366 22.028 29.0356 22.028C43.1346 22.028 54.548 24.7471 54.548 38.1412Z" fill="white"/>
<mask id="mask0_1_52" style="mask-type:luminance" maskUnits="userSpaceOnUse" x="3" y="22" width="52" height="41">
<path d="M54.5487 38.1412C54.5487 51.5688 43.1353 62.3981 29.0363 62.3981C14.9373 62.3981 3.5238 51.5419 3.5238 38.1412C3.5238 24.7404 14.9373 22.028 29.0363 22.028C43.1353 22.028 54.5487 24.7471 54.5487 38.1412Z" fill="white"/>
</mask>
<g mask="url(#mask0_1_52)">
<path d="M54.5488 28.7486C54.5488 42.391 43.1353 36.9327 29.0363 36.9327C14.9373 36.9327 3.52383 42.203 3.52383 28.7486C3.52383 23.1694 14.9373 22.0348 29.0363 22.0348C43.1353 22.0348 54.5488 23.1694 54.5488 28.7486Z" fill="#8CC4F8"/>
<path d="M2.25433 34.6635C1.24726 37.0401 -3.66724 51.6024 7.62538 51.6024C20.301 51.6024 29.2304 39.9338 29.2304 39.9338L29.1566 38.0674C29.1566 36.0062 26.8135 34.3345 23.9198 34.3345C20.6099 34.3345 19.059 36.3486 16.6487 37.6041C14.2385 38.8596 11.7476 40.961 8.65257 38.4433C5.96705 36.2009 1.80449 31.0045 3.28153 30.4405" fill="#E3E3E3"/>
<path d="M14.4534 58.7459C17.6133 57.5327 20.5153 55.7332 23.0068 53.442C23.0068 53.442 22.4092 56.3826 18.8039 61.4985L14.4534 58.7459Z" fill="#E3E3E3"/>
<path d="M29.0291 53.9119C28.8478 54.4423 26.7733 60.6257 26.4846 64.3922H31.5669C31.2849 60.6392 29.2037 54.4423 29.0291 53.9119Z" fill="#E3E3E3"/>
<path d="M43.5976 58.7459C40.4377 57.5327 37.5356 55.7332 35.0442 53.442C35.0442 53.442 35.6418 56.3826 39.2471 61.4985L43.5976 58.7459Z" fill="#E3E3E3"/>
<path d="M55.7966 34.6635C56.8036 37.0401 61.7181 51.6024 50.4255 51.6024C37.7431 51.6024 28.8138 39.9338 28.8138 39.9338L28.8943 38.0674C28.8943 36.0062 31.2374 34.3345 34.1244 34.3345C37.4343 34.3345 38.9852 36.3486 41.3954 37.6041C43.8057 38.8596 46.2965 40.961 49.3983 38.4433C52.0838 36.2009 56.2464 31.0045 54.7693 30.4405" fill="#E3E3E3"/>
<path d="M20.6504 35.4758C22.5638 39.2087 25.5985 41.6391 29.0292 41.6391C32.46 41.6391 35.4879 39.2087 37.4013 35.4758H20.6504Z" fill="#1A1A18"/>
<path d="M38.8644 31.5483C39.1265 31.4326 39.3984 31.3404 39.6768 31.273C39.548 30.6172 39.2049 30.0228 38.7015 29.5832C38.1981 29.1437 37.5628 28.8839 36.8956 28.8447C36.2285 28.8055 35.5671 28.9891 35.0157 29.3667C34.4642 29.7443 34.0539 30.2944 33.8492 30.9306C33.4665 32.1122 34.3863 32.4144 34.6079 31.7295C34.7927 31.1539 35.1983 30.6751 35.7358 30.3982C36.2733 30.1212 36.8986 30.0689 37.4747 30.2525C37.787 30.3536 38.0734 30.522 38.3136 30.7459C38.5537 30.9698 38.7418 31.2437 38.8644 31.5483Z" fill="#1A1A18"/>
<path d="M34.1986 32.5083C34.088 32.5061 33.9791 32.4811 33.8786 32.4348C33.7781 32.3886 33.6882 32.3223 33.6145 32.2398C33.4636 32.0356 33.3693 31.7953 33.3411 31.543C33.3128 31.2908 33.3515 31.0355 33.4533 30.803C33.5906 30.3735 33.8112 29.9752 34.1025 29.6309C34.3938 29.2867 34.7502 29.0033 35.1511 28.7969C35.5521 28.5905 35.9898 28.4652 36.4392 28.4281C36.8886 28.391 37.3409 28.4429 37.7703 28.5808C38.3544 28.7696 38.8773 29.1114 39.2846 29.5707C39.692 30.03 39.9689 30.59 40.0866 31.1924L40.1604 31.5818L39.7778 31.6758C39.5223 31.7387 39.2729 31.8241 39.0325 31.931L38.6431 32.0921L38.482 31.7027C38.385 31.4653 38.2396 31.2509 38.0549 31.0731C37.8702 30.8953 37.6503 30.758 37.4095 30.6701C37.1686 30.5823 36.9121 30.5457 36.6562 30.5628C36.4004 30.5799 36.151 30.6503 35.924 30.7695C35.7056 30.8799 35.5117 31.0331 35.3537 31.2199C35.1957 31.4067 35.0768 31.6234 35.0042 31.8571C34.9583 32.0124 34.872 32.1527 34.754 32.2636C34.636 32.3745 34.4907 32.452 34.3328 32.4882L34.1986 32.5083ZM36.723 29.2454C36.3097 29.247 35.9026 29.3459 35.5346 29.5341C35.2288 29.6891 34.9571 29.9038 34.7357 30.1656C34.5143 30.4274 34.3476 30.7309 34.2456 31.0582C34.1704 31.2411 34.154 31.4429 34.1986 31.6356C34.1986 31.6356 34.1986 31.6355 34.1986 31.602C34.3552 31.111 34.6498 30.6755 35.0472 30.3473C35.4447 30.0192 35.9281 29.8124 36.4398 29.7515C36.9516 29.6906 37.4701 29.7783 37.9334 30.004C38.3967 30.2298 38.7852 30.5841 39.0527 31.0246L39.1601 30.9843C39.0266 30.6072 38.8082 30.2657 38.5219 29.9864C38.2355 29.707 37.8888 29.4971 37.5085 29.373C37.2551 29.2891 36.9899 29.2461 36.723 29.2454Z" fill="#1A1A18"/>
<path d="M19.1993 31.5483C18.938 31.4306 18.666 31.3384 18.3869 31.273C18.5133 30.6144 18.8557 30.0167 19.3599 29.5745C19.8641 29.1323 20.5013 28.8709 21.1708 28.8316C21.8403 28.7923 22.5038 28.9774 23.0563 29.3576C23.6088 29.7377 24.0187 30.2913 24.2212 30.9306C24.5972 32.1122 23.6774 32.4144 23.4626 31.7296C23.2762 31.1549 22.8704 30.6773 22.3334 30.4006C21.7964 30.1239 21.1719 30.0707 20.5958 30.2525C20.2824 30.3532 19.9949 30.5214 19.7536 30.7452C19.5123 30.9691 19.3231 31.2433 19.1993 31.5483Z" fill="#1A1A18"/>
<path d="M23.8526 32.5083C23.6645 32.4985 23.4848 32.4276 23.3406 32.3065C23.1965 32.1853 23.0957 32.0205 23.0536 31.8369C22.9012 31.3674 22.5695 30.977 22.1307 30.7507C21.6919 30.5244 21.1815 30.4805 20.7105 30.6285C20.4561 30.7111 20.2229 30.8482 20.0269 31.0303C19.8309 31.2123 19.677 31.4349 19.5759 31.6825L19.408 32.0719L19.0254 31.9108C18.7845 31.805 18.5352 31.7197 18.2801 31.6557L17.8907 31.5617L17.9713 31.1723C18.1176 30.4255 18.508 29.7486 19.081 29.248C19.6541 28.7474 20.3774 28.4515 21.137 28.4069C21.8967 28.3623 22.6495 28.5716 23.2773 29.0017C23.905 29.4318 24.3719 30.0584 24.6045 30.7829C24.8999 31.7161 24.5441 32.3002 24.0876 32.4479C24.0133 32.4812 23.9338 32.5016 23.8526 32.5083ZM21.2946 29.7154C21.8646 29.7157 22.4197 29.8974 22.8795 30.2342C23.3394 30.5709 23.6802 31.0453 23.8526 31.5885C23.8619 31.6186 23.878 31.6461 23.8996 31.6691C23.9097 31.4583 23.8847 31.2473 23.8257 31.0447C23.6608 30.5253 23.3366 30.071 22.8992 29.7459C22.4618 29.4208 21.9332 29.2415 21.3883 29.2334C20.8434 29.2252 20.3098 29.3886 19.8628 29.7004C19.4159 30.0122 19.0783 30.4566 18.8978 30.9709L19.0052 31.0111C19.3341 30.4576 19.855 30.0442 20.4688 29.8497C20.7318 29.768 21.0058 29.7272 21.2812 29.7288L21.2946 29.7154Z" fill="#1A1A18"/>
<path d="M53.5942 32.0854C54.5207 34.509 55.0914 45.6204 44.7656 45.6204C41.7444 45.6205 38.7592 44.9644 36.0165 43.6974C33.2738 42.4304 30.8391 40.5827 28.8807 38.2822L28.9479 35.5497C28.9479 33.455 31.0963 31.7497 33.7482 31.7497C36.7829 31.7497 38.2062 33.7974 40.415 35.1066C42.6239 36.4158 44.5776 38.1345 47.7532 35.9592C49.9487 34.4553 46.4978 26.7277 45.4773 24.3511L50.8483 26.1974L53.5942 32.0854Z" fill="white"/>
<path d="M4.42889 32.0854C3.50239 34.509 2.93169 45.6204 13.2642 45.6204C16.2853 45.6196 19.2702 44.9631 22.0128 43.6962C24.7553 42.4292 27.1902 40.582 29.1491 38.2822L29.0753 35.5497C29.0753 33.455 26.9269 31.7497 24.2749 31.7497C21.2403 31.7497 19.8169 33.7974 17.6081 35.1066C15.3993 36.4158 13.0696 38.6045 10.2699 35.9592C7.80594 33.6295 10.431 28.7956 12.5526 24.3511L7.18154 26.1974L4.42889 32.0854Z" fill="white"/>
</g>
<mask id="mask1_1_52" style="mask-type:luminance" maskUnits="userSpaceOnUse" x="11" y="2" width="36" height="35">
<path d="M29.0292 36.7916C38.7773 36.7916 46.6798 29.0094 46.6798 19.4096C46.6798 9.80974 38.7773 2.02754 29.0292 2.02754C19.281 2.02754 11.3786 9.80974 11.3786 19.4096C11.3786 29.0094 19.281 36.7916 29.0292 36.7916Z" fill="white"/>
</mask>
<g mask="url(#mask1_1_52)">
<path d="M25.3229 9.59396C25.3229 9.59396 12.8688 14.2936 10.143 20.0071L10.237 13.3873C10.237 13.3873 15.5879 8.84201 25.3229 9.59396Z" fill="#DD3E3D"/>
</g>
<path d="M28.794 9.56046C39.8382 9.56046 34.4739 2.02757 29.029 2.02757C17.0986 2.02757 7.00771 10.8025 5.47025 22.169C8.45789 14.8845 17.7431 9.56046 28.794 9.56046Z" fill="#F65B5A"/>
<path d="M25.6111 27.0902C23.9981 26.1274 22.1066 25.7393 20.2449 25.9892C18.3832 26.2392 16.661 27.1124 15.3591 28.4665C15.3591 28.4665 14.7481 23.2298 20.193 21.8669C21.3248 21.62 22.496 21.615 23.6298 21.8521C24.7637 22.0893 25.8347 22.5634 26.7726 23.2432L25.6111 27.0902Z" fill="white"/>
<path d="M32.4392 27.0902C34.0528 26.1257 35.9458 25.7367 37.809 25.9866C39.6722 26.2366 41.3956 27.1108 42.698 28.4666C42.698 28.4666 43.3089 23.2298 37.864 21.8669C36.7322 21.6209 35.5612 21.6163 34.4275 21.8534C33.2938 22.0906 32.2228 22.5642 31.2845 23.2432L32.4392 27.0902Z" fill="white"/>
<path d="M3.08645 24.9552L2.35463 24.6598C2.30261 24.6419 2.25735 24.6085 2.22494 24.5641C2.19252 24.5197 2.17453 24.4664 2.17339 24.4114C2.16954 24.3631 2.17948 24.3148 2.20207 24.272C2.22466 24.2292 2.25895 24.1937 2.30095 24.1697C2.34199 24.1467 2.38822 24.1347 2.43523 24.1347C2.48224 24.1347 2.52844 24.1467 2.56948 24.1697L3.61015 24.5859C3.64469 24.5994 3.68301 24.5994 3.71755 24.5859L4.97975 23.8273H5.02003L4.95959 23.787L3.73099 23.0485C3.71287 23.0372 3.69192 23.0311 3.67055 23.0311C3.64919 23.0311 3.62827 23.0372 3.61015 23.0485L2.55608 23.4781C2.4893 23.5048 2.41463 23.5039 2.34852 23.4756C2.28242 23.4473 2.2303 23.3939 2.20359 23.3271C2.17688 23.2603 2.1778 23.1857 2.20613 23.1196C2.23446 23.0535 2.28786 23.0013 2.35463 22.9746L3.02601 22.7128L3.10661 22.6725L3.01933 22.6188L2.42179 22.2629C2.36036 22.2255 2.31631 22.1653 2.29931 22.0954C2.28231 22.0255 2.29376 21.9518 2.33115 21.8903C2.36854 21.8289 2.42879 21.7848 2.49867 21.7678C2.56855 21.7508 2.64233 21.7623 2.70376 21.7997L3.30802 22.1622L3.38858 22.2092C3.38858 22.0011 3.34828 21.8131 3.32814 21.6251C3.32814 21.5513 3.32814 21.4774 3.32814 21.4036C3.32058 21.3315 3.34174 21.2594 3.38698 21.2029C3.43223 21.1463 3.4979 21.1099 3.56983 21.1015C3.60618 21.0978 3.64292 21.1015 3.67776 21.1125C3.71261 21.1235 3.74485 21.1415 3.7725 21.1654C3.80016 21.1893 3.82265 21.2185 3.8386 21.2514C3.85455 21.2843 3.8636 21.3201 3.86524 21.3566L3.98612 22.5046C3.98784 22.5206 3.9929 22.5361 4.001 22.5499C4.00909 22.5638 4.02002 22.5758 4.03308 22.5852L5.29528 23.3439C5.29859 23.3216 5.29859 23.299 5.29528 23.2767V21.8803C5.29679 21.8566 5.292 21.8329 5.28139 21.8117C5.27077 21.7904 5.25473 21.7724 5.23488 21.7594L4.32849 21.088C4.28318 21.0591 4.24763 21.0172 4.22637 20.9679C4.20512 20.9185 4.19916 20.8639 4.20929 20.8111C4.21941 20.7583 4.24516 20.7098 4.28317 20.6718C4.32118 20.6338 4.3697 20.608 4.42249 20.5979C4.46474 20.5893 4.5084 20.5903 4.55022 20.6007C4.59205 20.6112 4.63096 20.6309 4.66418 20.6583L5.20132 21.0679L5.29528 21.1283V20.2555C5.29698 20.1848 5.32584 20.1175 5.37584 20.0675C5.42584 20.0175 5.49316 19.9887 5.56385 19.987C5.63571 19.9869 5.70472 20.015 5.75616 20.0652C5.80759 20.1154 5.83734 20.1837 5.8391 20.2555V21.0679L5.92638 21.0075L6.47692 20.5912C6.50606 20.5677 6.53967 20.5505 6.57571 20.5404C6.61175 20.5304 6.64945 20.5278 6.68652 20.5329C6.72359 20.5379 6.75927 20.5504 6.79134 20.5697C6.82341 20.5889 6.85121 20.6145 6.87305 20.6449C6.91475 20.7046 6.93108 20.7784 6.91849 20.8501C6.90591 20.9219 6.86542 20.9857 6.80589 21.0276L5.90626 21.699C5.88457 21.7138 5.86703 21.7339 5.85528 21.7574C5.84353 21.7809 5.83794 21.807 5.8391 21.8333V23.3036L5.91966 23.2566L7.1013 22.5516C7.12495 22.5396 7.14494 22.5214 7.15912 22.4989C7.17329 22.4765 7.18113 22.4506 7.18186 22.4241C7.21543 22.0481 7.25574 21.6721 7.29602 21.3029C7.29853 21.2669 7.30821 21.2319 7.32454 21.1998C7.34087 21.1677 7.36349 21.1392 7.39105 21.1161C7.41861 21.0929 7.45055 21.0755 7.48497 21.0649C7.51939 21.0543 7.55561 21.0508 7.59143 21.0545C7.62805 21.0577 7.66362 21.0684 7.69592 21.086C7.72823 21.1035 7.75657 21.1275 7.77923 21.1565C7.80189 21.1854 7.81836 21.2187 7.82763 21.2543C7.83689 21.2899 7.83878 21.327 7.83312 21.3633C7.83312 21.5983 7.78613 21.84 7.75928 22.075V22.1488L8.10837 21.9474L8.43734 21.746C8.4676 21.7239 8.50215 21.7085 8.53876 21.7006C8.57536 21.6927 8.61322 21.6925 8.64989 21.7001C8.68656 21.7077 8.72126 21.7228 8.75172 21.7446C8.78218 21.7664 8.80772 21.7943 8.82675 21.8265C8.84651 21.8577 8.85946 21.8928 8.86473 21.9293C8.87001 21.9659 8.8675 22.0031 8.85736 22.0386C8.84721 22.0741 8.82968 22.1071 8.80589 22.1353C8.78211 22.1636 8.75261 22.1865 8.71935 22.2025C8.52465 22.3301 8.32323 22.4442 8.12853 22.5651L8.03452 22.6188L8.21581 22.6994L8.75963 22.9209C8.79564 22.932 8.82889 22.9505 8.85728 22.9753C8.88566 23.0001 8.90853 23.0306 8.92436 23.0648C8.94019 23.0989 8.94866 23.1361 8.94919 23.1738C8.94972 23.2115 8.94233 23.2488 8.92747 23.2835C8.91236 23.3176 8.89046 23.3483 8.8631 23.3737C8.83573 23.3992 8.80349 23.4188 8.76831 23.4313C8.73314 23.4439 8.69577 23.4491 8.65849 23.4468C8.62122 23.4445 8.58483 23.4346 8.5515 23.4177C8.2091 23.2767 7.88009 23.1424 7.51755 22.9947C7.49816 22.9835 7.47618 22.9777 7.45379 22.9777C7.4314 22.9777 7.40938 22.9835 7.38998 22.9947L6.10095 23.7668L6.16139 23.8138L7.38998 24.5523C7.4104 24.5641 7.43358 24.5703 7.45715 24.5703C7.48072 24.5703 7.50386 24.5641 7.52427 24.5523L8.57162 24.1227C8.62883 24.0977 8.69299 24.0934 8.75303 24.1105C8.81307 24.1277 8.86524 24.1652 8.90059 24.2167C8.9412 24.2631 8.96361 24.3228 8.96361 24.3845C8.96361 24.4462 8.9412 24.5059 8.90059 24.5523C8.85662 24.5913 8.80679 24.623 8.75291 24.6464L8.08153 24.9283L8.27621 25.0492L8.76635 25.3446C8.79676 25.3631 8.82323 25.3874 8.84425 25.4162C8.86526 25.4449 8.88041 25.4775 8.88883 25.5121C8.89725 25.5467 8.89876 25.5826 8.8933 25.6178C8.88783 25.653 8.87546 25.6868 8.85695 25.7172C8.83843 25.7476 8.81415 25.7741 8.7854 25.7951C8.75666 25.8161 8.72403 25.8313 8.68943 25.8397C8.65483 25.8481 8.6189 25.8496 8.58371 25.8442C8.54852 25.8387 8.51476 25.8263 8.48434 25.8078L7.89352 25.452L7.79956 25.3983L7.85996 25.9824V26.1972C7.86349 26.2325 7.86003 26.2681 7.8498 26.302C7.83956 26.336 7.82274 26.3676 7.80029 26.395C7.77785 26.4224 7.75023 26.4452 7.719 26.4619C7.68776 26.4787 7.65354 26.4891 7.61827 26.4926C7.54705 26.4998 7.47591 26.4783 7.42051 26.433C7.36511 26.3877 7.32999 26.3222 7.32286 26.2509L7.20202 25.1029C7.20126 25.0867 7.1966 25.0709 7.18841 25.0568C7.18023 25.0428 7.16877 25.031 7.15502 25.0223L5.8391 24.2838C5.83608 24.3083 5.83608 24.3331 5.8391 24.3576V25.7407C5.83633 25.7655 5.84055 25.7905 5.85123 25.8131C5.8619 25.8356 5.87862 25.8547 5.89954 25.8682L6.79921 26.5396C6.84468 26.5678 6.88015 26.6095 6.90063 26.6589C6.92111 26.7083 6.92555 26.7628 6.91333 26.8149C6.90567 26.8681 6.88141 26.9174 6.84404 26.956C6.80667 26.9946 6.75809 27.0204 6.7052 27.0297C6.66003 27.0429 6.61225 27.0442 6.56641 27.0337C6.52057 27.0231 6.4782 27.0009 6.44336 26.9693L5.81898 26.4993C5.81602 26.5216 5.81602 26.5442 5.81898 26.5665V27.2782C5.82172 27.3154 5.81685 27.3528 5.80468 27.3881C5.7925 27.4234 5.77325 27.4559 5.74813 27.4835C5.723 27.5112 5.69254 27.5334 5.65855 27.5489C5.62456 27.5644 5.58775 27.5728 5.55041 27.5736C5.51282 27.5746 5.47544 27.5678 5.44067 27.5534C5.4059 27.5391 5.37454 27.5177 5.34859 27.4904C5.32264 27.4632 5.30268 27.4309 5.29004 27.3955C5.27739 27.36 5.27233 27.3224 5.27516 27.2849V26.4993L5.1946 26.5598L4.63062 26.9827C4.59526 27.0112 4.55328 27.0302 4.50859 27.038C4.46389 27.0458 4.41795 27.0422 4.37504 27.0274C4.33213 27.0127 4.29366 26.9873 4.26321 26.9537C4.23277 26.92 4.21133 26.8792 4.20093 26.835C4.18508 26.7801 4.18769 26.7215 4.2083 26.6681C4.22891 26.6148 4.26642 26.5697 4.31509 26.5396L5.208 25.8682C5.23179 25.8523 5.25068 25.83 5.26254 25.8039C5.2744 25.7778 5.27878 25.749 5.27516 25.7206V24.2838L5.12744 24.3778L4.00624 25.0492C3.98489 25.0599 3.96677 25.0761 3.95379 25.0962C3.94081 25.1163 3.93344 25.1394 3.9324 25.1633C3.9324 25.5393 3.85856 25.9153 3.81828 26.2845C3.81764 26.3214 3.80923 26.3576 3.79361 26.391C3.77799 26.4244 3.75547 26.4541 3.72759 26.4781C3.69971 26.5022 3.66707 26.5201 3.63179 26.5307C3.5965 26.5413 3.5594 26.5444 3.52287 26.5396C3.48624 26.5364 3.45064 26.5257 3.41833 26.5081C3.38602 26.4906 3.35768 26.4666 3.33502 26.4376C3.31237 26.4087 3.2959 26.3754 3.28663 26.3398C3.27736 26.3042 3.27548 26.2671 3.28114 26.2308C3.28114 25.9891 3.32817 25.7474 3.35502 25.5057C3.35208 25.4857 3.35208 25.4653 3.35502 25.4453L3.28114 25.4789L2.67692 25.8414C2.6469 25.8649 2.61224 25.8817 2.57521 25.8908C2.53819 25.8998 2.49967 25.9009 2.4622 25.8939C2.42473 25.8869 2.38914 25.872 2.35787 25.8503C2.32659 25.8285 2.30032 25.8003 2.28079 25.7675C2.26128 25.7345 2.24889 25.6977 2.24444 25.6595C2.23999 25.6214 2.24359 25.5828 2.25497 25.5461C2.26635 25.5094 2.28528 25.4755 2.31054 25.4466C2.3358 25.4177 2.36682 25.3944 2.40163 25.3782L2.99245 25.0223L3.08645 24.9552Z" fill="white"/>
<path d="M5.54403 27.7482C5.48402 27.7488 5.42454 27.7372 5.36914 27.7141C5.31374 27.691 5.26361 27.6569 5.22178 27.6139C5.14277 27.5253 5.09968 27.4104 5.10094 27.2917V26.8351L4.72497 27.1171C4.66533 27.162 4.59558 27.1916 4.52184 27.2033C4.4481 27.215 4.37261 27.2085 4.302 27.1842C4.22817 27.1537 4.16378 27.1042 4.11547 27.0406C4.06715 26.977 4.03665 26.9016 4.02708 26.8223C4.01751 26.743 4.0292 26.6626 4.06101 26.5894C4.09281 26.5161 4.14353 26.4526 4.20799 26.4054L4.5034 26.1839L5.10094 25.7408V24.5658L4.89953 24.6867L4.08715 25.1701C4.08715 25.5326 4.02003 25.9086 3.97975 26.2846C3.97469 26.3429 3.95815 26.3995 3.93106 26.4514C3.90398 26.5033 3.86688 26.5492 3.82194 26.5867C3.777 26.6241 3.7251 26.6523 3.66922 26.6696C3.61333 26.6869 3.55457 26.6929 3.49633 26.6874C3.38192 26.675 3.27641 26.6199 3.20092 26.533C3.12602 26.4355 3.09231 26.3126 3.10696 26.1906L3.15392 25.734L2.76455 25.969C2.71469 26.0056 2.65772 26.0314 2.59732 26.0446C2.53692 26.0578 2.47441 26.0583 2.41382 26.0459C2.35323 26.0335 2.29591 26.0086 2.24552 25.9728C2.19514 25.9369 2.15282 25.8909 2.12128 25.8377C2.08974 25.7845 2.06968 25.7254 2.06239 25.664C2.05511 25.6025 2.06077 25.5403 2.07899 25.4812C2.09721 25.4221 2.1276 25.3675 2.1682 25.3208C2.2088 25.2742 2.25868 25.2366 2.31469 25.2104L2.70411 24.9821L2.27441 24.8075C2.22151 24.7846 2.17367 24.7515 2.13357 24.7101C2.09347 24.6686 2.06191 24.6197 2.04072 24.5661C2.01952 24.5125 2.00909 24.4552 2.01002 24.3976C2.01096 24.3399 2.02324 24.2831 2.04617 24.2302C2.06909 24.1773 2.10219 24.1294 2.14361 24.0893C2.18503 24.0492 2.23395 24.0176 2.28757 23.9964C2.34118 23.9752 2.39846 23.9648 2.45611 23.9657C2.51376 23.9667 2.57064 23.9789 2.62354 24.0019L3.65746 24.4181L4.69141 23.787L4.5034 23.6729L3.63062 23.1492C3.30835 23.2969 2.95926 23.4379 2.60342 23.5789C2.5409 23.6102 2.4719 23.6265 2.40198 23.6265C2.33205 23.6265 2.2631 23.6102 2.20057 23.5789C2.14243 23.5443 2.09327 23.4965 2.05711 23.4393C2.02094 23.3822 1.99879 23.3173 1.99245 23.2499C1.98233 23.1525 2.00531 23.0544 2.05768 22.9716C2.11005 22.8888 2.18875 22.826 2.28113 22.7934L2.70411 22.6188L2.3013 22.3771C2.2499 22.3492 2.20465 22.3112 2.16824 22.2654C2.13183 22.2196 2.10498 22.1669 2.08932 22.1106C2.07366 22.0542 2.06949 21.9953 2.07706 21.9373C2.08464 21.8793 2.10384 21.8234 2.13345 21.7729C2.19096 21.674 2.28496 21.6017 2.39526 21.5715C2.4562 21.5557 2.51971 21.5523 2.58199 21.5615C2.64427 21.5708 2.70408 21.5924 2.75783 21.6252C2.87868 21.7058 3.00624 21.7796 3.1338 21.8535L3.10024 21.5312C3.09693 21.4798 3.09693 21.4282 3.10024 21.3768C3.0947 21.3194 3.10054 21.2615 3.11749 21.2065C3.13444 21.1514 3.16213 21.1002 3.19896 21.0559C3.23578 21.0116 3.28101 20.975 3.33205 20.9483C3.38309 20.9215 3.43893 20.9051 3.49633 20.9001C3.55385 20.8936 3.61208 20.8988 3.66754 20.9154C3.72299 20.932 3.77455 20.9596 3.81907 20.9966C3.86359 21.0336 3.90018 21.0792 3.92664 21.1307C3.9531 21.1822 3.96887 21.2385 3.97303 21.2962L4.01331 21.6789C4.01331 21.9273 4.06029 22.169 4.08715 22.4174L5.09422 23.0217V21.8333C4.79881 21.6252 4.49671 21.4036 4.19459 21.1619C4.1257 21.1129 4.07253 21.045 4.04154 20.9663C4.01055 20.8876 4.00307 20.8017 4.02003 20.7188C4.0343 20.6354 4.07329 20.5581 4.13194 20.4971C4.19059 20.4361 4.2662 20.394 4.349 20.3764C4.41523 20.3611 4.48408 20.361 4.55036 20.3761C4.61665 20.3912 4.67864 20.4212 4.73169 20.4637L5.09422 20.739V20.2556C5.09766 20.1415 5.14496 20.0332 5.22625 19.9532C5.30754 19.8732 5.41657 19.8276 5.53063 19.8259C5.6447 19.8276 5.75373 19.8732 5.83502 19.9532C5.9163 20.0332 5.96356 20.1415 5.96701 20.2556V20.7457L6.34298 20.4637C6.3912 20.4268 6.4464 20.4 6.50525 20.385C6.5641 20.37 6.62538 20.3671 6.68539 20.3764C6.77023 20.3923 6.84857 20.4327 6.91081 20.4925C6.97304 20.5523 7.01645 20.629 7.03571 20.7131C7.05496 20.7973 7.04923 20.8852 7.01919 20.9661C6.98916 21.0471 6.93616 21.1174 6.86667 21.1686L5.96701 21.84V23.0149L6.16845 22.8941L6.97408 22.4107C6.97408 22.0952 7.03452 21.7729 7.0748 21.4506V21.2895C7.07981 21.2315 7.0964 21.175 7.12356 21.1235C7.15073 21.072 7.18793 21.0264 7.23298 20.9895C7.27803 20.9526 7.33001 20.9251 7.38586 20.9086C7.44172 20.8921 7.5003 20.8869 7.55818 20.8934C7.67475 20.9069 7.78124 20.966 7.85424 21.0579C7.92724 21.1498 7.96081 21.2669 7.94759 21.3835L7.90059 21.8467L8.30344 21.6051C8.35253 21.5733 8.40749 21.5517 8.4651 21.5415C8.52271 21.5314 8.58177 21.533 8.63876 21.5461C8.69575 21.5593 8.74955 21.5837 8.79689 21.6181C8.84424 21.6524 8.88418 21.6959 8.91438 21.746C8.94468 21.7962 8.96475 21.8519 8.97339 21.9098C8.98203 21.9678 8.97906 22.0269 8.9647 22.0838C8.95034 22.1406 8.92485 22.194 8.88971 22.2409C8.85456 22.2878 8.81048 22.3273 8.75997 22.357L8.37056 22.592L8.79353 22.7665C8.84643 22.7886 8.89447 22.8208 8.93491 22.8614C8.97535 22.902 9.00738 22.9502 9.0292 23.0032C9.05102 23.0562 9.06222 23.113 9.0621 23.1703C9.06198 23.2276 9.05054 23.2843 9.0285 23.3372C9.00646 23.3901 8.97425 23.4381 8.93364 23.4786C8.89303 23.519 8.84485 23.5511 8.79185 23.5729C8.73886 23.5947 8.6821 23.6059 8.62479 23.6058C8.56748 23.6056 8.51074 23.5942 8.45784 23.5722C8.10873 23.4379 7.78648 23.2969 7.42393 23.1492C7.08824 23.3641 6.75253 23.5722 6.38998 23.787L6.49742 23.8542L7.44405 24.4248C7.77303 24.2771 8.11546 24.1294 8.478 23.9884C8.57046 23.9477 8.67429 23.9409 8.77128 23.9691C8.86828 23.9974 8.95223 24.0589 9.00838 24.1429C9.06822 24.2232 9.09708 24.3224 9.08968 24.4223C9.08228 24.5222 9.03912 24.6161 8.9681 24.6867C8.91107 24.745 8.84247 24.7908 8.76669 24.821L8.37056 24.9821L8.77337 25.2171C8.8799 25.2847 8.95672 25.3903 8.98822 25.5125C9.00108 25.5671 9.00297 25.6237 8.99375 25.679C8.98453 25.7343 8.96441 25.7873 8.93454 25.8347C8.9038 25.8852 8.86311 25.929 8.81497 25.9633C8.76682 25.9975 8.71221 26.0217 8.65446 26.0343C8.5967 26.0468 8.53698 26.0475 8.47895 26.0363C8.42091 26.0251 8.36576 26.0022 8.31684 25.969L7.92075 25.734V26.0697C7.92404 26.1122 7.92404 26.1548 7.92075 26.1973C7.93398 26.3121 7.90111 26.4275 7.82937 26.5181C7.75762 26.6088 7.65286 26.6672 7.53806 26.6807C7.42134 26.6937 7.30399 26.6626 7.20909 26.5934C7.14572 26.5082 7.11263 26.4042 7.11508 26.298L7.0748 25.9153C7.0748 25.6736 7.02781 25.4252 7.00096 25.1835C6.66527 24.9776 6.32958 24.7762 5.99389 24.5793V25.7542L6.69883 26.2779L6.8868 26.4256C6.95824 26.4725 7.0138 26.5399 7.04616 26.619C7.07852 26.6981 7.08617 26.7852 7.06808 26.8687C7.05249 26.9527 7.01223 27.0301 6.95244 27.0911C6.89265 27.1521 6.81604 27.1938 6.73239 27.2111C6.66713 27.2244 6.59976 27.2235 6.53488 27.2085C6.46999 27.1934 6.40913 27.1645 6.35642 27.1238L5.99389 26.8485V27.2984C5.99756 27.3579 5.98897 27.4175 5.96869 27.4736C5.94841 27.5297 5.91685 27.581 5.87595 27.6245C5.83506 27.6679 5.78571 27.7024 5.73093 27.726C5.67616 27.7496 5.61711 27.7617 5.55747 27.7616L5.54403 27.7482ZM5.40979 26.1973V26.7075V27.2917C5.39847 27.322 5.39847 27.3553 5.40979 27.3856C5.42043 27.3901 5.43183 27.3924 5.44335 27.3924C5.45487 27.3924 5.46628 27.3901 5.47691 27.3856C5.57091 27.3856 5.57764 27.2916 5.57764 27.2581V26.5464C5.57468 26.5241 5.57468 26.5015 5.57764 26.4793V26.1973L5.98045 26.4726L6.43698 26.815C6.49069 26.8485 6.51085 26.8485 6.5377 26.815C6.5581 26.8122 6.57704 26.8028 6.59159 26.7883C6.60614 26.7737 6.61551 26.7548 6.61827 26.7344C6.61827 26.7344 6.61826 26.6673 6.56455 26.627L6.37658 26.4793L5.66492 25.9489C5.62331 25.9195 5.58977 25.8801 5.56747 25.8344C5.54517 25.7886 5.53483 25.7379 5.53735 25.687V24.069H5.71188H5.80588L5.88644 24.1227C6.28256 24.3577 6.67868 24.5927 7.06808 24.8344C7.10276 24.8566 7.13218 24.8862 7.15422 24.921C7.17625 24.9558 7.19038 24.9949 7.19564 25.0358L7.27621 25.8012L7.31649 26.1839C7.31592 26.1996 7.31933 26.2152 7.32636 26.2293C7.3334 26.2434 7.34385 26.2555 7.35677 26.2644C7.38305 26.2723 7.41105 26.2723 7.43733 26.2644C7.45068 26.262 7.46344 26.257 7.47479 26.2495C7.48613 26.2421 7.49582 26.2325 7.50335 26.2212C7.51087 26.2099 7.51605 26.1972 7.51855 26.1839C7.52105 26.1705 7.52082 26.1568 7.51789 26.1436L7.40377 25.0224L8.37728 25.5931C8.3873 25.6034 8.3993 25.6116 8.41256 25.6173C8.42583 25.6229 8.44008 25.6258 8.45448 25.6258C8.46889 25.6258 8.48314 25.6229 8.4964 25.6173C8.50967 25.6116 8.52167 25.6034 8.53169 25.5931C8.53817 25.5818 8.5416 25.5691 8.5416 25.5561C8.5416 25.5432 8.53817 25.5304 8.53169 25.5192C8.52276 25.4855 8.50112 25.4566 8.47128 25.4386L7.50449 24.8545L8.00803 24.6464L8.51157 24.445C8.54578 24.4297 8.57744 24.4094 8.60553 24.3846C8.6186 24.3671 8.62569 24.3459 8.62569 24.3241C8.62569 24.3023 8.6186 24.2811 8.60553 24.2637C8.58648 24.2485 8.56281 24.2402 8.53841 24.2402C8.514 24.2402 8.49034 24.2485 8.47128 24.2637L7.42393 24.6867C7.38107 24.7114 7.33243 24.7245 7.28293 24.7245C7.23343 24.7245 7.18479 24.7114 7.14192 24.6867L6.19529 24.1093L5.91333 23.9482L5.86632 23.9079L5.66492 23.7602L5.85288 23.6125L6.02745 23.5051L7.14192 22.8337C7.18479 22.8089 7.23343 22.7959 7.28293 22.7959C7.33243 22.7959 7.38107 22.8089 7.42393 22.8337L8.45784 23.2566C8.45784 23.2566 8.57868 23.2969 8.61225 23.2096C8.61735 23.1951 8.6193 23.1797 8.6179 23.1643C8.61651 23.149 8.61182 23.1341 8.60418 23.1208C8.59653 23.1074 8.58611 23.0958 8.57361 23.0868C8.5611 23.0778 8.5468 23.0716 8.53169 23.0687L7.51122 22.6457L8.08859 22.2899L8.47128 22.0549C8.485 22.0493 8.49733 22.0408 8.50739 22.03C8.51744 22.0191 8.52499 22.0062 8.52947 21.9921C8.53396 21.9779 8.53526 21.963 8.53332 21.9484C8.53139 21.9337 8.52627 21.9196 8.51829 21.9072C8.50827 21.8968 8.49627 21.8886 8.483 21.883C8.46974 21.8773 8.45545 21.8744 8.44104 21.8744C8.42664 21.8744 8.41239 21.8773 8.39912 21.883C8.38586 21.8886 8.37386 21.8968 8.36384 21.9072L7.44405 22.4577V22.169V22.075L7.51789 21.3633C7.52816 21.3352 7.52816 21.3043 7.51789 21.2761C7.50961 21.2662 7.49941 21.2581 7.48786 21.2523C7.47631 21.2465 7.46367 21.2432 7.45077 21.2425C7.42333 21.2406 7.3962 21.2493 7.37496 21.2667C7.35373 21.2842 7.34002 21.3092 7.33665 21.3365V21.4976C7.30308 21.8199 7.2695 22.1354 7.24265 22.4577C7.23923 22.5103 7.22268 22.5612 7.19454 22.6058C7.16639 22.6503 7.12755 22.6871 7.08152 22.7128L6.27586 23.1962L5.60448 23.5789L5.57092 23.2365V21.8535C5.56861 21.801 5.57971 21.7488 5.60321 21.7018C5.6267 21.6548 5.66182 21.6146 5.7052 21.5849L6.60483 20.9135C6.61518 20.9035 6.62342 20.8915 6.62904 20.8783C6.63467 20.865 6.63757 20.8507 6.63757 20.8363C6.63757 20.8219 6.63467 20.8077 6.62904 20.7944C6.62342 20.7811 6.61518 20.7691 6.60483 20.7591C6.5904 20.7386 6.56888 20.7243 6.54443 20.7188C6.51364 20.7106 6.48121 20.7106 6.45042 20.7188L6.06773 21.0075L5.57764 21.3566L5.54403 20.9672V20.2556C5.54403 20.2289 5.53346 20.2032 5.51457 20.1844C5.49568 20.1655 5.47006 20.1549 5.44335 20.1549C5.41664 20.1549 5.39102 20.1655 5.37213 20.1844C5.35325 20.2032 5.34263 20.2289 5.34263 20.2556V21.3902L4.443 20.7188C4.41058 20.7064 4.3747 20.7064 4.34228 20.7188C4.32133 20.723 4.30226 20.7336 4.28778 20.7493C4.2733 20.765 4.26416 20.7849 4.26171 20.8061C4.2583 20.8266 4.26091 20.8477 4.26925 20.8668C4.2776 20.8859 4.29132 20.9021 4.30872 20.9135L5.21506 21.5849C5.25569 21.6136 5.28862 21.652 5.31087 21.6965C5.33312 21.741 5.34402 21.7903 5.34263 21.84V23.2365C5.34559 23.2588 5.34559 23.2814 5.34263 23.3036V23.4849H5.12778H5.0741L3.81862 22.7263C3.78312 22.7033 3.75321 22.6727 3.73113 22.6367C3.70905 22.6007 3.69537 22.5602 3.69106 22.5181L3.6105 21.7528L3.57017 21.3768C3.56846 21.3477 3.5557 21.3204 3.53448 21.3004C3.51326 21.2804 3.48519 21.2693 3.45605 21.2694C3.42884 21.2756 3.40463 21.291 3.38749 21.313C3.37036 21.335 3.36135 21.3623 3.36205 21.3902V21.5312L3.46277 22.5114L2.86523 22.169L2.48926 21.9407C2.45673 21.9289 2.42111 21.9289 2.38858 21.9407C2.38858 21.9407 2.34828 21.9407 2.32814 21.9877C2.30799 22.0347 2.32815 22.122 2.38186 22.1422L3.30165 22.7061L2.95923 22.8874L2.28785 23.1492C2.28785 23.1492 2.20058 23.1962 2.20729 23.2566C2.2067 23.2731 2.21082 23.2895 2.21913 23.3037C2.22745 23.318 2.23964 23.3296 2.25429 23.3372C2.27099 23.3455 2.28938 23.3498 2.30802 23.3498C2.32665 23.3498 2.345 23.3455 2.3617 23.3372L3.40905 22.9075C3.4513 22.8846 3.49862 22.8726 3.54669 22.8726C3.59476 22.8726 3.64208 22.8846 3.68434 22.9075L4.55712 23.4379L4.90626 23.646L4.96666 23.6863L5.14794 23.8206L4.9801 23.9683L4.85925 23.8676L4.9331 23.9952L4.77197 24.0959L3.6709 24.7673C3.63071 24.785 3.58726 24.7942 3.54333 24.7942C3.4994 24.7942 3.45595 24.785 3.41577 24.7673L2.36842 24.3443C2.30799 24.3443 2.28115 24.3443 2.25429 24.3443C2.23911 24.353 2.22666 24.3658 2.21836 24.3812C2.21005 24.3966 2.20622 24.4141 2.20729 24.4316C2.20533 24.4537 2.21189 24.4757 2.22561 24.4932C2.23933 24.5107 2.25918 24.5222 2.28113 24.5255L3.31509 24.9485L2.36842 25.5326C2.31471 25.5662 2.26102 25.6199 2.30802 25.6938C2.35501 25.7676 2.42215 25.7408 2.47586 25.6938L3.07336 25.3312L3.1338 25.2976L3.38893 25.1701V25.4454V25.7609L3.34193 26.2376C3.3348 26.2522 3.33111 26.2683 3.33111 26.2846C3.33111 26.3009 3.3348 26.3169 3.34193 26.3316C3.35021 26.3415 3.36045 26.3496 3.372 26.3553C3.38356 26.3611 3.39615 26.3645 3.40905 26.3651C3.42354 26.3684 3.43859 26.3682 3.45298 26.3645C3.46736 26.3608 3.48069 26.3537 3.49182 26.3439C3.50296 26.3341 3.51161 26.3218 3.51707 26.3079C3.52252 26.2941 3.52463 26.2792 3.52321 26.2644C3.5635 25.8885 3.60377 25.5192 3.63734 25.1432C3.64166 25.0926 3.65791 25.0437 3.68475 25.0005C3.71158 24.9573 3.74823 24.9211 3.79174 24.8948L4.60413 24.4114L5.31579 23.9817V25.7408C5.31978 25.7961 5.3088 25.8515 5.28399 25.9011C5.25918 25.9507 5.22144 25.9927 5.17478 26.0227L4.58396 26.4658L4.28856 26.6874C4.26653 26.6977 4.24897 26.7156 4.2391 26.7378C4.22922 26.76 4.22774 26.785 4.23487 26.8083C4.23902 26.8242 4.24657 26.839 4.257 26.8518C4.26743 26.8645 4.28047 26.8749 4.29528 26.8821C4.31181 26.8909 4.33026 26.8955 4.349 26.8955C4.36773 26.8955 4.38619 26.8909 4.40272 26.8821C4.537 26.7948 4.65785 26.6941 4.78541 26.6001L5.40979 26.1973Z" fill="white"/>
</svg>
