<svg width="57" height="75" viewBox="0 0 57 75" fill="none" xmlns="http://www.w3.org/2000/svg">
<path d="M28.3174 74.6957C12.7152 74.6957 0 62.5745 0 47.6699C0 41.5782 2.1549 36.9369 6.4025 33.8566V31.4323C6.40254 29.7434 6.89715 28.0915 7.82528 26.6805L11.2786 28.9459C10.7953 29.6854 10.5363 30.5489 10.5327 31.4323V36.1081L9.55886 36.7159C5.85688 39.0366 4.13018 42.5175 4.13018 47.6768C4.13018 60.2953 14.9668 70.5586 28.3035 70.5586C41.6403 70.5586 52.477 60.2953 52.477 47.6768C52.477 42.4968 50.7364 39.0089 47.0068 36.6952L46.033 36.0874V31.4323C46.0299 30.5573 45.7759 29.7015 45.3009 28.9666L48.7542 26.7289C49.6584 28.1308 50.1381 29.7641 50.1356 31.4323V33.8289C54.4108 36.9093 56.5795 41.5644 56.5795 47.6768C56.6209 62.5745 43.9265 74.6957 28.3174 74.6957Z" fill="black"/>
<path d="M41.9926 6.07098C42.342 7.27922 42.9239 8.40766 43.7054 9.39309C44.9003 10.954 44.3547 12.8464 42.9733 14.359C42.9733 14.359 43.0838 13.0536 41.592 11.099C39.8722 8.82675 41.9926 6.07098 41.9926 6.07098Z" fill="#EE4D52"/>
<path d="M41.9926 6.07101C42.342 7.27924 42.9238 8.40769 43.7054 9.39312C44.9003 10.954 44.3546 12.8465 42.9733 14.359C42.9733 14.359 43.0838 13.0537 41.592 11.0991C39.8653 8.82677 41.9857 6.07101 41.9857 6.07101M42.8836 1.927L40.5491 4.96593C40.055 5.6354 39.6703 6.37907 39.4095 7.16917C39.1066 8.00135 39.015 8.89568 39.1427 9.772C39.2705 10.6483 39.6137 11.4792 40.1416 12.1903C40.6487 12.7829 40.9937 13.4968 41.1431 14.2623L39.9965 20.43L44.2925 15.5953C46.4267 13.2747 46.7513 10.4153 45.1282 8.29496C44.5091 7.51075 44.0407 6.61852 43.7469 5.66352L42.8766 1.93392L42.8836 1.927Z" fill="#1A1A18"/>
<path d="M20.6515 11.2095C22.1641 7.28656 23.9805 4.55841 28.6633 3.03894C28.6633 3.03894 27.3994 10.2564 30.2242 14.1449C30.3989 14.3864 30.621 14.5896 30.877 14.7422C31.1331 14.8948 31.4176 14.9935 31.7131 15.0323C32.0086 15.0711 32.3089 15.0492 32.5956 14.9679C32.8823 14.8865 33.1494 14.7475 33.3805 14.5593C35.5769 12.6807 35.494 7.65262 35.494 7.65262C35.494 7.65262 41.3992 10.1321 41.3094 18.2475C41.3165 18.4077 41.3755 18.5613 41.4776 18.685C41.5797 18.8088 41.7193 18.8959 41.8752 18.9334C42.0312 18.9708 42.1951 18.9565 42.3422 18.8926C42.4894 18.8286 42.6117 18.7185 42.6907 18.579C43.1249 17.8195 43.3017 16.9401 43.1949 16.0719C43.1949 16.0719 50.3779 19.9396 47.0281 27.8615L9.55943 27.827C9.55943 27.827 7.30094 19.7048 13.3926 14.5247C13.3926 14.5247 13.1302 18.579 14.4632 19.8912C14.6707 20.0845 14.9157 20.2332 15.183 20.3279C15.4503 20.4227 15.7343 20.4615 16.0172 20.4421C16.3001 20.4227 16.5761 20.3454 16.8279 20.215C17.0798 20.0846 17.3022 19.9039 17.4814 19.684C19.505 17.2253 18.9663 15.5677 20.6515 11.2095Z" fill="#F65B5A"/>
<path d="M28.6628 3.02513C28.6628 3.02513 27.3989 10.2426 30.2237 14.1311C30.4279 14.4143 30.6967 14.6447 31.0078 14.8033C31.3189 14.9618 31.6633 15.0439 32.0125 15.0427C32.5174 15.0462 33.007 14.8699 33.3938 14.5455C35.5902 12.6668 35.5073 7.63878 35.5073 7.63878C35.5073 7.63878 41.4125 10.1183 41.3227 18.2336C41.3171 18.3277 41.3307 18.422 41.3629 18.5107C41.3951 18.5993 41.4451 18.6804 41.5098 18.749C41.5745 18.8176 41.6525 18.8722 41.7391 18.9095C41.8258 18.9468 41.9191 18.9659 42.0134 18.9657C42.1538 18.9666 42.2918 18.9299 42.4133 18.8595C42.5347 18.789 42.6351 18.6874 42.7041 18.5651C43.1382 17.8057 43.3151 16.9262 43.2082 16.058C43.2082 16.058 50.3912 19.9258 47.0414 27.8477L9.57273 27.8132C9.57273 27.8132 7.31424 19.6909 13.4059 14.5109C13.4059 14.5109 13.1435 18.5651 14.4765 19.8774C14.8454 20.2384 15.3417 20.4394 15.8578 20.4368C16.1693 20.4375 16.477 20.3691 16.7589 20.2365C17.0407 20.104 17.2897 19.9106 17.4878 19.6702C19.4976 17.2322 18.9589 15.5745 20.6441 11.2164C22.1567 7.29344 23.9731 4.56531 28.6559 3.04585M31.2873 0.0207192L28.0136 1.07744C22.6333 2.81792 20.4162 6.09168 18.7103 10.4636C18.1596 11.9011 17.7118 13.376 17.3704 14.877C16.9836 16.4586 16.7902 17.2529 15.8924 18.3303C15.5954 17.8538 15.3812 16.0857 15.4779 14.6214L15.7887 9.75222L12.066 12.9086C5.04885 18.8829 7.46618 27.9651 7.57669 28.345L7.99803 29.8645H9.57273L47.0414 29.899H48.4228L48.9615 28.6351C52.1869 20.9894 47.2555 15.8577 44.1959 14.2139L42.7524 13.4335C42.279 11.7659 41.46 10.2166 40.3486 8.8863C39.2372 7.55597 37.8583 6.47439 36.3016 5.71183L33.3731 4.48243L33.4284 7.65261C33.4284 9.2964 33.0209 12.1281 32.0471 12.9638C32.023 12.9658 31.9988 12.9625 31.9761 12.9542C31.9534 12.9458 31.9329 12.9326 31.9158 12.9155C30.0234 10.3048 30.4102 5.15238 30.721 3.38427L31.315 0L31.2873 0.0207192Z" fill="#1A1A18"/>
<path d="M25.5276 25.4718C25.5276 25.4718 20.2923 16.7349 27.2887 10.1183C27.2887 10.1183 25.4792 17.9159 30.7076 20.3264C35.0588 22.3431 38.9956 18.6273 38.5674 17.5637C38.5674 17.5637 41.1712 20.9687 38.3049 26.715" fill="#FAADAC"/>
<path d="M19.8429 25.9001C19.3687 24.2694 19.2816 22.5506 19.5885 20.8804C19.8955 19.2101 20.588 17.6346 21.611 16.2791C21.611 16.2791 22.1359 22.4951 28.5177 23.5656" fill="#FAADAC"/>
<path d="M31.3843 22.8818C30.376 22.8473 29.3123 22.8266 28.297 22.8266C22.0189 22.8266 16.3071 23.4551 12.0387 25.5893C10.9636 26.1385 10.0622 26.9757 9.43536 28.0075C8.80848 29.0393 8.48072 30.225 8.48869 31.4323V39.8584C8.48778 40.7216 8.65703 41.5764 8.98671 42.3741C9.31639 43.1718 9.80006 43.8967 10.4101 44.5074C11.0201 45.118 11.7445 45.6025 12.5418 45.933C13.3392 46.2635 14.1938 46.4336 15.0569 46.4336H41.5302C43.2741 46.4336 44.9465 45.7409 46.1796 44.5078C47.4126 43.2747 48.1054 41.6023 48.1054 39.8584V31.4323C48.1134 30.225 47.7856 29.0393 47.1587 28.0075C46.5319 26.9757 45.6305 26.1385 44.5554 25.5893C40.9915 23.8143 36.4331 23.0821 31.3843 22.8888" fill="white"/>
<path d="M54.5492 47.6699C54.5492 61.4832 42.8078 72.6237 28.3038 72.6237C13.7998 72.6237 2.05846 61.4556 2.05846 47.6699C2.05846 33.8842 13.7998 31.0939 28.3038 31.0939C42.8078 31.0939 54.5492 33.8911 54.5492 47.6699Z" fill="white"/>
<mask id="mask0_250_4100" style="mask-type:luminance" maskUnits="userSpaceOnUse" x="2" y="31" width="53" height="42">
<path d="M54.5485 47.6699C54.5485 61.4832 42.8071 72.6237 28.3031 72.6237C13.7991 72.6237 2.05776 61.4556 2.05776 47.6699C2.05776 33.8842 13.7991 31.0939 28.3031 31.0939C42.8071 31.0939 54.5485 33.8911 54.5485 47.6699Z" fill="white"/>
</mask>
<g mask="url(#mask0_250_4100)">
<path d="M54.5495 38.0074C54.5495 52.0417 42.8081 46.4266 28.3041 46.4266C13.8001 46.4266 2.05871 51.8484 2.05871 38.0074C2.05871 32.2679 13.8001 31.1007 28.3041 31.1007C42.8081 31.1007 54.5495 32.2679 54.5495 38.0074Z" fill="#F65B5A"/>
<path d="M0.731729 44.0922C-0.311179 46.5372 -5.36687 61.5178 6.25707 61.5178C19.2969 61.5178 28.4897 49.514 28.4897 49.514L28.4068 47.5939C28.4068 45.4735 25.9964 43.7538 23.0196 43.7538C19.6215 43.7538 18.0191 45.8258 15.5466 47.1173C13.074 48.4089 10.4978 50.5707 7.31381 47.9807C4.55114 45.6738 0.269002 40.3281 1.78847 39.7479" fill="#E3E3E3"/>
<path d="M13.302 68.8665C16.5527 67.6185 19.5381 65.7672 22.1011 63.4102C22.1011 63.4102 21.4864 66.4353 17.7775 71.6982L13.302 68.8665Z" fill="#E3E3E3"/>
<path d="M28.2964 63.8937C28.1099 64.4393 25.9758 70.8003 25.6788 74.675H30.9071C30.6171 70.8142 28.4829 64.4393 28.2964 63.8937Z" fill="#E3E3E3"/>
<path d="M43.2904 68.8665C40.0388 67.6204 37.053 65.769 34.4913 63.4102C34.4913 63.4102 35.0991 66.4353 38.808 71.6982L43.2904 68.8665Z" fill="#E3E3E3"/>
<path d="M55.8333 44.0922C56.8762 46.5372 61.925 61.5178 50.308 61.5178C37.2682 61.5178 28.0754 49.514 28.0754 49.514L28.1583 47.5939C28.1583 45.4735 30.5687 43.7538 33.5386 43.7538C36.9435 43.7538 38.5459 45.8258 41.0185 47.1173C43.4911 48.4089 46.0604 50.5707 49.2512 47.9807C52.0139 45.6738 56.296 40.3281 54.7766 39.7479" fill="#E3E3E3"/>
<path d="M19.6775 47.7458C21.6459 51.586 24.7677 54.0793 28.297 54.0793C31.8263 54.0793 34.9482 51.586 36.9097 47.7458H19.6775Z" fill="#1A1A18"/>
<mask id="mask1_250_4100" style="mask-type:luminance" maskUnits="userSpaceOnUse" x="19" y="47" width="18" height="8">
<path d="M19.6763 47.7458C21.6447 51.5859 24.7665 54.0792 28.2958 54.0792C31.8252 54.0792 34.947 51.5859 36.9085 47.7458H19.6763Z" fill="white"/>
</mask>
<g mask="url(#mask1_250_4100)">
<path d="M34.9061 57.6638C33.3936 54.2726 31.0038 52.0694 28.2964 52.0694C25.589 52.0694 23.1924 54.2726 21.6868 57.6638H34.9061Z" fill="#F65B5A"/>
</g>
<path d="M38.415 40.8875C38.6846 40.7684 38.9643 40.6736 39.2507 40.6043C39.1182 39.9296 38.7652 39.3181 38.2473 38.866C37.7294 38.4138 37.076 38.1465 36.3896 38.1062C35.7033 38.0658 35.023 38.2548 34.4557 38.6432C33.8884 39.0316 33.4663 39.5975 33.2557 40.252C32.862 41.4676 33.8082 41.7784 34.0361 41.0739C34.2263 40.4817 34.6436 39.9892 35.1965 39.7043C35.7494 39.4194 36.3927 39.3655 36.9853 39.5545C37.3067 39.6584 37.6013 39.8317 37.8483 40.062C38.0953 40.2924 38.2888 40.5741 38.415 40.8875Z" fill="#1A1A18"/>
<path d="M33.614 41.8752C33.5003 41.8728 33.3882 41.8471 33.2849 41.7995C33.1815 41.752 33.089 41.6837 33.0132 41.5989C32.8599 41.388 32.7641 41.1409 32.7351 40.8818C32.706 40.6227 32.7447 40.3605 32.8474 40.1209C33.0867 39.3755 33.5671 38.7309 34.2128 38.2885C34.8586 37.846 35.6331 37.6308 36.4146 37.6767C37.196 37.7225 37.94 38.0269 38.5296 38.5419C39.1191 39.0569 39.5207 39.7533 39.6712 40.5214L39.7472 40.922L39.3535 41.0187C39.091 41.0846 38.8346 41.1724 38.5869 41.2812L38.1863 41.4469L38.0205 41.0463C37.9157 40.7921 37.7571 40.5636 37.5556 40.3764C37.3541 40.1892 37.1145 40.0479 36.8533 39.962C36.3679 39.8084 35.8416 39.8531 35.3891 40.0863C35.1651 40.2009 34.9661 40.3588 34.8037 40.5508C34.6413 40.7429 34.5186 40.9653 34.4429 41.2052C34.3956 41.3649 34.3068 41.5093 34.1854 41.6233C34.064 41.7374 33.9145 41.8172 33.7522 41.8544L33.614 41.8752ZM36.2179 38.5185C35.6489 38.5169 35.0942 38.6968 34.6346 39.0322C34.175 39.3676 33.8344 39.841 33.6624 40.3833C33.5851 40.5715 33.5682 40.7791 33.614 40.9773C33.6177 40.9661 33.6177 40.954 33.614 40.9427C33.7752 40.4377 34.0783 39.9896 34.4871 39.6521C34.8959 39.3145 35.3933 39.1017 35.9197 39.0391C36.4462 38.9765 36.9795 39.0667 37.4561 39.2989C37.9327 39.5311 38.3325 39.8956 38.6076 40.3488L38.7181 40.3073C38.5822 39.9186 38.358 39.5666 38.0632 39.279C37.7684 38.9914 37.411 38.776 37.019 38.6497C36.7606 38.5639 36.4902 38.5196 36.2179 38.5185Z" fill="#1A1A18"/>
<path d="M18.1786 40.8875C17.909 40.7684 17.6294 40.6736 17.3429 40.6043C17.4754 39.9296 17.8284 39.3181 18.3463 38.866C18.8642 38.4138 19.5176 38.1465 20.204 38.1062C20.8903 38.0658 21.5706 38.2548 22.1379 38.6432C22.7052 39.0316 23.1273 39.5975 23.3379 40.252C23.7247 41.4676 22.7785 41.7784 22.5575 41.0739C22.3658 40.4828 21.9482 39.9914 21.3958 39.7068C20.8434 39.4222 20.2009 39.3674 19.6083 39.5545C19.2863 39.6572 18.991 39.83 18.7438 40.0605C18.4966 40.291 18.3036 40.5734 18.1786 40.8875Z" fill="#1A1A18"/>
<path d="M22.9714 41.8752H22.8057C22.6427 41.8393 22.4925 41.76 22.3709 41.6457C22.2493 41.5314 22.1609 41.3864 22.115 41.226C21.9974 40.8532 21.768 40.5257 21.458 40.2877C21.1479 40.0497 20.7722 39.9127 20.3817 39.8954C19.9913 39.8781 19.6049 39.9812 19.275 40.1908C18.9451 40.4003 18.6876 40.7063 18.5374 41.0671L18.3716 41.4677L17.971 41.3019C17.7233 41.1932 17.4668 41.1054 17.2044 41.0395L16.8107 40.9428L16.8867 40.5422C17.0372 39.774 17.4388 39.0776 18.0283 38.5626C18.6179 38.0477 19.3619 37.7433 20.1433 37.6974C20.9248 37.6515 21.6993 37.8668 22.345 38.3092C22.9908 38.7517 23.4711 39.3963 23.7105 40.1416C23.8132 40.3812 23.8519 40.6434 23.8228 40.9025C23.7938 41.1616 23.6979 41.4087 23.5447 41.6196C23.3941 41.7761 23.1885 41.8677 22.9714 41.8752ZM20.3262 39.0158C20.7662 39.0173 21.1996 39.1238 21.5901 39.3266C21.9157 39.4914 22.2054 39.7191 22.4424 39.9965C22.6795 40.2739 22.8593 40.5955 22.9714 40.9428C22.9771 40.9738 22.9915 41.0025 23.0129 41.0257C23.0279 40.8087 23.0022 40.5908 22.9369 40.3833C22.7672 39.849 22.4337 39.3816 21.9838 39.0472C21.5338 38.7128 20.9901 38.5284 20.4295 38.52C19.8689 38.5116 19.3199 38.6796 18.8602 39.0004C18.4004 39.3212 18.0531 39.7784 17.8674 40.3074L17.9779 40.3488C18.3163 39.7794 18.8521 39.3541 19.4836 39.154C19.7556 39.0645 20.0398 39.0179 20.3262 39.0158Z" fill="#1A1A18"/>
<path d="M53.5686 41.44C54.5217 43.9333 55.1088 55.3639 44.4863 55.3639C41.3783 55.364 38.3074 54.689 35.4859 53.3856C32.6644 52.0822 30.1598 50.1815 28.1451 47.8149L28.2142 45.0039C28.2142 42.849 30.4312 41.0947 33.1525 41.0947C36.2743 41.0947 37.7454 43.2012 40.0177 44.548C42.29 45.8948 44.2929 47.6629 47.5598 45.4252C49.8182 43.8781 46.2682 35.9285 45.2184 33.4835L50.7438 35.3829L53.5686 41.44Z" fill="white"/>
<path d="M3.01813 41.44C2.06501 43.9333 1.48483 55.3639 12.1073 55.3639C15.2151 55.3631 18.2858 54.6877 21.1071 53.3843C23.9285 52.081 26.4333 50.1808 28.4485 47.8149L28.3725 45.0039C28.3725 42.849 26.1624 41.0947 23.4343 41.0947C20.3124 41.0947 18.8482 43.2012 16.5759 44.548C14.3036 45.8948 11.907 48.1464 9.02694 45.4252C6.49219 43.0286 9.19268 38.0557 11.3752 33.4835L5.84985 35.3829L3.01813 41.44Z" fill="white"/>
</g>
<path d="M24.7807 36.3015C23.1215 35.311 21.1756 34.9118 19.2604 35.1689C17.3452 35.426 15.5735 36.3243 14.2342 37.7174C14.0835 36.1713 14.5081 34.6239 15.4269 33.3713C16.3456 32.1187 17.694 31.2488 19.214 30.9281C20.3772 30.6747 21.5808 30.6698 22.746 30.9138C23.9112 31.1578 25.0118 31.6452 25.9756 32.344L24.7807 36.3015Z" fill="white"/>
<path d="M31.8121 36.3015C33.4725 35.3105 35.4195 34.911 37.3359 35.1681C39.2523 35.4252 41.0252 36.3238 42.3656 37.7174C42.5163 36.1713 42.0917 34.6239 41.1729 33.3713C40.2542 32.1187 38.9058 31.2488 37.3858 30.9281C36.2226 30.6747 35.019 30.6698 33.8538 30.9138C32.6886 31.1578 31.588 31.6452 30.6242 32.344L31.8121 36.3015Z" fill="white"/>
<path d="M41.9926 6.07098C42.342 7.27922 42.9239 8.40766 43.7054 9.39309C44.9003 10.954 44.3547 12.8464 42.9733 14.359C42.9733 14.359 43.0838 13.0536 41.592 11.099C39.8722 8.82675 41.9926 6.07098 41.9926 6.07098Z" fill="#F65B5A"/>
</svg>
