<svg width="57" height="65" viewBox="0 0 57 65" fill="none" xmlns="http://www.w3.org/2000/svg">
<path d="M29.049 64.8851C13.8758 64.8851 1.52242 53.1024 1.52242 38.614C1.43011 35.4099 2.21975 32.2421 3.80513 29.4563C2.66688 29.0923 1.67907 28.3657 0.992661 27.3874C0.306248 26.4092 -0.0410397 25.2331 0.00386631 24.0389C0.0487724 22.8447 0.483414 21.6981 1.24136 20.7742C1.9993 19.8502 3.03885 19.1998 4.20122 18.9223C7.28286 8.14669 17.4878 0.472801 29.0423 0.472801C33.8402 0.465487 38.4751 2.21311 42.0738 5.38635C45.6724 8.55959 47.9863 12.9394 48.5795 17.7004C49.702 19.1668 50.3086 20.963 50.305 22.8097V25.1393C54.4675 28.1337 56.5756 32.6588 56.5756 38.6005C56.5622 53.1023 44.2222 64.8851 29.049 64.8851ZM15.7624 9.91913L14.0638 15.4177C13.7384 16.4793 13.5312 17.5736 13.4461 18.6807L13.3924 19.352L12.9292 19.8623C12.1927 20.6669 11.7854 21.7189 11.7879 22.8097V27.3549L10.8412 27.9457C7.24259 30.2015 5.56415 33.5853 5.56415 38.6005C5.56415 50.8666 16.0981 60.8434 29.0625 60.8434C42.0268 60.8434 52.5608 50.8666 52.5608 38.6005C52.5608 33.5652 50.8689 30.1747 47.2435 27.9256L46.2901 27.3347V22.8097C46.2924 21.7201 45.8878 20.669 45.1554 19.8623L44.6922 19.352L44.6385 18.6807C44.2811 14.7993 42.4833 11.1923 39.5991 8.57037C36.715 5.9484 32.9536 4.50146 29.0557 4.51453C25.8437 4.51621 22.6709 5.21945 19.7589 6.5751C16.847 7.93074 14.2664 9.90608 12.1974 12.363L15.7624 9.91913ZM5.41642 22.8164C5.13346 22.8269 4.85985 22.9204 4.62965 23.0853C4.39944 23.2502 4.22283 23.4791 4.12177 23.7436C4.02071 24.0082 3.99967 24.2966 4.06129 24.5729C4.1229 24.8493 4.26443 25.1015 4.46828 25.298C4.67212 25.4945 4.92928 25.6268 5.20772 25.6782C5.48616 25.7297 5.7736 25.6982 6.03424 25.5875C6.29489 25.4769 6.51722 25.292 6.67358 25.0559C6.82994 24.8198 6.91343 24.543 6.91363 24.2598C6.91126 23.9414 6.80313 23.6327 6.60625 23.3823C6.40938 23.132 6.13493 22.9542 5.82599 22.8768L5.60443 22.8432L5.41642 22.8164Z" fill="black"/>
<path d="M29.0287 37.2645C38.7769 37.2645 46.6793 29.4823 46.6793 19.8824C46.6793 10.2826 38.7769 2.50037 29.0287 2.50037C19.2806 2.50037 11.3781 10.2826 11.3781 19.8824C11.3781 29.4823 19.2806 37.2645 29.0287 37.2645Z" fill="#F65B5A"/>
<path d="M48.2767 22.8231C48.2852 21.6493 47.9669 20.4964 47.3574 19.4933C46.748 18.4902 45.8714 17.6765 44.8258 17.1432C40.6766 15.0753 35.1243 14.4577 29.0282 14.4577C22.9321 14.4577 17.373 15.0686 13.2239 17.1432C12.1787 17.6771 11.3026 18.4909 10.6932 19.4939C10.0839 20.4969 9.76525 21.6495 9.773 22.8231V31.0139C9.77211 31.853 9.93659 32.6839 10.2571 33.4594C10.5775 34.2348 11.0477 34.9394 11.6407 35.533C12.2337 36.1266 12.9378 36.5975 13.7129 36.9188C14.488 37.2401 15.3188 37.4055 16.1578 37.4055H41.8918C42.7309 37.4055 43.5617 37.2401 44.3368 36.9188C45.1118 36.5975 45.816 36.1266 46.409 35.533C47.0019 34.9394 47.4721 34.2348 47.7926 33.4594C48.1131 32.6839 48.2775 31.853 48.2767 31.0139V22.8231Z" fill="white"/>
<path d="M54.548 38.6139C54.548 52.0415 43.1346 62.8709 29.0356 62.8709C14.9366 62.8709 3.5231 52.0147 3.5231 38.6139C3.5231 25.2132 14.9366 22.5008 29.0356 22.5008C43.1346 22.5008 54.548 25.2199 54.548 38.6139Z" fill="white"/>
<mask id="mask0_250_4068" style="mask-type:luminance" maskUnits="userSpaceOnUse" x="3" y="22" width="52" height="41">
<path d="M54.5487 38.6139C54.5487 52.0415 43.1353 62.8709 29.0363 62.8709C14.9373 62.8709 3.5238 52.0147 3.5238 38.6139C3.5238 25.2132 14.9373 22.5008 29.0363 22.5008C43.1353 22.5008 54.5487 25.2199 54.5487 38.6139Z" fill="white"/>
</mask>
<g mask="url(#mask0_250_4068)">
<path d="M54.5488 29.2213C54.5488 42.8638 43.1353 37.4054 29.0363 37.4054C14.9373 37.4054 3.52383 42.6758 3.52383 29.2213C3.52383 23.6421 14.9373 22.5075 29.0363 22.5075C43.1353 22.5075 54.5488 23.6421 54.5488 29.2213Z" fill="#8CC4F8"/>
<path d="M2.25433 35.1362C1.24726 37.5129 -3.66724 52.0751 7.62538 52.0751C20.301 52.0751 29.2304 40.4065 29.2304 40.4065L29.1566 38.5401C29.1566 36.4789 26.8135 34.8072 23.9198 34.8072C20.6099 34.8072 19.059 36.8213 16.6487 38.0768C14.2385 39.3323 11.7476 41.4337 8.65257 38.9161C5.96705 36.6736 1.80449 31.4772 3.28153 30.9132" fill="#E3E3E3"/>
<path d="M14.4534 59.2186C17.6133 58.0054 20.5153 56.2059 23.0068 53.9147C23.0068 53.9147 22.4092 56.8553 18.8039 61.9712L14.4534 59.2186Z" fill="#E3E3E3"/>
<path d="M29.0291 54.3846C28.8478 54.915 26.7733 61.0984 26.4846 64.8649H31.5669C31.2849 61.1119 29.2037 54.915 29.0291 54.3846Z" fill="#E3E3E3"/>
<path d="M43.5976 59.2186C40.4377 58.0054 37.5356 56.2059 35.0442 53.9147C35.0442 53.9147 35.6418 56.8553 39.2471 61.9712L43.5976 59.2186Z" fill="#E3E3E3"/>
<path d="M55.7966 35.1362C56.8036 37.5129 61.7181 52.0751 50.4255 52.0751C37.7431 52.0751 28.8138 40.4065 28.8138 40.4065L28.8943 38.5401C28.8943 36.4789 31.2374 34.8072 34.1244 34.8072C37.4343 34.8072 38.9852 36.8213 41.3954 38.0768C43.8057 39.3323 46.2965 41.4337 49.3983 38.9161C52.0838 36.6736 56.2464 31.4772 54.7693 30.9132" fill="#E3E3E3"/>
<path d="M20.6504 35.9485C22.5638 39.6814 25.5985 42.1118 29.0292 42.1118C32.46 42.1118 35.4879 39.6814 37.4013 35.9485H20.6504Z" fill="#1A1A18"/>
<path d="M38.8644 32.021C39.1265 31.9053 39.3984 31.8132 39.6768 31.7457C39.548 31.0899 39.2049 30.4955 38.7015 30.056C38.1981 29.6164 37.5628 29.3566 36.8956 29.3174C36.2285 29.2782 35.5671 29.4618 35.0157 29.8394C34.4642 30.217 34.0539 30.7671 33.8492 31.4033C33.4665 32.585 34.3863 32.8871 34.6079 32.2023C34.7927 31.6266 35.1983 31.1478 35.7358 30.8709C36.2733 30.594 36.8986 30.5416 37.4747 30.7252C37.787 30.8263 38.0734 30.9947 38.3136 31.2186C38.5537 31.4425 38.7418 31.7164 38.8644 32.021Z" fill="#1A1A18"/>
<path d="M34.1986 32.9811C34.088 32.9788 33.9791 32.9538 33.8786 32.9076C33.7781 32.8614 33.6882 32.795 33.6145 32.7126C33.4636 32.5084 33.3693 32.2681 33.3411 32.0158C33.3128 31.7636 33.3515 31.5083 33.4533 31.2758C33.5906 30.8462 33.8112 30.4479 34.1025 30.1037C34.3938 29.7595 34.7502 29.4761 35.1511 29.2697C35.5521 29.0633 35.9898 28.9379 36.4392 28.9008C36.8886 28.8638 37.3409 28.9156 37.7703 29.0535C38.3544 29.2424 38.8773 29.5842 39.2846 30.0435C39.692 30.5027 39.9689 31.0627 40.0866 31.6652L40.1604 32.0546L39.7778 32.1486C39.5223 32.2115 39.2729 32.2969 39.0325 32.4037L38.6431 32.5649L38.482 32.1754C38.385 31.9381 38.2396 31.7237 38.0549 31.5458C37.8702 31.368 37.6503 31.2308 37.4095 31.1429C37.1686 31.055 36.9121 31.0185 36.6562 31.0356C36.4004 31.0527 36.151 31.1231 35.924 31.2422C35.7056 31.3527 35.5117 31.5058 35.3537 31.6927C35.1957 31.8795 35.0768 32.0962 35.0042 32.3299C34.9583 32.4851 34.872 32.6254 34.754 32.7363C34.636 32.8472 34.4907 32.9247 34.3328 32.961L34.1986 32.9811ZM36.723 29.7182C36.3097 29.7198 35.9026 29.8187 35.5346 30.0069C35.2288 30.1619 34.9571 30.3766 34.7357 30.6384C34.5143 30.9001 34.3476 31.2036 34.2456 31.5309C34.1704 31.7139 34.154 31.9156 34.1986 32.1083C34.1986 32.1083 34.1986 32.1083 34.1986 32.0747C34.3552 31.5838 34.6498 31.1482 35.0472 30.8201C35.4447 30.492 35.9281 30.2851 36.4398 30.2243C36.9516 30.1634 37.4701 30.251 37.9334 30.4768C38.3967 30.7025 38.7852 31.0568 39.0527 31.4974L39.1601 31.4571C39.0266 31.0799 38.8082 30.7385 38.5219 30.4591C38.2355 30.1798 37.8888 29.9699 37.5085 29.8457C37.2551 29.7619 36.9899 29.7188 36.723 29.7182Z" fill="#1A1A18"/>
<path d="M19.1993 32.021C18.938 31.9033 18.666 31.8111 18.3869 31.7458C18.5133 31.0871 18.8557 30.4894 19.3599 30.0472C19.8641 29.605 20.5013 29.3436 21.1708 29.3043C21.8403 29.265 22.5038 29.4501 23.0563 29.8303C23.6088 30.2105 24.0187 30.764 24.2212 31.4033C24.5972 32.585 23.6774 32.8871 23.4626 32.2023C23.2762 31.6277 22.8704 31.15 22.3334 30.8733C21.7964 30.5967 21.1719 30.5435 20.5958 30.7253C20.2824 30.8259 19.9949 30.9941 19.7536 31.218C19.5123 31.4419 19.3231 31.716 19.1993 32.021Z" fill="#1A1A18"/>
<path d="M23.8526 32.9811C23.6645 32.9712 23.4848 32.9004 23.3406 32.7792C23.1965 32.6581 23.0957 32.4932 23.0536 32.3097C22.9012 31.8401 22.5695 31.4497 22.1307 31.2234C21.6919 30.9971 21.1815 30.9532 20.7105 31.1012C20.4561 31.1839 20.2229 31.321 20.0269 31.503C19.8309 31.6851 19.677 31.9076 19.5759 32.1553L19.408 32.5447L19.0254 32.3835C18.7845 32.2778 18.5352 32.1925 18.2801 32.1284L17.8907 32.0344L17.9713 31.645C18.1176 30.8983 18.508 30.2214 19.081 29.7207C19.6541 29.2201 20.3774 28.9243 21.137 28.8797C21.8967 28.8351 22.6495 29.0443 23.2773 29.4744C23.905 29.9045 24.3719 30.5311 24.6045 31.2556C24.8999 32.1888 24.5441 32.7729 24.0876 32.9206C24.0133 32.954 23.9338 32.9744 23.8526 32.9811ZM21.2946 30.1881C21.8646 30.1885 22.4197 30.3702 22.8795 30.7069C23.3394 31.0437 23.6802 31.518 23.8526 32.0613C23.8619 32.0913 23.878 32.1189 23.8996 32.1418C23.9097 31.9311 23.8847 31.7201 23.8257 31.5175C23.6608 30.9981 23.3366 30.5437 22.8992 30.2186C22.4618 29.8936 21.9332 29.7143 21.3883 29.7061C20.8434 29.698 20.3098 29.8613 19.8628 30.1731C19.4159 30.4849 19.0783 30.9294 18.8978 31.4436L19.0052 31.4839C19.3341 30.9303 19.855 30.517 20.4688 30.3224C20.7318 30.2407 21.0058 30.1999 21.2812 30.2015L21.2946 30.1881Z" fill="#1A1A18"/>
<path d="M53.5942 32.5581C54.5207 34.9818 55.0914 46.0931 44.7656 46.0931C41.7444 46.0933 38.7592 45.4372 36.0165 44.1701C33.2738 42.9031 30.8391 41.0555 28.8807 38.7549L28.9479 36.0224C28.9479 33.9277 31.0963 32.2224 33.7482 32.2224C36.7829 32.2224 38.2062 34.2701 40.415 35.5793C42.6239 36.8885 44.5776 38.6072 47.7532 36.432C49.9487 34.9281 46.4978 27.2005 45.4773 24.8238L50.8483 26.6701L53.5942 32.5581Z" fill="white"/>
<path d="M4.42889 32.5581C3.50239 34.9818 2.93169 46.0931 13.2642 46.0931C16.2853 46.0924 19.2702 45.4358 22.0128 44.1689C24.7553 42.9019 27.1902 41.0548 29.1491 38.7549L29.0753 36.0224C29.0753 33.9277 26.9269 32.2224 24.2749 32.2224C21.2403 32.2224 19.8169 34.2701 17.6081 35.5793C15.3993 36.8885 13.0696 39.0772 10.2699 36.432C7.80594 34.1023 10.431 29.2683 12.5526 24.8238L7.18154 26.6701L4.42889 32.5581Z" fill="white"/>
</g>
<mask id="mask1_250_4068" style="mask-type:luminance" maskUnits="userSpaceOnUse" x="11" y="2" width="36" height="36">
<path d="M29.0292 37.2644C38.7773 37.2644 46.6798 29.4822 46.6798 19.8824C46.6798 10.2825 38.7773 2.50034 29.0292 2.50034C19.281 2.50034 11.3786 10.2825 11.3786 19.8824C11.3786 29.4822 19.281 37.2644 29.0292 37.2644Z" fill="white"/>
</mask>
<g mask="url(#mask1_250_4068)">
<g style="mix-blend-mode:multiply">
<path d="M25.3229 10.0668C25.3229 10.0668 12.8688 14.7664 10.143 20.4799L10.237 13.8601C10.237 13.8601 15.5879 9.31482 25.3229 10.0668Z" fill="#D1D2D2"/>
</g>
</g>
<path d="M28.794 10.0333C39.8382 10.0333 34.4739 2.50037 29.029 2.50037C17.0986 2.50037 7.00771 11.2753 5.47025 22.6418C8.45789 15.3573 17.7431 10.0333 28.794 10.0333Z" fill="#F65B5A"/>
<path d="M25.6111 27.563C23.9981 26.6002 22.1066 26.2121 20.2449 26.462C18.3832 26.712 16.661 27.5852 15.3591 28.9393C15.3591 28.9393 14.7481 23.7026 20.193 22.3397C21.3248 22.0928 22.496 22.0878 23.6298 22.3249C24.7637 22.5621 25.8347 23.0362 26.7726 23.716L25.6111 27.563Z" fill="white"/>
<path d="M32.4392 27.563C34.0528 26.5985 35.9458 26.2094 37.809 26.4594C39.6722 26.7094 41.3956 27.5836 42.698 28.9393C42.698 28.9393 43.3089 23.7026 37.864 22.3397C36.7322 22.0936 35.5612 22.089 34.4275 22.3262C33.2938 22.5634 32.2228 23.0369 31.2845 23.716L32.4392 27.563Z" fill="white"/>
<path d="M3.08645 25.428L2.35463 25.1326C2.30261 25.1147 2.25735 25.0813 2.22494 25.0369C2.19252 24.9925 2.17453 24.9392 2.17339 24.8842C2.16954 24.8359 2.17948 24.7876 2.20207 24.7448C2.22466 24.702 2.25895 24.6665 2.30095 24.6425C2.34199 24.6195 2.38822 24.6075 2.43523 24.6075C2.48224 24.6075 2.52844 24.6195 2.56948 24.6425L3.61015 25.0587C3.64469 25.0722 3.68301 25.0722 3.71755 25.0587L4.97975 24.3001H5.02003L4.95959 24.2598L3.73099 23.5213C3.71287 23.51 3.69192 23.504 3.67055 23.504C3.64919 23.504 3.62827 23.51 3.61015 23.5213L2.55608 23.9509C2.4893 23.9777 2.41463 23.9768 2.34852 23.9484C2.28242 23.9201 2.2303 23.8667 2.20359 23.7999C2.17688 23.7331 2.1778 23.6585 2.20613 23.5924C2.23446 23.5263 2.28786 23.4741 2.35463 23.4474L3.02601 23.1856L3.10661 23.1453L3.01933 23.0916L2.42179 22.7357C2.36036 22.6984 2.31631 22.6381 2.29931 22.5682C2.28231 22.4983 2.29376 22.4246 2.33115 22.3631C2.36854 22.3017 2.42879 22.2577 2.49867 22.2407C2.56855 22.2237 2.64233 22.2351 2.70376 22.2725L3.30802 22.635L3.38858 22.682C3.38858 22.4739 3.34828 22.2859 3.32814 22.0979C3.32814 22.0241 3.32814 21.9502 3.32814 21.8764C3.32058 21.8044 3.34174 21.7322 3.38698 21.6757C3.43223 21.6191 3.4979 21.5827 3.56983 21.5743C3.60618 21.5706 3.64292 21.5743 3.67776 21.5853C3.71261 21.5963 3.74485 21.6143 3.7725 21.6382C3.80016 21.6621 3.82265 21.6914 3.8386 21.7242C3.85455 21.7571 3.8636 21.7929 3.86524 21.8294L3.98612 22.9775C3.98784 22.9934 3.9929 23.0089 4.001 23.0228C4.00909 23.0366 4.02002 23.0487 4.03308 23.058L5.29528 23.8167C5.29859 23.7944 5.29859 23.7718 5.29528 23.7495V22.3531C5.29679 22.3294 5.292 22.3057 5.28139 22.2845C5.27077 22.2633 5.25473 22.2452 5.23488 22.2322L4.32849 21.5608C4.28318 21.5319 4.24763 21.4901 4.22637 21.4407C4.20512 21.3913 4.19916 21.3367 4.20929 21.2839C4.21941 21.2311 4.24516 21.1826 4.28317 21.1446C4.32118 21.1066 4.3697 21.0808 4.42249 21.0707C4.46474 21.0621 4.5084 21.0631 4.55022 21.0735C4.59205 21.084 4.63096 21.1037 4.66418 21.1312L5.20132 21.5407L5.29528 21.6011V20.7283C5.29698 20.6576 5.32584 20.5903 5.37584 20.5403C5.42584 20.4903 5.49316 20.4615 5.56385 20.4598C5.63571 20.4598 5.70472 20.4878 5.75616 20.538C5.80759 20.5882 5.83734 20.6565 5.8391 20.7283V21.5407L5.92638 21.4803L6.47692 21.064C6.50606 21.0406 6.53967 21.0233 6.57571 21.0132C6.61175 21.0032 6.64945 21.0006 6.68652 21.0057C6.72359 21.0107 6.75927 21.0232 6.79134 21.0425C6.82341 21.0618 6.85121 21.0873 6.87305 21.1177C6.91475 21.1774 6.93108 21.2512 6.91849 21.3229C6.90591 21.3947 6.86542 21.4585 6.80589 21.5004L5.90626 22.1718C5.88457 22.1866 5.86703 22.2067 5.85528 22.2302C5.84353 22.2537 5.83794 22.2798 5.8391 22.3061V23.7764L5.91966 23.7294L7.1013 23.0245C7.12495 23.0124 7.14494 22.9942 7.15912 22.9717C7.17329 22.9493 7.18113 22.9234 7.18186 22.8969C7.21543 22.5209 7.25574 22.1449 7.29602 21.7757C7.29853 21.7398 7.30821 21.7047 7.32454 21.6726C7.34087 21.6405 7.36349 21.612 7.39105 21.5889C7.41861 21.5657 7.45055 21.5483 7.48497 21.5377C7.51939 21.5271 7.55561 21.5236 7.59143 21.5273C7.62805 21.5305 7.66362 21.5412 7.69592 21.5588C7.72823 21.5763 7.75657 21.6003 7.77923 21.6293C7.80189 21.6582 7.81836 21.6915 7.82763 21.7271C7.83689 21.7627 7.83878 21.7998 7.83312 21.8361C7.83312 22.0711 7.78613 22.3128 7.75928 22.5478V22.6216L8.10837 22.4202L8.43734 22.2188C8.4676 22.1967 8.50215 22.1813 8.53876 22.1734C8.57536 22.1655 8.61322 22.1653 8.64989 22.1729C8.68656 22.1805 8.72126 22.1956 8.75172 22.2174C8.78218 22.2392 8.80772 22.2671 8.82675 22.2994C8.84651 22.3305 8.85946 22.3656 8.86473 22.4021C8.87001 22.4387 8.8675 22.4759 8.85736 22.5114C8.84721 22.5469 8.82968 22.5799 8.80589 22.6081C8.78211 22.6364 8.75261 22.6593 8.71935 22.6753C8.52465 22.8029 8.32323 22.917 8.12853 23.0379L8.03452 23.0916L8.21581 23.1722L8.75963 23.3937C8.79564 23.4048 8.82889 23.4233 8.85728 23.4481C8.88566 23.4729 8.90853 23.5034 8.92436 23.5376C8.94019 23.5718 8.94866 23.6089 8.94919 23.6466C8.94972 23.6843 8.94233 23.7216 8.92747 23.7563C8.91236 23.7904 8.89046 23.8211 8.8631 23.8466C8.83573 23.872 8.80349 23.8916 8.76831 23.9041C8.73314 23.9167 8.69577 23.922 8.65849 23.9196C8.62122 23.9173 8.58483 23.9074 8.5515 23.8905C8.2091 23.7495 7.88009 23.6153 7.51755 23.4676C7.49816 23.4564 7.47618 23.4505 7.45379 23.4505C7.4314 23.4505 7.40938 23.4564 7.38998 23.4676L6.10095 24.2397L6.16139 24.2866L7.38998 25.0252C7.4104 25.0369 7.43358 25.0431 7.45715 25.0431C7.48072 25.0431 7.50386 25.0369 7.52427 25.0252L8.57162 24.5955C8.62883 24.5705 8.69299 24.5662 8.75303 24.5833C8.81307 24.6005 8.86524 24.638 8.90059 24.6895C8.9412 24.736 8.96361 24.7956 8.96361 24.8573C8.96361 24.919 8.9412 24.9787 8.90059 25.0252C8.85662 25.0641 8.80679 25.0958 8.75291 25.1192L8.08153 25.4011L8.27621 25.522L8.76635 25.8174C8.79676 25.8359 8.82323 25.8602 8.84425 25.889C8.86526 25.9177 8.88041 25.9503 8.88883 25.9849C8.89725 26.0195 8.89876 26.0555 8.8933 26.0906C8.88783 26.1258 8.87546 26.1596 8.85695 26.19C8.83843 26.2204 8.81415 26.2469 8.7854 26.2679C8.75666 26.2889 8.72403 26.3041 8.68943 26.3125C8.65483 26.3209 8.6189 26.3224 8.58371 26.317C8.54852 26.3115 8.51476 26.2992 8.48434 26.2806L7.89352 25.9248L7.79956 25.8711L7.85996 26.4552V26.67C7.86349 26.7053 7.86003 26.7409 7.8498 26.7748C7.83956 26.8088 7.82274 26.8404 7.80029 26.8678C7.77785 26.8952 7.75023 26.918 7.719 26.9347C7.68776 26.9515 7.65354 26.9619 7.61827 26.9655C7.54705 26.9726 7.47591 26.9511 7.42051 26.9058C7.36511 26.8605 7.32999 26.795 7.32286 26.7238L7.20202 25.5757C7.20126 25.5595 7.1966 25.5437 7.18841 25.5296C7.18023 25.5156 7.16877 25.5038 7.15502 25.4951L5.8391 24.7566C5.83608 24.7811 5.83608 24.8059 5.8391 24.8305V26.2135C5.83633 26.2383 5.84055 26.2633 5.85123 26.2859C5.8619 26.3084 5.87862 26.3275 5.89954 26.3411L6.79921 27.0124C6.84468 27.0406 6.88015 27.0823 6.90063 27.1317C6.92111 27.1811 6.92555 27.2357 6.91333 27.2877C6.90567 27.3409 6.88141 27.3903 6.84404 27.4288C6.80667 27.4674 6.75809 27.4932 6.7052 27.5026C6.66003 27.5157 6.61225 27.517 6.56641 27.5065C6.52057 27.4959 6.4782 27.4737 6.44336 27.4421L5.81898 26.9722C5.81602 26.9944 5.81602 27.017 5.81898 27.0393V27.751C5.82172 27.7882 5.81685 27.8256 5.80468 27.8609C5.7925 27.8963 5.77325 27.9287 5.74813 27.9563C5.723 27.984 5.69254 28.0062 5.65855 28.0217C5.62456 28.0372 5.58775 28.0456 5.55041 28.0464C5.51282 28.0474 5.47544 28.0406 5.44067 28.0263C5.4059 28.0119 5.37454 27.9905 5.34859 27.9632C5.32264 27.936 5.30268 27.9037 5.29004 27.8683C5.27739 27.8328 5.27233 27.7952 5.27516 27.7577V26.9722L5.1946 27.0326L4.63062 27.4556C4.59526 27.484 4.55328 27.503 4.50859 27.5108C4.46389 27.5186 4.41795 27.515 4.37504 27.5002C4.33213 27.4855 4.29366 27.4601 4.26321 27.4265C4.23277 27.3928 4.21133 27.352 4.20093 27.3078C4.18508 27.2529 4.18769 27.1943 4.2083 27.1409C4.22891 27.0876 4.26642 27.0425 4.31509 27.0124L5.208 26.3411C5.23179 26.3251 5.25068 26.3028 5.26254 26.2767C5.2744 26.2507 5.27878 26.2218 5.27516 26.1934V24.7566L5.12744 24.8506L4.00624 25.522C3.98489 25.5327 3.96677 25.549 3.95379 25.569C3.94081 25.5891 3.93344 25.6122 3.9324 25.6361C3.9324 26.0121 3.85856 26.3881 3.81828 26.7573C3.81764 26.7942 3.80923 26.8304 3.79361 26.8638C3.77799 26.8972 3.75547 26.9269 3.72759 26.951C3.69971 26.975 3.66707 26.9929 3.63179 27.0035C3.5965 27.0141 3.5594 27.0172 3.52287 27.0124C3.48624 27.0092 3.45064 26.9985 3.41833 26.9809C3.38602 26.9634 3.35768 26.9394 3.33502 26.9104C3.31237 26.8815 3.2959 26.8482 3.28663 26.8126C3.27736 26.7771 3.27548 26.7399 3.28114 26.7036C3.28114 26.4619 3.32817 26.2202 3.35502 25.9785C3.35208 25.9585 3.35208 25.9381 3.35502 25.9181L3.28114 25.9517L2.67692 26.3142C2.6469 26.3377 2.61224 26.3545 2.57521 26.3636C2.53819 26.3727 2.49967 26.3737 2.4622 26.3667C2.42473 26.3597 2.38914 26.3449 2.35787 26.3231C2.32659 26.3013 2.30032 26.2731 2.28079 26.2404C2.26128 26.2073 2.24889 26.1705 2.24444 26.1324C2.23999 26.0942 2.24359 26.0556 2.25497 26.0189C2.26635 25.9822 2.28528 25.9483 2.31054 25.9194C2.3358 25.8905 2.36682 25.8672 2.40163 25.851L2.99245 25.4951L3.08645 25.428Z" fill="white"/>
<path d="M5.54403 28.2209C5.48402 28.2216 5.42454 28.21 5.36914 28.1869C5.31374 28.1638 5.26361 28.1297 5.22178 28.0867C5.14277 27.998 5.09968 27.8831 5.10094 27.7644V27.3079L4.72497 27.5898C4.66533 27.6348 4.59558 27.6644 4.52184 27.6761C4.4481 27.6878 4.37261 27.6812 4.302 27.657C4.22817 27.6265 4.16378 27.5769 4.11547 27.5133C4.06715 27.4497 4.03665 27.3744 4.02708 27.2951C4.01751 27.2158 4.0292 27.1354 4.06101 27.0621C4.09281 26.9888 4.14353 26.9254 4.20799 26.8782L4.5034 26.6566L5.10094 26.2135V25.0386L4.89953 25.1595L4.08715 25.6428C4.08715 26.0054 4.02003 26.3814 3.97975 26.7573C3.97469 26.8156 3.95815 26.8723 3.93106 26.9242C3.90398 26.976 3.86688 27.022 3.82194 27.0595C3.777 27.0969 3.7251 27.1251 3.66922 27.1424C3.61333 27.1597 3.55457 27.1657 3.49633 27.1602C3.38192 27.1478 3.27641 27.0926 3.20092 27.0058C3.12602 26.9083 3.09231 26.7854 3.10696 26.6633L3.15392 26.2068L2.76455 26.4418C2.71469 26.4784 2.65772 26.5041 2.59732 26.5174C2.53692 26.5306 2.47441 26.531 2.41382 26.5187C2.35323 26.5063 2.29591 26.4814 2.24552 26.4455C2.19514 26.4097 2.15282 26.3637 2.12128 26.3105C2.08974 26.2573 2.06968 26.1981 2.06239 26.1367C2.05511 26.0753 2.06077 26.013 2.07899 25.954C2.09721 25.8949 2.1276 25.8402 2.1682 25.7936C2.2088 25.7469 2.25868 25.7093 2.31469 25.6831L2.70411 25.4549L2.27441 25.2803C2.22151 25.2574 2.17367 25.2243 2.13357 25.1828C2.09347 25.1414 2.06191 25.0925 2.04072 25.0389C2.01952 24.9853 2.00909 24.928 2.01002 24.8704C2.01096 24.8127 2.02324 24.7558 2.04617 24.7029C2.06909 24.65 2.10219 24.6021 2.14361 24.562C2.18503 24.5219 2.23395 24.4904 2.28757 24.4692C2.34118 24.448 2.39846 24.4376 2.45611 24.4385C2.51376 24.4394 2.57064 24.4517 2.62354 24.4746L3.65746 24.8909L4.69141 24.2598L4.5034 24.1457L3.63062 23.622C3.30835 23.7697 2.95926 23.9107 2.60342 24.0517C2.5409 24.083 2.4719 24.0993 2.40198 24.0993C2.33205 24.0993 2.2631 24.083 2.20057 24.0517C2.14243 24.0171 2.09327 23.9693 2.05711 23.9121C2.02094 23.8549 1.99879 23.79 1.99245 23.7227C1.98233 23.6252 2.00531 23.5272 2.05768 23.4444C2.11005 23.3616 2.18875 23.2988 2.28113 23.2662L2.70411 23.0916L2.3013 22.8499C2.2499 22.8219 2.20465 22.7839 2.16824 22.7382C2.13183 22.6924 2.10498 22.6397 2.08932 22.5833C2.07366 22.527 2.06949 22.468 2.07706 22.41C2.08464 22.352 2.10384 22.2961 2.13345 22.2457C2.19096 22.1468 2.28496 22.0745 2.39526 22.0442C2.4562 22.0285 2.51971 22.0251 2.58199 22.0343C2.64427 22.0435 2.70408 22.0652 2.75783 22.098C2.87868 22.1785 3.00624 22.2524 3.1338 22.3262L3.10024 22.004C3.09693 21.9525 3.09693 21.901 3.10024 21.8496C3.0947 21.7922 3.10054 21.7343 3.11749 21.6792C3.13444 21.6242 3.16213 21.573 3.19896 21.5287C3.23578 21.4844 3.28101 21.4478 3.33205 21.421C3.38309 21.3943 3.43893 21.3779 3.49633 21.3729C3.55385 21.3664 3.61208 21.3716 3.66754 21.3882C3.72299 21.4048 3.77455 21.4324 3.81907 21.4694C3.86359 21.5064 3.90018 21.552 3.92664 21.6035C3.9531 21.6549 3.96887 21.7112 3.97303 21.769L4.01331 22.1517C4.01331 22.4001 4.06029 22.6418 4.08715 22.8902L5.09422 23.4944V22.3061C4.79881 22.098 4.49671 21.8764 4.19459 21.6347C4.1257 21.5857 4.07253 21.5177 4.04154 21.4391C4.01055 21.3604 4.00307 21.2744 4.02003 21.1916C4.0343 21.1082 4.07329 21.0309 4.13194 20.9699C4.19059 20.9088 4.2662 20.8668 4.349 20.8492C4.41523 20.8339 4.48408 20.8338 4.55036 20.8489C4.61665 20.864 4.67864 20.8939 4.73169 20.9365L5.09422 21.2117V20.7283C5.09766 20.6143 5.14496 20.506 5.22625 20.426C5.30754 20.3459 5.41657 20.3003 5.53063 20.2986C5.6447 20.3003 5.75373 20.3459 5.83502 20.426C5.9163 20.506 5.96356 20.6143 5.96701 20.7283V21.2185L6.34298 20.9365C6.3912 20.8996 6.4464 20.8728 6.50525 20.8578C6.5641 20.8428 6.62538 20.8399 6.68539 20.8492C6.77023 20.8651 6.84857 20.9054 6.91081 20.9652C6.97304 21.025 7.01645 21.1017 7.03571 21.1859C7.05496 21.27 7.04923 21.358 7.01919 21.4389C6.98916 21.5198 6.93616 21.5902 6.86667 21.6414L5.96701 22.3128V23.4877L6.16845 23.3669L6.97408 22.8835C6.97408 22.5679 7.03452 22.2457 7.0748 21.9234V21.7623C7.07981 21.7042 7.0964 21.6478 7.12356 21.5963C7.15073 21.5448 7.18793 21.4992 7.23298 21.4623C7.27803 21.4254 7.33001 21.3979 7.38586 21.3813C7.44172 21.3648 7.5003 21.3597 7.55818 21.3662C7.67475 21.3796 7.78124 21.4388 7.85424 21.5307C7.92724 21.6226 7.96081 21.7396 7.94759 21.8563L7.90059 22.3195L8.30344 22.0778C8.35253 22.046 8.40749 22.0244 8.4651 22.0143C8.52271 22.0042 8.58177 22.0057 8.63876 22.0189C8.69575 22.032 8.74955 22.0565 8.79689 22.0909C8.84424 22.1252 8.88418 22.1687 8.91438 22.2188C8.94468 22.269 8.96475 22.3246 8.97339 22.3826C8.98203 22.4406 8.97906 22.4997 8.9647 22.5565C8.95034 22.6133 8.92485 22.6667 8.88971 22.7137C8.85456 22.7606 8.81048 22.8 8.75997 22.8298L8.37056 23.0647L8.79353 23.2393C8.84643 23.2613 8.89447 23.2936 8.93491 23.3342C8.97535 23.3748 9.00738 23.423 9.0292 23.476C9.05102 23.529 9.06222 23.5857 9.0621 23.643C9.06198 23.7004 9.05054 23.7571 9.0285 23.81C9.00646 23.8629 8.97425 23.9109 8.93364 23.9513C8.89303 23.9918 8.84485 24.0238 8.79185 24.0457C8.73886 24.0675 8.6821 24.0786 8.62479 24.0785C8.56748 24.0784 8.51074 24.067 8.45784 24.045C8.10873 23.9107 7.78648 23.7697 7.42393 23.622C7.08824 23.8368 6.75253 24.045 6.38998 24.2598L6.49742 24.3269L7.44405 24.8976C7.77303 24.7499 8.11546 24.6022 8.478 24.4612C8.57046 24.4205 8.67429 24.4137 8.77128 24.4419C8.86828 24.4701 8.95223 24.5317 9.00838 24.6156C9.06822 24.696 9.09708 24.7952 9.08968 24.8951C9.08228 24.995 9.03912 25.0888 8.9681 25.1595C8.91107 25.2178 8.84247 25.2635 8.76669 25.2937L8.37056 25.4549L8.77337 25.6899C8.8799 25.7575 8.95672 25.8631 8.98822 25.9852C9.00108 26.0398 9.00297 26.0964 8.99375 26.1518C8.98453 26.2071 8.96441 26.26 8.93454 26.3075C8.9038 26.358 8.86311 26.4017 8.81497 26.436C8.76682 26.4703 8.71221 26.4945 8.65446 26.507C8.5967 26.5196 8.53698 26.5203 8.47895 26.5091C8.42091 26.4978 8.36576 26.475 8.31684 26.4418L7.92075 26.2068V26.5425C7.92404 26.585 7.92404 26.6276 7.92075 26.6701C7.93398 26.7849 7.90111 26.9003 7.82937 26.9909C7.75762 27.0815 7.65286 27.14 7.53806 27.1535C7.42134 27.1665 7.30399 27.1353 7.20909 27.0662C7.14572 26.9809 7.11263 26.877 7.11508 26.7708L7.0748 26.3881C7.0748 26.1464 7.02781 25.898 7.00096 25.6563C6.66527 25.4504 6.32958 25.249 5.99389 25.052V26.2269L6.69883 26.7506L6.8868 26.8983C6.95824 26.9452 7.0138 27.0127 7.04616 27.0918C7.07852 27.1709 7.08617 27.2579 7.06808 27.3414C7.05249 27.4254 7.01223 27.5028 6.95244 27.5638C6.89265 27.6248 6.81604 27.6666 6.73239 27.6838C6.66713 27.6972 6.59976 27.6963 6.53488 27.6812C6.46999 27.6662 6.40913 27.6373 6.35642 27.5966L5.99389 27.3213V27.7711C5.99756 27.8306 5.98897 27.8903 5.96869 27.9464C5.94841 28.0025 5.91685 28.0538 5.87595 28.0972C5.83506 28.1406 5.78571 28.1752 5.73093 28.1988C5.67616 28.2224 5.61711 28.2345 5.55747 28.2344L5.54403 28.2209ZM5.40979 26.6701V27.1803V27.7644C5.39847 27.7947 5.39847 27.8281 5.40979 27.8584C5.42043 27.8628 5.43183 27.8651 5.44335 27.8651C5.45487 27.8651 5.46628 27.8628 5.47691 27.8584C5.57091 27.8584 5.57764 27.7644 5.57764 27.7308V27.0192C5.57468 26.9969 5.57468 26.9743 5.57764 26.952V26.6701L5.98045 26.9453L6.43698 27.2877C6.49069 27.3213 6.51085 27.3213 6.5377 27.2877C6.5581 27.285 6.57704 27.2756 6.59159 27.261C6.60614 27.2465 6.61551 27.2276 6.61827 27.2072C6.61827 27.2072 6.61826 27.14 6.56455 27.0997L6.37658 26.952L5.66492 26.4217C5.62331 26.3923 5.58977 26.3529 5.56747 26.3071C5.54517 26.2613 5.53483 26.2107 5.53735 26.1598V24.5418H5.71188H5.80588L5.88644 24.5955C6.28256 24.8305 6.67868 25.0655 7.06808 25.3072C7.10276 25.3294 7.13218 25.3589 7.15422 25.3937C7.17625 25.4285 7.19038 25.4677 7.19564 25.5086L7.27621 26.2739L7.31649 26.6566C7.31592 26.6723 7.31933 26.688 7.32636 26.702C7.3334 26.7161 7.34385 26.7282 7.35677 26.7372C7.38305 26.745 7.41105 26.745 7.43733 26.7372C7.45068 26.7348 7.46344 26.7297 7.47479 26.7223C7.48613 26.7149 7.49582 26.7052 7.50335 26.6939C7.51087 26.6826 7.51605 26.67 7.51855 26.6566C7.52105 26.6433 7.52082 26.6296 7.51789 26.6163L7.40377 25.4951L8.37728 26.0658C8.3873 26.0762 8.3993 26.0844 8.41256 26.09C8.42583 26.0956 8.44008 26.0985 8.45448 26.0985C8.46889 26.0985 8.48314 26.0956 8.4964 26.09C8.50967 26.0844 8.52167 26.0762 8.53169 26.0658C8.53817 26.0546 8.5416 26.0418 8.5416 26.0289C8.5416 26.0159 8.53817 26.0032 8.53169 25.992C8.52276 25.9583 8.50112 25.9294 8.47128 25.9114L7.50449 25.3273L8.00803 25.1192L8.51157 24.9177C8.54578 24.9025 8.57744 24.8821 8.60553 24.8573C8.6186 24.8399 8.62569 24.8187 8.62569 24.7969C8.62569 24.7751 8.6186 24.7539 8.60553 24.7365C8.58648 24.7212 8.56281 24.7129 8.53841 24.7129C8.514 24.7129 8.49034 24.7212 8.47128 24.7365L7.42393 25.1595C7.38107 25.1842 7.33243 25.1972 7.28293 25.1972C7.23343 25.1972 7.18479 25.1842 7.14192 25.1595L6.19529 24.5821L5.91333 24.4209L5.86632 24.3807L5.66492 24.2329L5.85288 24.0852L6.02745 23.9778L7.14192 23.3064C7.18479 23.2817 7.23343 23.2687 7.28293 23.2687C7.33243 23.2687 7.38107 23.2817 7.42393 23.3064L8.45784 23.7294C8.45784 23.7294 8.57868 23.7697 8.61225 23.6824C8.61735 23.6679 8.6193 23.6524 8.6179 23.6371C8.61651 23.6217 8.61182 23.6069 8.60418 23.5935C8.59653 23.5802 8.58611 23.5686 8.57361 23.5596C8.5611 23.5506 8.5468 23.5444 8.53169 23.5414L7.51122 23.1185L8.08859 22.7626L8.47128 22.5276C8.485 22.5221 8.49733 22.5136 8.50739 22.5027C8.51744 22.4919 8.52499 22.4789 8.52947 22.4648C8.53396 22.4507 8.53526 22.4358 8.53332 22.4211C8.53139 22.4065 8.52627 22.3924 8.51829 22.3799C8.50827 22.3696 8.49627 22.3614 8.483 22.3557C8.46974 22.3501 8.45545 22.3472 8.44104 22.3472C8.42664 22.3472 8.41239 22.3501 8.39912 22.3557C8.38586 22.3614 8.37386 22.3696 8.36384 22.3799L7.44405 22.9305V22.6418V22.5478L7.51789 21.8361C7.52816 21.8079 7.52816 21.777 7.51789 21.7488C7.50961 21.7389 7.49941 21.7308 7.48786 21.7251C7.47631 21.7193 7.46367 21.716 7.45077 21.7153C7.42333 21.7133 7.3962 21.722 7.37496 21.7395C7.35373 21.757 7.34002 21.7819 7.33665 21.8093V21.9704C7.30308 22.2927 7.2695 22.6082 7.24265 22.9305C7.23923 22.9831 7.22268 23.034 7.19454 23.0785C7.16639 23.1231 7.12755 23.1599 7.08152 23.1856L6.27586 23.669L5.60448 24.0517L5.57092 23.7093V22.3262C5.56861 22.2737 5.57971 22.2215 5.60321 22.1745C5.6267 22.1275 5.66182 22.0873 5.7052 22.0577L6.60483 21.3863C6.61518 21.3763 6.62342 21.3643 6.62904 21.351C6.63467 21.3378 6.63757 21.3235 6.63757 21.3091C6.63757 21.2947 6.63467 21.2804 6.62904 21.2672C6.62342 21.2539 6.61518 21.2419 6.60483 21.2319C6.5904 21.2114 6.56888 21.197 6.54443 21.1916C6.51364 21.1833 6.48121 21.1833 6.45042 21.1916L6.06773 21.4803L5.57764 21.8294L5.54403 21.44V20.7283C5.54403 20.7016 5.53346 20.676 5.51457 20.6571C5.49568 20.6382 5.47006 20.6276 5.44335 20.6276C5.41664 20.6276 5.39102 20.6382 5.37213 20.6571C5.35325 20.676 5.34263 20.7016 5.34263 20.7283V21.863L4.443 21.1916C4.41058 21.1792 4.3747 21.1792 4.34228 21.1916C4.32133 21.1957 4.30226 21.2064 4.28778 21.2221C4.2733 21.2378 4.26416 21.2577 4.26171 21.2789C4.2583 21.2994 4.26091 21.3205 4.26925 21.3396C4.2776 21.3586 4.29132 21.3749 4.30872 21.3863L5.21506 22.0577C5.25569 22.0864 5.28862 22.1247 5.31087 22.1692C5.33312 22.2137 5.34402 22.263 5.34263 22.3128V23.7093C5.34559 23.7316 5.34559 23.7541 5.34263 23.7764V23.9577H5.12778H5.0741L3.81862 23.199C3.78312 23.1761 3.75321 23.1455 3.73113 23.1095C3.70905 23.0735 3.69537 23.0329 3.69106 22.9909L3.6105 22.2255L3.57017 21.8496C3.56846 21.8205 3.5557 21.7931 3.53448 21.7731C3.51326 21.7532 3.48519 21.7421 3.45605 21.7421C3.42884 21.7483 3.40463 21.7637 3.38749 21.7858C3.37036 21.8078 3.36135 21.8351 3.36205 21.863V22.004L3.46277 22.9842L2.86523 22.6418L2.48926 22.4135C2.45673 22.4017 2.42111 22.4017 2.38858 22.4135C2.38858 22.4135 2.34828 22.4135 2.32814 22.4605C2.30799 22.5075 2.32815 22.5948 2.38186 22.6149L3.30165 23.1789L2.95923 23.3602L2.28785 23.622C2.28785 23.622 2.20058 23.669 2.20729 23.7294C2.2067 23.7459 2.21082 23.7622 2.21913 23.7765C2.22745 23.7908 2.23964 23.8024 2.25429 23.81C2.27099 23.8183 2.28938 23.8226 2.30802 23.8226C2.32665 23.8226 2.345 23.8183 2.3617 23.81L3.40905 23.3803C3.4513 23.3574 3.49862 23.3454 3.54669 23.3454C3.59476 23.3454 3.64208 23.3574 3.68434 23.3803L4.55712 23.9107L4.90626 24.1188L4.96666 24.1591L5.14794 24.2934L4.9801 24.4411L4.85925 24.3404L4.9331 24.4679L4.77197 24.5686L3.6709 25.24C3.63071 25.2578 3.58726 25.2669 3.54333 25.2669C3.4994 25.2669 3.45595 25.2578 3.41577 25.24L2.36842 24.817C2.30799 24.817 2.28115 24.817 2.25429 24.817C2.23911 24.8258 2.22666 24.8386 2.21836 24.854C2.21005 24.8694 2.20622 24.8868 2.20729 24.9043C2.20533 24.9264 2.21189 24.9485 2.22561 24.966C2.23933 24.9834 2.25918 24.995 2.28113 24.9983L3.31509 25.4213L2.36842 26.0054C2.31471 26.0389 2.26102 26.0927 2.30802 26.1665C2.35501 26.2404 2.42215 26.2135 2.47586 26.1665L3.07336 25.804L3.1338 25.7704L3.38893 25.6428V25.9181V26.2337L3.34193 26.7103C3.3348 26.725 3.33111 26.7411 3.33111 26.7573C3.33111 26.7736 3.3348 26.7897 3.34193 26.8043C3.35021 26.8142 3.36045 26.8223 3.372 26.8281C3.38356 26.8339 3.39615 26.8372 3.40905 26.8379C3.42354 26.8412 3.43859 26.8409 3.45298 26.8372C3.46736 26.8335 3.48069 26.8265 3.49182 26.8167C3.50296 26.8068 3.51161 26.7945 3.51707 26.7807C3.52252 26.7669 3.52463 26.752 3.52321 26.7372C3.5635 26.3612 3.60377 25.992 3.63734 25.616C3.64166 25.5653 3.65791 25.5164 3.68475 25.4733C3.71158 25.4301 3.74823 25.3939 3.79174 25.3676L4.60413 24.8842L5.31579 24.4545V26.2135C5.31978 26.2689 5.3088 26.3242 5.28399 26.3739C5.25918 26.4235 5.22144 26.4655 5.17478 26.4955L4.58396 26.9386L4.28856 27.1602C4.26653 27.1704 4.24897 27.1883 4.2391 27.2105C4.22922 27.2327 4.22774 27.2578 4.23487 27.281C4.23902 27.297 4.24657 27.3118 4.257 27.3246C4.26743 27.3373 4.28047 27.3476 4.29528 27.3549C4.31181 27.3637 4.33026 27.3683 4.349 27.3683C4.36773 27.3683 4.38619 27.3637 4.40272 27.3549C4.537 27.2676 4.65785 27.1669 4.78541 27.0729L5.40979 26.6701Z" fill="white"/>
</svg>
