<svg width="57" height="76" viewBox="0 0 57 76" fill="none" xmlns="http://www.w3.org/2000/svg">
<path d="M28.2967 75.2691C12.699 75.2691 0 63.1568 0 48.2631C0 42.1758 2.15332 37.5379 6.39782 34.4598V32.0373C6.3951 30.4477 6.83204 28.8882 7.66028 27.5314C8.48852 26.1745 9.67583 25.0731 11.091 24.3489L11.4291 24.1902L15.0938 0L34.5427 21.5952C39.0149 22.0024 42.59 22.8927 45.4403 24.3144C46.8555 25.0386 48.0428 26.14 48.871 27.4969C49.6993 28.8537 50.1361 30.4132 50.1334 32.0028V34.3977C54.4124 37.4758 56.5796 42.1275 56.5796 48.2355C56.5796 63.1568 43.8943 75.2691 28.2967 75.2691ZM17.889 9.28269L15.1836 27.1165L14.0931 27.5651C13.6514 27.7445 13.2856 27.8964 12.9544 28.062C12.2263 28.4405 11.6169 29.0125 11.1931 29.7152C10.7694 30.4178 10.5477 31.2237 10.5526 32.0443V36.7166L9.57946 37.324C5.88019 39.6429 4.15479 43.1214 4.15479 48.2769C4.15479 60.8861 14.9834 71.1419 28.3105 71.1419C41.6375 71.1419 52.4662 60.8861 52.4662 48.2769C52.4662 43.1006 50.727 39.6153 47.0001 37.3033L46.0201 36.6959V32.0443C46.0264 31.2243 45.8061 30.4185 45.3835 29.7158C44.9609 29.0131 44.3524 28.4408 43.6252 28.062C41.0854 26.7921 37.745 25.9915 33.4246 25.7017L32.5964 25.6395L17.889 9.28269Z" fill="black"/>
<path d="M13.1749 26.5505L16.5015 4.63788L34.3352 24.4869L14.2032 27.006" fill="#F65B5A"/>
<path d="M31.3601 23.4931C30.3456 23.4586 29.2897 23.4379 28.2751 23.4379C22.0016 23.4379 16.2939 24.066 12.0287 26.1986C10.9543 26.7474 10.0537 27.584 9.42728 28.6151C8.80085 29.6461 8.47329 30.831 8.48125 32.0373V40.4573C8.48034 41.3198 8.64947 42.174 8.97891 42.9712C9.30834 43.7683 9.79162 44.4926 10.4012 45.1028C11.0107 45.7131 11.7346 46.1971 12.5314 46.5274C13.3282 46.8577 14.1822 47.0277 15.0447 47.0277H41.4986C42.3611 47.0277 43.2152 46.8577 44.012 46.5274C44.8087 46.1971 45.5325 45.7131 46.1421 45.1028C46.7517 44.4926 47.235 43.7683 47.5645 42.9712C47.8939 42.174 48.063 41.3198 48.062 40.4573V32.0373C48.0708 30.8308 47.7436 29.6456 47.1171 28.6144C46.4906 27.5832 45.5895 26.7468 44.5146 26.1986C40.9603 24.4249 36.4052 23.6933 31.3601 23.5" fill="white"/>
<path d="M54.5092 48.2631C54.5092 62.0664 42.7764 73.1987 28.283 73.1987C13.7896 73.1987 2.05682 62.0388 2.05682 48.2631C2.05682 34.4875 13.7896 31.6992 28.283 31.6992C42.7764 31.6992 54.5092 34.4944 54.5092 48.2631Z" fill="white"/>
<mask id="mask0_250_4137" style="mask-type:luminance" maskUnits="userSpaceOnUse" x="2" y="31" width="53" height="43">
<path d="M54.5082 48.2631C54.5082 62.0663 42.7755 73.1986 28.2821 73.1986C13.7887 73.1986 2.05589 62.0387 2.05589 48.2631C2.05589 34.4874 13.7887 31.6992 28.2821 31.6992C42.7755 31.6992 54.5082 34.4943 54.5082 48.2631Z" fill="white"/>
</mask>
<g mask="url(#mask0_250_4137)">
<path d="M54.5084 38.6077C54.5084 52.6318 42.7757 47.0208 28.2822 47.0208C13.7888 47.0208 2.05608 52.4385 2.05608 38.6077C2.05608 32.8724 13.7888 31.7061 28.2822 31.7061C42.7757 31.7061 54.5084 32.8724 54.5084 38.6077Z" fill="#F65B5A"/>
<path d="M0.752125 44.688C-0.283119 47.1312 -5.33514 62.1008 6.23888 62.1008C19.2761 62.1008 28.4553 50.1058 28.4553 50.1058L28.3793 48.1872C28.3793 46.0684 25.9706 44.3499 22.996 44.3499C19.5935 44.3499 17.9993 46.4203 15.5216 47.7109C13.0439 49.0015 10.4834 51.1618 7.30176 48.5736C4.5066 46.2685 0.255201 40.9267 1.78046 40.3469" fill="#E3E3E3"/>
<path d="M13.2922 69.4441C16.5405 68.197 19.5237 66.3471 22.0848 63.9918C22.0848 63.9918 21.4707 67.0147 17.7645 72.2738L13.2922 69.4441Z" fill="#E3E3E3"/>
<path d="M28.2754 64.475C28.089 65.0202 25.9564 71.3766 25.6596 75.2484H30.8841C30.5874 71.3904 28.4548 65.0202 28.2754 64.475Z" fill="#E3E3E3"/>
<path d="M43.2592 69.4441C40.0109 68.197 37.0277 66.3471 34.4666 63.9918C34.4666 63.9918 35.0808 67.0147 38.787 72.2738L43.2592 69.4441Z" fill="#E3E3E3"/>
<path d="M55.7925 44.688C56.8278 47.1312 61.8798 62.1008 50.2712 62.1008C37.2341 62.1008 28.0549 50.1058 28.0549 50.1058L28.1377 48.1872C28.1377 46.0684 30.5464 44.3499 33.5141 44.3499C36.9166 44.3499 38.5108 46.4203 40.9885 47.7109C43.4662 49.0015 46.0267 51.1618 49.2083 48.5736C51.969 46.2685 56.2549 40.9267 54.7296 40.3469" fill="#E3E3E3"/>
<path d="M19.6625 48.339C21.6295 52.1763 24.749 54.6678 28.2757 54.6678C31.8025 54.6678 34.9151 52.1763 36.8821 48.339H19.6625Z" fill="#1A1A18"/>
<path d="M19.6625 45.8406C21.6295 49.6779 24.749 52.1763 28.2757 52.1763C31.8025 52.1763 34.9151 49.6779 36.8821 45.8406H19.6625Z" fill="#1A1A18"/>
<mask id="mask1_250_4137" style="mask-type:luminance" maskUnits="userSpaceOnUse" x="19" y="48" width="18" height="7">
<path d="M19.6625 48.3389C21.6295 52.1762 24.749 54.6677 28.2757 54.6677C31.8025 54.6677 34.9151 52.1762 36.8821 48.3389H19.6625Z" fill="white"/>
</mask>
<g mask="url(#mask1_250_4137)">
<path d="M34.8798 58.2497C33.3684 54.861 30.9804 52.6594 28.275 52.6594C25.5696 52.6594 23.1746 54.861 21.6632 58.2497H34.8798Z" fill="#F65B5A"/>
</g>
<path d="M38.386 41.4856C38.6554 41.3667 38.9349 41.272 39.2211 41.2027C39.0887 40.5285 38.736 39.9175 38.2185 39.4656C37.7009 39.0137 37.048 38.7467 36.3621 38.7064C35.6763 38.6661 34.9965 38.8549 34.4296 39.243C33.8628 39.6312 33.4409 40.1967 33.2305 40.8507C32.8371 42.0654 33.7826 42.3759 34.0103 41.672C34.2003 41.0802 34.6174 40.588 35.1699 40.3033C35.7224 40.0187 36.3652 39.9648 36.9574 40.1536C37.278 40.2584 37.572 40.4318 37.8188 40.6619C38.0655 40.8919 38.259 41.1731 38.386 41.4856Z" fill="#1A1A18"/>
<path d="M33.5975 42.4727C33.4838 42.4703 33.3718 42.4446 33.2685 42.3971C33.1652 42.3496 33.0729 42.2814 32.9971 42.1966C32.8421 41.9867 32.7451 41.7397 32.716 41.4804C32.687 41.221 32.7268 40.9586 32.8315 40.7196C32.9725 40.2781 33.1993 39.8686 33.4988 39.5148C33.7983 39.1609 34.1646 38.8696 34.5767 38.6574C34.9889 38.4452 35.4388 38.3164 35.9008 38.2782C36.3628 38.2401 36.8278 38.2935 37.2691 38.4352C37.8696 38.6293 38.4072 38.9807 38.8259 39.4528C39.2446 39.925 39.5293 40.5006 39.6503 41.1199L39.7262 41.5202L39.3328 41.6169C39.068 41.6814 38.8092 41.7692 38.5597 41.8791L38.1664 42.0448L38.0008 41.6444C37.9011 41.4005 37.7515 41.18 37.5617 40.9972C37.3718 40.8144 37.1459 40.6734 36.8983 40.583C36.6507 40.4927 36.3869 40.4551 36.124 40.4727C35.861 40.4903 35.6046 40.5626 35.3712 40.6851C35.1467 40.7986 34.9474 40.9561 34.785 41.1482C34.6226 41.3402 34.5003 41.563 34.4257 41.8032C34.3785 41.9628 34.2898 42.107 34.1685 42.221C34.0472 42.335 33.8978 42.4147 33.7355 42.4519L33.5975 42.4727ZM36.1925 39.1185C35.7677 39.1201 35.3492 39.2218 34.9709 39.4152C34.6566 39.5745 34.3773 39.7953 34.1497 40.0644C33.9221 40.3335 33.7507 40.6454 33.6458 40.9819C33.5609 41.168 33.5439 41.378 33.5975 41.5754C33.5975 41.5754 33.5975 41.5754 33.5975 41.5409C33.7585 41.0362 34.0614 40.5885 34.4699 40.2512C34.8784 39.9139 35.3754 39.7013 35.9015 39.6387C36.4275 39.5761 36.9605 39.6662 37.4368 39.8983C37.9131 40.1303 38.3125 40.4945 38.5874 40.9474L38.6978 40.906C38.5606 40.5183 38.3362 40.1673 38.0418 39.8801C37.7474 39.5929 37.391 39.3772 37.0001 39.2496C36.7372 39.1631 36.4623 39.1188 36.1856 39.1185H36.1925Z" fill="#1A1A18"/>
<path d="M18.1586 41.4857C17.8896 41.3657 17.6101 41.2709 17.3236 41.2027C17.4534 40.5256 17.8054 39.9112 18.3237 39.4566C18.842 39.0021 19.4971 38.7333 20.1853 38.6929C20.8735 38.6526 21.5556 38.8428 22.1235 39.2336C22.6915 39.6244 23.1129 40.1935 23.321 40.8507C23.7075 42.0654 22.762 42.376 22.5411 41.672C22.3496 41.0813 21.9324 40.5903 21.3804 40.3059C20.8284 40.0215 20.1863 39.9668 19.5941 40.1536C19.272 40.2571 18.9764 40.43 18.7284 40.6601C18.4804 40.8903 18.2859 41.1721 18.1586 41.4857Z" fill="#1A1A18"/>
<path d="M22.9544 42.4727C22.7611 42.4626 22.5764 42.3897 22.4282 42.2652C22.28 42.1407 22.1764 41.9712 22.1331 41.7825C22.017 41.4078 21.788 41.0781 21.4774 40.8384C21.1669 40.5987 20.7899 40.4608 20.3979 40.4434C20.006 40.426 19.6184 40.5301 19.2878 40.7414C18.9573 40.9526 18.7 41.2608 18.5511 41.6238L18.3855 42.0241L17.9921 41.8584C17.7446 41.7497 17.4883 41.662 17.2261 41.5962L16.8257 41.4995L16.9085 41.0993C17.0589 40.3316 17.4602 39.6358 18.0494 39.1212C18.6385 38.6065 19.382 38.3024 20.1629 38.2566C20.9438 38.2107 21.7177 38.4258 22.363 38.8679C23.0082 39.3101 23.4882 39.9542 23.7274 40.699C24.031 41.6583 23.6653 42.2587 23.196 42.4106C23.1196 42.4448 23.0378 42.4658 22.9544 42.4727ZM20.3111 39.6154C20.897 39.6158 21.4676 39.8026 21.9403 40.1487C22.413 40.4949 22.7634 40.9825 22.9406 41.541C22.9503 41.5719 22.9668 41.6002 22.9889 41.6238C22.9993 41.4071 22.9737 41.1902 22.913 40.9819C22.7434 40.448 22.4102 39.9809 21.9606 39.6468C21.5109 39.3126 20.9676 39.1283 20.4075 39.1199C19.8473 39.1115 19.2987 39.2795 18.8393 39.6C18.3798 39.9205 18.0328 40.3774 17.8472 40.906L17.9576 40.9474C18.2957 40.3784 18.8312 39.9534 19.4622 39.7534C19.7362 39.6634 20.0226 39.6168 20.3111 39.6154Z" fill="#1A1A18"/>
<path d="M53.5295 42.0378C54.4819 44.5293 55.0685 55.9515 44.4538 55.9515C41.3481 55.9516 38.2795 55.2772 35.4601 53.9747C32.6407 52.6723 30.1378 50.7729 28.1246 48.408L28.1937 45.5991C28.1937 43.4458 30.4021 41.6927 33.1283 41.6927C36.2478 41.6927 37.711 43.7977 39.9816 45.1435C42.2522 46.4894 44.2607 48.2562 47.5251 46.0201C49.782 44.4741 46.2345 36.5303 45.1855 34.0872L50.7068 35.9851L53.5295 42.0378Z" fill="white"/>
<path d="M3.01597 42.0378C2.06354 44.5293 1.47693 55.9515 12.0985 55.9515C15.2041 55.9507 18.2725 55.2758 21.0918 53.9734C23.9111 52.671 26.414 50.7722 28.4278 48.408L28.3519 45.5991C28.3519 43.4458 26.1433 41.6927 23.4172 41.6927C20.2977 41.6927 18.8345 43.7977 16.5639 45.1435C14.2932 46.4894 11.8984 48.7393 9.02043 46.0201C6.48753 43.6252 9.18608 38.656 11.367 34.0872L5.8457 35.9851L3.01597 42.0378Z" fill="white"/>
</g>
<path d="M24.7642 36.903C23.1062 35.9132 21.1618 35.5143 19.248 35.7712C17.3342 36.0282 15.5638 36.9258 14.2255 38.3178C14.2255 38.3178 13.5975 32.9346 19.1947 31.5335C20.3581 31.2797 21.5621 31.2746 22.7276 31.5184C23.8932 31.7622 24.9941 32.2495 25.9583 32.9484L24.7642 36.903Z" fill="white"/>
<path d="M31.781 36.903C33.439 35.9132 35.3835 35.5143 37.2973 35.7712C39.2111 36.0282 40.9815 36.9258 42.3198 38.3178C42.3198 38.3178 42.9478 32.9345 37.3506 31.5335C36.1871 31.2806 34.9834 31.2759 33.8179 31.5197C32.6525 31.7635 31.5516 32.2503 30.587 32.9484L31.781 36.903Z" fill="white"/>
<mask id="mask2_250_4137" style="mask-type:luminance" maskUnits="userSpaceOnUse" x="13" y="4" width="22" height="24">
<path d="M13.1744 26.5506L16.5009 4.63797L34.3347 24.487L14.2027 27.0061" fill="white"/>
</mask>
<g mask="url(#mask2_250_4137)">
<path d="M13.9542 17.6683L11.4972 16.3984C12.7611 14.0083 14.571 11.9501 16.78 10.3911C18.989 8.83209 21.5346 7.8163 24.21 7.42627L24.493 10.1869C22.2738 10.5232 20.1643 11.3752 18.3341 12.6745C16.5038 13.9738 15.0037 15.6842 13.9542 17.6683Z" fill="white"/>
<path d="M14.2015 29.5667L11.6893 28.4141C17.0104 16.7849 29.806 14.3693 30.3237 14.2727L30.8136 16.9919C30.717 17.0126 18.9084 19.2694 14.2015 29.5667Z" fill="white"/>
</g>
<path d="M29.0209 39.0218L32.734 43.1627C32.9966 43.4519 33.3159 43.6839 33.6722 43.8442C34.0284 44.0045 34.4139 44.0897 34.8045 44.0945H38.1173C38.5358 44.0944 38.9491 44.0016 39.3274 43.8226C39.7058 43.6435 40.0396 43.3828 40.305 43.0592L44.5013 37.952H25.9221" fill="#1A1A18"/>
<path d="M27.5306 39.0218L23.8106 43.1627C23.5485 43.4526 23.2292 43.685 22.8729 43.8454C22.5165 44.0057 22.1308 44.0905 21.7401 44.0945H18.4135C17.996 44.0944 17.5837 44.0015 17.2065 43.8224C16.8293 43.6434 16.4966 43.3827 16.2326 43.0592L12.0295 37.952H30.6087" fill="#1A1A18"/>
<path d="M31.4034 37.9382H25.6957V39.284H31.4034V37.9382Z" fill="#1A1A18"/>
<path d="M14.7703 38.6638L14.3546 39.0057L17.6122 42.966L18.0279 42.624L14.7703 38.6638Z" fill="white"/>
<path d="M31.2952 38.7267L30.8794 39.0686L34.1363 43.0294L34.5521 42.6875L31.2952 38.7267Z" fill="white"/>
</svg>
