<svg width="74" height="74" viewBox="0 0 74 74" fill="none" xmlns="http://www.w3.org/2000/svg">
<g filter="url(#filter0_d_503_393)">
<circle cx="37" cy="35" r="23" fill="#EE4D52"/>
</g>
<path d="M41.65 24H37.9423V38.9855C37.9423 40.771 36.5163 42.2377 34.7417 42.2377C32.9671 42.2377 31.5411 40.771 31.5411 38.9855C31.5411 37.2319 32.9355 35.7971 34.6467 35.7333V31.971C30.8757 32.0348 27.8335 35.1275 27.8335 38.9855C27.8335 42.8754 30.939 46 34.7734 46C38.6078 46 41.7133 42.8435 41.7133 38.9855V31.3014C43.1077 32.3217 44.8189 32.9275 46.6252 32.9594V29.1971C43.8365 29.1015 41.65 26.8058 41.65 24Z" fill="white"/>
<defs>
<filter id="filter0_d_503_393" x="0" y="0" width="74" height="74" filterUnits="userSpaceOnUse" color-interpolation-filters="sRGB">
<feFlood flood-opacity="0" result="BackgroundImageFix"/>
<feColorMatrix in="SourceAlpha" type="matrix" values="0 0 0 0 0 0 0 0 0 0 0 0 0 0 0 0 0 0 127 0" result="hardAlpha"/>
<feOffset dy="2"/>
<feGaussianBlur stdDeviation="7"/>
<feComposite in2="hardAlpha" operator="out"/>
<feColorMatrix type="matrix" values="0 0 0 0 0 0 0 0 0 0 0 0 0 0 0 0 0 0 0.15 0"/>
<feBlend mode="normal" in2="BackgroundImageFix" result="effect1_dropShadow_503_393"/>
<feBlend mode="normal" in="SourceGraphic" in2="effect1_dropShadow_503_393" result="shape"/>
</filter>
</defs>
</svg>
