<svg width="105" height="105" viewBox="0 0 105 105" fill="none" xmlns="http://www.w3.org/2000/svg">
<g filter="url(#filter0_d_222_9223)">
<circle cx="52.5" cy="48.5" r="38.5" fill="white"/>
<path d="M62.2411 42.4388C64.9915 44.4118 68.3608 45.5727 71.9998 45.5727V38.5452C71.3111 38.5454 70.6242 38.4733 69.9504 38.3301V43.8617C66.3117 43.8617 62.9428 42.7008 60.1918 40.7279V55.0689C60.1918 62.243 54.3967 68.0584 47.2485 68.0584C44.5813 68.0584 42.1023 67.2492 40.043 65.8614C42.3933 68.2732 45.6711 69.7693 49.2974 69.7693C56.446 69.7693 62.2414 63.9539 62.2414 56.7795V42.4388H62.2411ZM64.7693 35.3489C63.3637 33.8078 62.4408 31.8163 62.2411 29.6146V28.7107H60.2991C60.7879 31.5091 62.4553 33.8999 64.7693 35.3489ZM44.5642 60.3562C43.7789 59.3228 43.3545 58.0587 43.3564 56.759C43.3564 53.4778 46.0071 50.8174 49.2772 50.8174C49.8867 50.8172 50.4925 50.9109 51.0733 51.0958V43.9113C50.3945 43.8179 49.7095 43.7783 49.0248 43.7928V49.3849C48.4435 49.2 47.8375 49.1061 47.2279 49.1066C43.9577 49.1066 41.3072 51.7668 41.3072 55.0484C41.3072 57.3687 42.6321 59.3776 44.5642 60.3562Z" fill="#FF004F"/>
<path d="M60.1913 40.7277C62.9424 42.7006 66.3112 43.8615 69.9499 43.8615V38.3299C67.9188 37.8957 66.1207 36.8305 64.7688 35.3489C62.4547 33.8997 60.7874 31.5089 60.2986 28.7107H55.1973V56.7792C55.1858 60.0515 52.5396 62.701 49.2765 62.701C47.3536 62.701 45.6452 61.7811 44.5633 60.3562C42.6313 59.3776 41.3064 57.3686 41.3064 55.0485C41.3064 51.7672 43.9569 49.1068 47.2271 49.1068C47.8537 49.1068 48.4576 49.2047 49.024 49.3851V43.793C42.0014 43.9386 36.3535 49.6972 36.3535 56.7794C36.3535 60.3148 37.76 63.5198 40.0427 65.8615C42.102 67.2492 44.581 68.0586 47.2482 68.0586C54.3965 68.0586 60.1914 62.2429 60.1914 55.0689V40.7277H60.1913Z" fill="black"/>
<path d="M69.9503 38.33V36.8343C68.1188 36.837 66.3232 36.3223 64.7692 35.3488C66.1448 36.8602 67.9562 37.9024 69.9503 38.33ZM60.299 28.7107C60.2524 28.4433 60.2166 28.1741 60.1917 27.9039V27H53.1482V55.0688C53.1369 58.3406 50.491 60.9902 47.2275 60.9902C46.2694 60.9902 45.3648 60.7619 44.5637 60.3564C45.6456 61.7812 47.354 62.7009 49.2769 62.7009C52.5398 62.7009 55.1863 60.0517 55.1977 56.7794V28.7107H60.299ZM49.0247 43.793V42.2007C48.4362 42.12 47.8428 42.0795 47.2487 42.0798C40.0998 42.0797 34.3047 47.8953 34.3047 55.0688C34.3047 59.5662 36.5823 63.5298 40.0432 65.8613C37.7605 63.5197 36.3541 60.3145 36.3541 56.7793C36.3541 49.6972 42.0018 43.9386 49.0247 43.793Z" fill="#00F2EA"/>
</g>
<defs>
<filter id="filter0_d_222_9223" x="0" y="0" width="105" height="105" filterUnits="userSpaceOnUse" color-interpolation-filters="sRGB">
<feFlood flood-opacity="0" result="BackgroundImageFix"/>
<feColorMatrix in="SourceAlpha" type="matrix" values="0 0 0 0 0 0 0 0 0 0 0 0 0 0 0 0 0 0 127 0" result="hardAlpha"/>
<feOffset dy="4"/>
<feGaussianBlur stdDeviation="7"/>
<feComposite in2="hardAlpha" operator="out"/>
<feColorMatrix type="matrix" values="0 0 0 0 0 0 0 0 0 0 0 0 0 0 0 0 0 0 0.15 0"/>
<feBlend mode="normal" in2="BackgroundImageFix" result="effect1_dropShadow_222_9223"/>
<feBlend mode="normal" in="SourceGraphic" in2="effect1_dropShadow_222_9223" result="shape"/>
</filter>
</defs>
</svg>
