<svg width="74" height="74" viewBox="0 0 74 74" fill="none" xmlns="http://www.w3.org/2000/svg">
<g filter="url(#filter0_d_23_4635)">
<circle cx="37" cy="35" r="23" fill="#CDCBDB"/>
</g>
<path d="M35.2273 38.549V38.2472C35.2332 37.2114 35.3249 36.3858 35.5025 35.7702C35.686 35.1547 35.9523 34.6576 36.3015 34.2788C36.6507 33.9 37.0709 33.5567 37.5621 33.2489C37.9291 33.0122 38.2576 32.7666 38.5476 32.5121C38.8376 32.2576 39.0684 31.9764 39.2401 31.6687C39.4117 31.355 39.4975 31.0058 39.4975 30.6211C39.4975 30.2127 39.3999 29.8546 39.2045 29.5469C39.0092 29.2391 38.7459 29.0024 38.4144 28.8366C38.0889 28.6709 37.7279 28.5881 37.3313 28.5881C36.9466 28.5881 36.5826 28.6739 36.2393 28.8455C35.8961 29.0112 35.6149 29.2598 35.396 29.5913C35.177 29.9168 35.0586 30.3222 35.0408 30.8075H31.4187C31.4483 29.6238 31.7324 28.6473 32.271 27.8778C32.8095 27.1025 33.5227 26.5254 34.4105 26.1467C35.2983 25.762 36.2778 25.5696 37.3491 25.5696C38.5269 25.5696 39.5685 25.7649 40.4741 26.1555C41.3796 26.5402 42.0898 27.0995 42.6048 27.8335C43.1197 28.5674 43.3771 29.4522 43.3771 30.4879C43.3771 31.1804 43.2617 31.7959 43.0309 32.3345C42.806 32.8672 42.4893 33.3407 42.081 33.755C41.6726 34.1634 41.1902 34.5333 40.6339 34.8647C40.1663 35.1429 39.7816 35.4329 39.4798 35.7347C39.1838 36.0366 38.9619 36.3858 38.8139 36.7823C38.6719 37.1789 38.5979 37.6671 38.592 38.2472V38.549H35.2273ZM36.9851 44.2308C36.3932 44.2308 35.8872 44.0237 35.467 43.6094C35.0527 43.1892 34.8485 42.6861 34.8544 42.1001C34.8485 41.5201 35.0527 41.023 35.467 40.6087C35.8872 40.1944 36.3932 39.9872 36.9851 39.9872C37.5473 39.9872 38.0415 40.1944 38.4677 40.6087C38.8938 41.023 39.1098 41.5201 39.1158 42.1001C39.1098 42.4908 39.0063 42.8488 38.805 43.1744C38.6097 43.494 38.3523 43.7514 38.0327 43.9467C37.7131 44.1361 37.3639 44.2308 36.9851 44.2308Z" fill="white"/>
<defs>
<filter id="filter0_d_23_4635" x="0" y="0" width="74" height="74" filterUnits="userSpaceOnUse" color-interpolation-filters="sRGB">
<feFlood flood-opacity="0" result="BackgroundImageFix"/>
<feColorMatrix in="SourceAlpha" type="matrix" values="0 0 0 0 0 0 0 0 0 0 0 0 0 0 0 0 0 0 127 0" result="hardAlpha"/>
<feOffset dy="2"/>
<feGaussianBlur stdDeviation="7"/>
<feComposite in2="hardAlpha" operator="out"/>
<feColorMatrix type="matrix" values="0 0 0 0 0 0 0 0 0 0 0 0 0 0 0 0 0 0 0.15 0"/>
<feBlend mode="normal" in2="BackgroundImageFix" result="effect1_dropShadow_23_4635"/>
<feBlend mode="normal" in="SourceGraphic" in2="effect1_dropShadow_23_4635" result="shape"/>
</filter>
</defs>
</svg>
