<svg width="33" height="33" viewBox="0 0 33 33" fill="none" xmlns="http://www.w3.org/2000/svg">
<path d="M22.2451 5.44019C24.8722 5.44019 26.9847 7.56623 26.9847 10.1798C26.9847 12.7391 24.9534 14.8246 22.4211 14.9194C22.3128 14.9058 22.1909 14.9058 22.069 14.9194" stroke="#2D2D31" stroke-width="2.1" stroke-linecap="round" stroke-linejoin="round"/>
<path d="M24.8586 27.1074C25.8336 26.9043 26.7545 26.5116 27.5128 25.9293C29.6253 24.3449 29.6253 21.7314 27.5128 20.147C26.768 19.5783 25.8607 19.1991 24.8993 18.9824" stroke="#2D2D31" stroke-width="2.1" stroke-linecap="round" stroke-linejoin="round"/>
<path d="M16.7387 8.17604C16.7387 11.4576 14.2726 13.9922 11.3803 13.9922C8.48792 13.9922 6.0218 11.4576 6.0218 8.17604C6.0218 4.89444 8.48792 2.35984 11.3803 2.35984C14.2726 2.35984 16.7387 4.89444 16.7387 8.17604Z" stroke="#2D2D31" stroke-width="2.1"/>
<path d="M21.3162 23.2817C21.3162 24.8439 20.3664 26.3866 18.566 27.5869C16.773 28.7822 14.2356 29.5557 11.3803 29.5557C8.52497 29.5557 5.98748 28.7822 4.19448 27.5869C2.39415 26.3866 1.44435 24.8439 1.44435 23.2817C1.44435 21.7196 2.39415 20.1768 4.19448 18.9765C5.98748 17.7812 8.52497 17.0078 11.3803 17.0078C14.2356 17.0078 16.773 17.7812 18.566 18.9765C20.3664 20.1768 21.3162 21.7196 21.3162 23.2817Z" stroke="#2D2D31" stroke-width="2.1"/>
</svg>
