<svg width="42" height="42" viewBox="0 0 42 42" fill="none" xmlns="http://www.w3.org/2000/svg">
<path d="M22.15 10.5C22.15 14.4488 18.9488 17.65 15 17.65C11.0512 17.65 7.85 14.4488 7.85 10.5C7.85 6.55116 11.0512 3.35 15 3.35C18.9488 3.35 22.15 6.55116 22.15 10.5Z" stroke="#F05858" stroke-width="2.7"/>
<path d="M27.65 30.5C27.65 32.5427 26.4306 34.5471 24.1415 36.1004C21.8597 37.6487 18.6318 38.65 15 38.65C11.3682 38.65 8.14027 37.6487 5.85853 36.1004C3.56943 34.5471 2.35 32.5427 2.35 30.5C2.35 28.4573 3.56943 26.4529 5.85853 24.8996C8.14027 23.3513 11.3682 22.35 15 22.35C18.6318 22.35 21.8597 23.3513 24.1415 24.8996C26.4306 26.4529 27.65 28.4573 27.65 30.5Z" stroke="#F05858" stroke-width="2.7"/>
<path d="M28.7171 6.99963C32.1121 6.99963 34.8421 9.74713 34.8421 13.1246C34.8421 16.4321 32.2171 19.1271 28.9446 19.2496C28.8046 19.2321 28.6471 19.2321 28.4896 19.2496" stroke="#F05858" stroke-width="2.625" stroke-linecap="round" stroke-linejoin="round"/>
<path d="M32.0947 35.0004C33.3547 34.7379 34.5447 34.2304 35.5247 33.4779C38.2547 31.4304 38.2547 28.0529 35.5247 26.0054C34.5622 25.2704 33.3897 24.7804 32.1472 24.5004" stroke="#F05858" stroke-width="2.625" stroke-linecap="round" stroke-linejoin="round"/>
</svg>
