<svg width="29" height="39" viewBox="0 0 29 39" fill="none" xmlns="http://www.w3.org/2000/svg">
<path d="M15 37C7.8203 37 2 33.1944 2 28.5C2 23.8056 7.8203 20 15 20C16.3956 20 17.7399 20.1438 19 20.41" stroke="#F05858" stroke-width="2.7" stroke-linecap="round"/>
<path d="M22.15 8.5C22.15 12.4488 18.9488 15.65 15 15.65C11.0512 15.65 7.85 12.4488 7.85 8.5C7.85 4.55116 11.0512 1.35 15 1.35C18.9488 1.35 22.15 4.55116 22.15 8.5Z" stroke="#F05858" stroke-width="2.7"/>
<path d="M18.8789 26.5215C18.8789 25.903 19.0775 25.278 19.4746 24.6465C19.8717 24.0085 20.4512 23.4811 21.2129 23.0645C21.9746 22.6478 22.8633 22.4395 23.8789 22.4395C24.8229 22.4395 25.6562 22.6152 26.3789 22.9668C27.1016 23.3118 27.6582 23.7839 28.0488 24.3828C28.446 24.9818 28.6445 25.6328 28.6445 26.3359C28.6445 26.8893 28.5306 27.3743 28.3027 27.791C28.0814 28.2077 27.8145 28.569 27.502 28.875C27.196 29.1745 26.6426 29.6823 25.8418 30.3984C25.6204 30.6003 25.4414 30.7793 25.3047 30.9355C25.1745 31.0853 25.0768 31.2253 25.0117 31.3555C24.9466 31.4792 24.8945 31.6061 24.8555 31.7363C24.8229 31.86 24.7708 32.0814 24.6992 32.4004C24.5755 33.0775 24.1882 33.416 23.5371 33.416C23.1986 33.416 22.9121 33.3053 22.6777 33.084C22.4499 32.8626 22.3359 32.5339 22.3359 32.0977C22.3359 31.5508 22.4206 31.0788 22.5898 30.6816C22.7591 30.278 22.9837 29.9264 23.2637 29.627C23.5436 29.321 23.9212 28.9596 24.3965 28.543C24.8132 28.1784 25.1126 27.9049 25.2949 27.7227C25.4837 27.5339 25.64 27.3255 25.7637 27.0977C25.8939 26.8698 25.959 26.6224 25.959 26.3555C25.959 25.8346 25.7637 25.3952 25.373 25.0371C24.9889 24.679 24.4909 24.5 23.8789 24.5C23.1628 24.5 22.6354 24.6823 22.2969 25.0469C21.9583 25.4049 21.6719 25.9355 21.4375 26.6387C21.2161 27.3743 20.7962 27.7422 20.1777 27.7422C19.8132 27.7422 19.5039 27.6152 19.25 27.3613C19.0026 27.1009 18.8789 26.821 18.8789 26.5215ZM23.6445 37.2246C23.2474 37.2246 22.8991 37.0977 22.5996 36.8438C22.3066 36.5833 22.1602 36.222 22.1602 35.7598C22.1602 35.3496 22.3034 35.0046 22.5898 34.7246C22.8763 34.4447 23.2279 34.3047 23.6445 34.3047C24.0547 34.3047 24.3997 34.4447 24.6797 34.7246C24.9596 35.0046 25.0996 35.3496 25.0996 35.7598C25.0996 36.2155 24.9531 36.5736 24.6602 36.834C24.3672 37.0944 24.0286 37.2246 23.6445 37.2246Z" fill="#F05858"/>
</svg>
