<svg width="62" height="62" viewBox="0 0 62 62" fill="none" xmlns="http://www.w3.org/2000/svg">
<circle cx="31" cy="31" r="31" fill="#F05858"/>
<path d="M31.6595 21.0077V50.991H21.8307L21.8942 48.8032L25.5277 47.2341V45.0621L29.3179 43.4571V38.4651C18.858 33.7892 18.3024 22.1285 17.9829 16H44.1376C43.8201 22.1285 43.2625 33.7892 32.8026 38.4651V43.4661L36.5928 45.071V47.2431L40.2263 48.8122L40.2918 51H30.461V21.0077" fill="white"/>
<path d="M20.3421 19.4996H15.4211C15.2318 19.4995 15.0444 19.5358 14.8699 19.6063C14.6955 19.6768 14.5374 19.7801 14.4051 19.9102C14.2727 20.0402 14.1687 20.1943 14.0992 20.3635C14.0297 20.5326 13.9961 20.7135 14.0004 20.8953C14.079 24.0662 15.3312 31.5627 25.3735 31.748" stroke="white" stroke-width="3" stroke-miterlimit="10"/>
<path d="M41.7785 19.4996H46.6995C46.8888 19.4995 47.0762 19.5358 47.2507 19.6063C47.4252 19.6768 47.5832 19.7801 47.7156 19.9102C47.8479 20.0402 47.9519 20.1943 48.0214 20.3635C48.0909 20.5326 48.1245 20.7135 48.1203 20.8953C48.0416 24.0662 46.7894 31.5627 36.7471 31.748" stroke="white" stroke-width="3" stroke-miterlimit="10"/>
</svg>
